<?xml version="1.0" encoding="utf-8" standalone="no"?>
<!DOCTYPE svg PUBLIC "-//W3C//DTD SVG 1.1//EN"
  "http://www.w3.org/Graphics/SVG/1.1/DTD/svg11.dtd">
<svg xmlns:xlink="http://www.w3.org/1999/xlink" width="460.8pt" height="345.6pt" viewBox="0 0 460.8 345.6" xmlns="http://www.w3.org/2000/svg" version="1.1">
 <metadata>
  <rdf:RDF xmlns:dc="http://purl.org/dc/elements/1.1/" xmlns:cc="http://creativecommons.org/ns#" xmlns:rdf="http://www.w3.org/1999/02/22-rdf-syntax-ns#">
   <cc:Work>
    <dc:type rdf:resource="http://purl.org/dc/dcmitype/StillImage"/>
    <dc:date>2022-11-16T18:28:46.070415</dc:date>
    <dc:format>image/svg+xml</dc:format>
    <dc:creator>
     <cc:Agent>
      <dc:title>Matplotlib v3.5.1, https://matplotlib.org/</dc:title>
     </cc:Agent>
    </dc:creator>
   </cc:Work>
  </rdf:RDF>
 </metadata>
 <defs>
  <style type="text/css">*{stroke-linejoin: round; stroke-linecap: butt}</style>
 </defs>
 <g id="figure_1">
  <g id="patch_1">
   <path d="M 0 345.6 
L 460.8 345.6 
L 460.8 0 
L 0 0 
z
" style="fill: #ffffff"/>
  </g>
  <g id="axes_1">
   <g id="patch_2">
    <path d="M 103.186439 307.584 
L 369.133561 307.584 
L 369.133561 41.472 
L 103.186439 41.472 
z
" style="fill: #ffffff"/>
   </g>
   <g id="matplotlib.axis_1">
    <g id="xtick_1">
     <g id="line2d_1">
      <defs>
       <path id="m006e8e9238" d="M 0 0 
L 0 3.5 
" style="stroke: #000000; stroke-width: 0.8"/>
      </defs>
      <g>
       <use xlink:href="#m006e8e9238" x="115.125056" y="307.584" style="stroke: #000000; stroke-width: 0.8"/>
      </g>
     </g>
     <g id="text_1">
      <!-- 0.0 -->
      <g transform="translate(107.173493 322.182437)scale(0.1 -0.1)">
       <defs>
        <path id="DejaVuSans-30" d="M 2034 4250 
Q 1547 4250 1301 3770 
Q 1056 3291 1056 2328 
Q 1056 1369 1301 889 
Q 1547 409 2034 409 
Q 2525 409 2770 889 
Q 3016 1369 3016 2328 
Q 3016 3291 2770 3770 
Q 2525 4250 2034 4250 
z
M 2034 4750 
Q 2819 4750 3233 4129 
Q 3647 3509 3647 2328 
Q 3647 1150 3233 529 
Q 2819 -91 2034 -91 
Q 1250 -91 836 529 
Q 422 1150 422 2328 
Q 422 3509 836 4129 
Q 1250 4750 2034 4750 
z
" transform="scale(0.015625)"/>
        <path id="DejaVuSans-2e" d="M 684 794 
L 1344 794 
L 1344 0 
L 684 0 
L 684 794 
z
" transform="scale(0.015625)"/>
       </defs>
       <use xlink:href="#DejaVuSans-30"/>
       <use xlink:href="#DejaVuSans-2e" x="63.623047"/>
       <use xlink:href="#DejaVuSans-30" x="95.410156"/>
      </g>
     </g>
    </g>
    <g id="xtick_2">
     <g id="line2d_2">
      <g>
       <use xlink:href="#m006e8e9238" x="163.509056" y="307.584" style="stroke: #000000; stroke-width: 0.8"/>
      </g>
     </g>
     <g id="text_2">
      <!-- 0.2 -->
      <g transform="translate(155.557493 322.182437)scale(0.1 -0.1)">
       <defs>
        <path id="DejaVuSans-32" d="M 1228 531 
L 3431 531 
L 3431 0 
L 469 0 
L 469 531 
Q 828 903 1448 1529 
Q 2069 2156 2228 2338 
Q 2531 2678 2651 2914 
Q 2772 3150 2772 3378 
Q 2772 3750 2511 3984 
Q 2250 4219 1831 4219 
Q 1534 4219 1204 4116 
Q 875 4013 500 3803 
L 500 4441 
Q 881 4594 1212 4672 
Q 1544 4750 1819 4750 
Q 2544 4750 2975 4387 
Q 3406 4025 3406 3419 
Q 3406 3131 3298 2873 
Q 3191 2616 2906 2266 
Q 2828 2175 2409 1742 
Q 1991 1309 1228 531 
z
" transform="scale(0.015625)"/>
       </defs>
       <use xlink:href="#DejaVuSans-30"/>
       <use xlink:href="#DejaVuSans-2e" x="63.623047"/>
       <use xlink:href="#DejaVuSans-32" x="95.410156"/>
      </g>
     </g>
    </g>
    <g id="xtick_3">
     <g id="line2d_3">
      <g>
       <use xlink:href="#m006e8e9238" x="211.893056" y="307.584" style="stroke: #000000; stroke-width: 0.8"/>
      </g>
     </g>
     <g id="text_3">
      <!-- 0.4 -->
      <g transform="translate(203.941493 322.182437)scale(0.1 -0.1)">
       <defs>
        <path id="DejaVuSans-34" d="M 2419 4116 
L 825 1625 
L 2419 1625 
L 2419 4116 
z
M 2253 4666 
L 3047 4666 
L 3047 1625 
L 3713 1625 
L 3713 1100 
L 3047 1100 
L 3047 0 
L 2419 0 
L 2419 1100 
L 313 1100 
L 313 1709 
L 2253 4666 
z
" transform="scale(0.015625)"/>
       </defs>
       <use xlink:href="#DejaVuSans-30"/>
       <use xlink:href="#DejaVuSans-2e" x="63.623047"/>
       <use xlink:href="#DejaVuSans-34" x="95.410156"/>
      </g>
     </g>
    </g>
    <g id="xtick_4">
     <g id="line2d_4">
      <g>
       <use xlink:href="#m006e8e9238" x="260.277056" y="307.584" style="stroke: #000000; stroke-width: 0.8"/>
      </g>
     </g>
     <g id="text_4">
      <!-- 0.6 -->
      <g transform="translate(252.325493 322.182437)scale(0.1 -0.1)">
       <defs>
        <path id="DejaVuSans-36" d="M 2113 2584 
Q 1688 2584 1439 2293 
Q 1191 2003 1191 1497 
Q 1191 994 1439 701 
Q 1688 409 2113 409 
Q 2538 409 2786 701 
Q 3034 994 3034 1497 
Q 3034 2003 2786 2293 
Q 2538 2584 2113 2584 
z
M 3366 4563 
L 3366 3988 
Q 3128 4100 2886 4159 
Q 2644 4219 2406 4219 
Q 1781 4219 1451 3797 
Q 1122 3375 1075 2522 
Q 1259 2794 1537 2939 
Q 1816 3084 2150 3084 
Q 2853 3084 3261 2657 
Q 3669 2231 3669 1497 
Q 3669 778 3244 343 
Q 2819 -91 2113 -91 
Q 1303 -91 875 529 
Q 447 1150 447 2328 
Q 447 3434 972 4092 
Q 1497 4750 2381 4750 
Q 2619 4750 2861 4703 
Q 3103 4656 3366 4563 
z
" transform="scale(0.015625)"/>
       </defs>
       <use xlink:href="#DejaVuSans-30"/>
       <use xlink:href="#DejaVuSans-2e" x="63.623047"/>
       <use xlink:href="#DejaVuSans-36" x="95.410156"/>
      </g>
     </g>
    </g>
    <g id="xtick_5">
     <g id="line2d_5">
      <g>
       <use xlink:href="#m006e8e9238" x="308.661056" y="307.584" style="stroke: #000000; stroke-width: 0.8"/>
      </g>
     </g>
     <g id="text_5">
      <!-- 0.8 -->
      <g transform="translate(300.709493 322.182437)scale(0.1 -0.1)">
       <defs>
        <path id="DejaVuSans-38" d="M 2034 2216 
Q 1584 2216 1326 1975 
Q 1069 1734 1069 1313 
Q 1069 891 1326 650 
Q 1584 409 2034 409 
Q 2484 409 2743 651 
Q 3003 894 3003 1313 
Q 3003 1734 2745 1975 
Q 2488 2216 2034 2216 
z
M 1403 2484 
Q 997 2584 770 2862 
Q 544 3141 544 3541 
Q 544 4100 942 4425 
Q 1341 4750 2034 4750 
Q 2731 4750 3128 4425 
Q 3525 4100 3525 3541 
Q 3525 3141 3298 2862 
Q 3072 2584 2669 2484 
Q 3125 2378 3379 2068 
Q 3634 1759 3634 1313 
Q 3634 634 3220 271 
Q 2806 -91 2034 -91 
Q 1263 -91 848 271 
Q 434 634 434 1313 
Q 434 1759 690 2068 
Q 947 2378 1403 2484 
z
M 1172 3481 
Q 1172 3119 1398 2916 
Q 1625 2713 2034 2713 
Q 2441 2713 2670 2916 
Q 2900 3119 2900 3481 
Q 2900 3844 2670 4047 
Q 2441 4250 2034 4250 
Q 1625 4250 1398 4047 
Q 1172 3844 1172 3481 
z
" transform="scale(0.015625)"/>
       </defs>
       <use xlink:href="#DejaVuSans-30"/>
       <use xlink:href="#DejaVuSans-2e" x="63.623047"/>
       <use xlink:href="#DejaVuSans-38" x="95.410156"/>
      </g>
     </g>
    </g>
    <g id="xtick_6">
     <g id="line2d_6">
      <g>
       <use xlink:href="#m006e8e9238" x="357.045056" y="307.584" style="stroke: #000000; stroke-width: 0.8"/>
      </g>
     </g>
     <g id="text_6">
      <!-- 1.0 -->
      <g transform="translate(349.093493 322.182437)scale(0.1 -0.1)">
       <defs>
        <path id="DejaVuSans-31" d="M 794 531 
L 1825 531 
L 1825 4091 
L 703 3866 
L 703 4441 
L 1819 4666 
L 2450 4666 
L 2450 531 
L 3481 531 
L 3481 0 
L 794 0 
L 794 531 
z
" transform="scale(0.015625)"/>
       </defs>
       <use xlink:href="#DejaVuSans-31"/>
       <use xlink:href="#DejaVuSans-2e" x="63.623047"/>
       <use xlink:href="#DejaVuSans-30" x="95.410156"/>
      </g>
     </g>
    </g>
    <g id="text_7">
     <!-- FPR -->
     <g transform="translate(226.795156 335.860562)scale(0.1 -0.1)">
      <defs>
       <path id="DejaVuSans-46" d="M 628 4666 
L 3309 4666 
L 3309 4134 
L 1259 4134 
L 1259 2759 
L 3109 2759 
L 3109 2228 
L 1259 2228 
L 1259 0 
L 628 0 
L 628 4666 
z
" transform="scale(0.015625)"/>
       <path id="DejaVuSans-50" d="M 1259 4147 
L 1259 2394 
L 2053 2394 
Q 2494 2394 2734 2622 
Q 2975 2850 2975 3272 
Q 2975 3691 2734 3919 
Q 2494 4147 2053 4147 
L 1259 4147 
z
M 628 4666 
L 2053 4666 
Q 2838 4666 3239 4311 
Q 3641 3956 3641 3272 
Q 3641 2581 3239 2228 
Q 2838 1875 2053 1875 
L 1259 1875 
L 1259 0 
L 628 0 
L 628 4666 
z
" transform="scale(0.015625)"/>
       <path id="DejaVuSans-52" d="M 2841 2188 
Q 3044 2119 3236 1894 
Q 3428 1669 3622 1275 
L 4263 0 
L 3584 0 
L 2988 1197 
Q 2756 1666 2539 1819 
Q 2322 1972 1947 1972 
L 1259 1972 
L 1259 0 
L 628 0 
L 628 4666 
L 2053 4666 
Q 2853 4666 3247 4331 
Q 3641 3997 3641 3322 
Q 3641 2881 3436 2590 
Q 3231 2300 2841 2188 
z
M 1259 4147 
L 1259 2491 
L 2053 2491 
Q 2509 2491 2742 2702 
Q 2975 2913 2975 3322 
Q 2975 3731 2742 3939 
Q 2509 4147 2053 4147 
L 1259 4147 
z
" transform="scale(0.015625)"/>
      </defs>
      <use xlink:href="#DejaVuSans-46"/>
      <use xlink:href="#DejaVuSans-50" x="57.519531"/>
      <use xlink:href="#DejaVuSans-52" x="117.822266"/>
     </g>
    </g>
   </g>
   <g id="matplotlib.axis_2">
    <g id="ytick_1">
     <g id="line2d_7">
      <defs>
       <path id="m19d682f778" d="M 0 0 
L -3.5 0 
" style="stroke: #000000; stroke-width: 0.8"/>
      </defs>
      <g>
       <use xlink:href="#m19d682f778" x="103.186439" y="295.488" style="stroke: #000000; stroke-width: 0.8"/>
      </g>
     </g>
     <g id="text_8">
      <!-- 0.0 -->
      <g transform="translate(80.283314 299.287219)scale(0.1 -0.1)">
       <use xlink:href="#DejaVuSans-30"/>
       <use xlink:href="#DejaVuSans-2e" x="63.623047"/>
       <use xlink:href="#DejaVuSans-30" x="95.410156"/>
      </g>
     </g>
    </g>
    <g id="ytick_2">
     <g id="line2d_8">
      <g>
       <use xlink:href="#m19d682f778" x="103.186439" y="247.104" style="stroke: #000000; stroke-width: 0.8"/>
      </g>
     </g>
     <g id="text_9">
      <!-- 0.2 -->
      <g transform="translate(80.283314 250.903219)scale(0.1 -0.1)">
       <use xlink:href="#DejaVuSans-30"/>
       <use xlink:href="#DejaVuSans-2e" x="63.623047"/>
       <use xlink:href="#DejaVuSans-32" x="95.410156"/>
      </g>
     </g>
    </g>
    <g id="ytick_3">
     <g id="line2d_9">
      <g>
       <use xlink:href="#m19d682f778" x="103.186439" y="198.72" style="stroke: #000000; stroke-width: 0.8"/>
      </g>
     </g>
     <g id="text_10">
      <!-- 0.4 -->
      <g transform="translate(80.283314 202.519219)scale(0.1 -0.1)">
       <use xlink:href="#DejaVuSans-30"/>
       <use xlink:href="#DejaVuSans-2e" x="63.623047"/>
       <use xlink:href="#DejaVuSans-34" x="95.410156"/>
      </g>
     </g>
    </g>
    <g id="ytick_4">
     <g id="line2d_10">
      <g>
       <use xlink:href="#m19d682f778" x="103.186439" y="150.336" style="stroke: #000000; stroke-width: 0.8"/>
      </g>
     </g>
     <g id="text_11">
      <!-- 0.6 -->
      <g transform="translate(80.283314 154.135219)scale(0.1 -0.1)">
       <use xlink:href="#DejaVuSans-30"/>
       <use xlink:href="#DejaVuSans-2e" x="63.623047"/>
       <use xlink:href="#DejaVuSans-36" x="95.410156"/>
      </g>
     </g>
    </g>
    <g id="ytick_5">
     <g id="line2d_11">
      <g>
       <use xlink:href="#m19d682f778" x="103.186439" y="101.952" style="stroke: #000000; stroke-width: 0.8"/>
      </g>
     </g>
     <g id="text_12">
      <!-- 0.8 -->
      <g transform="translate(80.283314 105.751219)scale(0.1 -0.1)">
       <use xlink:href="#DejaVuSans-30"/>
       <use xlink:href="#DejaVuSans-2e" x="63.623047"/>
       <use xlink:href="#DejaVuSans-38" x="95.410156"/>
      </g>
     </g>
    </g>
    <g id="ytick_6">
     <g id="line2d_12">
      <g>
       <use xlink:href="#m19d682f778" x="103.186439" y="53.568" style="stroke: #000000; stroke-width: 0.8"/>
      </g>
     </g>
     <g id="text_13">
      <!-- 1.0 -->
      <g transform="translate(80.283314 57.367219)scale(0.1 -0.1)">
       <use xlink:href="#DejaVuSans-31"/>
       <use xlink:href="#DejaVuSans-2e" x="63.623047"/>
       <use xlink:href="#DejaVuSans-30" x="95.410156"/>
      </g>
     </g>
    </g>
    <g id="text_14">
     <!-- TPR -->
     <g transform="translate(74.203626 184.070969)rotate(-90)scale(0.1 -0.1)">
      <defs>
       <path id="DejaVuSans-54" d="M -19 4666 
L 3928 4666 
L 3928 4134 
L 2272 4134 
L 2272 0 
L 1638 0 
L 1638 4134 
L -19 4134 
L -19 4666 
z
" transform="scale(0.015625)"/>
      </defs>
      <use xlink:href="#DejaVuSans-54"/>
      <use xlink:href="#DejaVuSans-50" x="61.083984"/>
      <use xlink:href="#DejaVuSans-52" x="121.386719"/>
     </g>
    </g>
   </g>
   <g id="line2d_13">
    <path d="M 115.274944 295.488 
L 115.274944 294.272322 
L 115.424833 294.272322 
L 115.424833 293.461869 
L 115.424833 293.461869 
L 115.574721 293.461869 
L 115.574721 293.461869 
L 115.574721 292.246191 
L 115.574721 292.246191 
L 115.72461 292.246191 
L 115.72461 291.840965 
L 115.874498 291.840965 
L 115.874498 291.840965 
L 115.874498 290.22006 
L 116.024387 290.22006 
L 116.024387 282.115538 
L 116.024387 282.115538 
L 116.174275 282.115538 
L 116.174275 280.494633 
L 116.324164 280.494633 
L 116.324164 280.494633 
L 116.324164 276.037146 
L 116.474052 276.037146 
L 116.474052 276.037146 
L 116.474052 274.416241 
L 116.623941 274.416241 
L 116.623941 271.174432 
L 116.773829 271.174432 
L 116.773829 271.174432 
L 116.773829 269.553528 
L 116.923717 269.553528 
L 116.923717 269.553528 
L 116.923717 268.337849 
L 116.923717 268.337849 
L 117.223494 268.337849 
L 117.223494 267.527397 
L 117.223494 267.527397 
L 117.373383 267.527397 
L 117.373383 264.690814 
L 117.373383 264.690814 
L 117.523271 264.690814 
L 117.523271 262.259457 
L 117.523271 262.259457 
L 117.67316 262.259457 
L 117.67316 262.259457 
L 117.67316 261.043779 
L 117.67316 261.043779 
L 117.823048 261.043779 
L 117.823048 261.043779 
L 117.823048 259.422874 
L 118.272714 259.422874 
L 118.272714 258.612422 
L 118.272714 258.612422 
L 118.422602 258.612422 
L 118.422602 258.612422 
L 118.422602 256.991518 
L 118.572491 256.991518 
L 118.572491 256.991518 
L 118.572491 255.370613 
L 118.722379 255.370613 
L 118.722379 255.370613 
L 118.722379 254.154935 
L 118.872268 254.154935 
L 118.872268 250.102673 
L 119.022156 250.102673 
L 119.022156 249.292221 
L 119.172045 249.292221 
L 119.172045 249.292221 
L 119.172045 248.481769 
L 119.172045 248.481769 
L 119.321933 248.481769 
L 119.321933 242.808603 
L 119.321933 242.808603 
L 119.62171 242.808603 
L 119.62171 241.998151 
L 119.62171 241.998151 
L 119.771599 241.998151 
L 119.771599 241.592925 
L 119.921487 241.592925 
L 119.921487 241.592925 
L 119.921487 240.782472 
L 120.071375 240.782472 
L 120.071375 236.730211 
L 120.071375 236.730211 
L 120.221264 236.730211 
L 120.221264 235.109307 
L 120.221264 235.109307 
L 120.371152 235.109307 
L 120.371152 234.70408 
L 120.521041 234.70408 
L 120.521041 234.70408 
L 120.521041 234.298854 
L 120.670929 234.298854 
L 120.670929 232.272724 
L 120.970706 232.272724 
L 120.970706 232.272724 
L 120.970706 231.867497 
L 120.970706 231.867497 
L 121.270483 231.867497 
L 121.270483 231.867497 
L 121.270483 231.462271 
L 121.57026 231.462271 
L 121.57026 231.462271 
L 121.57026 230.651819 
L 121.57026 230.651819 
L 121.720149 230.651819 
L 121.720149 230.651819 
L 121.720149 227.41001 
L 121.870037 227.41001 
L 121.870037 225.789106 
L 122.019926 225.789106 
L 122.019926 224.978653 
L 122.319703 224.978653 
L 122.319703 222.14207 
L 122.319703 222.14207 
L 122.469591 222.14207 
L 122.469591 222.14207 
L 122.469591 221.736844 
L 122.61948 221.736844 
L 122.61948 221.331618 
L 122.919257 221.331618 
L 122.919257 220.521166 
L 122.919257 220.521166 
L 123.668699 220.521166 
L 123.668699 220.521166 
L 123.668699 219.710714 
L 124.268253 219.710714 
L 124.268253 218.495035 
L 124.418141 218.495035 
L 124.418141 217.684583 
L 124.418141 217.684583 
L 124.717918 217.684583 
L 124.717918 216.874131 
L 125.017695 216.874131 
L 125.017695 215.253226 
L 125.167584 215.253226 
L 125.167584 215.253226 
L 125.167584 214.442774 
L 125.317472 214.442774 
L 125.317472 214.037548 
L 125.467361 214.037548 
L 125.467361 210.795739 
L 125.467361 210.795739 
L 125.617249 210.795739 
L 125.617249 209.985286 
L 125.617249 209.985286 
L 125.917026 209.985286 
L 125.917026 209.58006 
L 126.066914 209.58006 
L 126.066914 209.58006 
L 126.066914 208.769608 
L 126.366691 208.769608 
L 126.366691 208.769608 
L 126.366691 207.148704 
L 126.966245 207.148704 
L 126.966245 204.717347 
L 127.116134 204.717347 
L 127.116134 202.691216 
L 127.116134 202.691216 
L 127.266022 202.691216 
L 127.266022 202.691216 
L 127.266022 202.28599 
L 127.415911 202.28599 
L 127.415911 202.28599 
L 127.415911 200.259859 
L 127.565799 200.259859 
L 127.565799 199.854633 
L 127.715688 199.854633 
L 127.715688 199.044181 
L 128.015465 199.044181 
L 128.015465 197.828503 
L 128.015465 197.828503 
L 128.165353 197.828503 
L 128.165353 197.828503 
L 128.165353 196.207598 
L 128.914796 196.207598 
L 128.914796 196.207598 
L 128.914796 195.397146 
L 128.914796 195.397146 
L 129.214572 195.397146 
L 129.214572 195.397146 
L 129.214572 194.181467 
L 129.214572 194.181467 
L 129.664238 194.181467 
L 129.664238 194.181467 
L 129.664238 193.371015 
L 129.964015 193.371015 
L 129.964015 192.155337 
L 130.113903 192.155337 
L 130.113903 191.344884 
L 130.113903 191.344884 
L 130.263792 191.344884 
L 130.263792 190.939658 
L 130.563569 190.939658 
L 130.563569 190.939658 
L 130.563569 190.534432 
L 130.713457 190.534432 
L 130.713457 190.129206 
L 131.013234 190.129206 
L 131.013234 190.129206 
L 131.013234 189.72398 
L 131.313011 189.72398 
L 131.313011 189.318754 
L 131.313011 189.318754 
L 131.4629 189.318754 
L 131.4629 189.318754 
L 131.4629 188.913528 
L 131.612788 188.913528 
L 131.612788 188.913528 
L 131.612788 188.508302 
L 131.912565 188.508302 
L 131.912565 187.292623 
L 131.912565 187.292623 
L 132.212342 187.292623 
L 132.212342 187.292623 
L 132.212342 186.887397 
L 132.36223 186.887397 
L 132.36223 186.482171 
L 132.662007 186.482171 
L 132.662007 186.482171 
L 132.662007 186.076945 
L 132.811896 186.076945 
L 132.811896 185.671719 
L 132.961784 185.671719 
L 132.961784 185.671719 
L 132.961784 185.266492 
L 133.261561 185.266492 
L 133.261561 185.266492 
L 133.261561 184.050814 
L 133.561338 184.050814 
L 133.561338 183.645588 
L 133.561338 183.645588 
L 133.711227 183.645588 
L 133.711227 181.214231 
L 134.011004 181.214231 
L 134.011004 181.214231 
L 134.011004 180.809005 
L 134.160892 180.809005 
L 134.160892 180.403779 
L 134.160892 180.403779 
L 134.460669 180.403779 
L 134.460669 179.593327 
L 134.460669 179.593327 
L 134.610558 179.593327 
L 134.610558 179.593327 
L 134.610558 179.188101 
L 134.760446 179.188101 
L 134.760446 178.377648 
L 134.760446 178.377648 
L 135.509888 178.377648 
L 135.509888 177.16197 
L 135.509888 177.16197 
L 135.959554 177.16197 
L 135.959554 176.756744 
L 136.409219 176.756744 
L 136.409219 176.351518 
L 136.708996 176.351518 
L 136.708996 175.135839 
L 136.858885 175.135839 
L 136.858885 174.730613 
L 136.858885 174.730613 
L 137.008773 174.730613 
L 137.008773 174.325387 
L 137.30855 174.325387 
L 137.30855 174.325387 
L 137.30855 173.920161 
L 137.608327 173.920161 
L 137.608327 173.514935 
L 138.057993 173.514935 
L 138.057993 173.514935 
L 138.057993 173.109709 
L 138.957323 173.109709 
L 138.957323 173.109709 
L 138.957323 172.704482 
L 139.107212 172.704482 
L 139.107212 171.89403 
L 139.556877 171.89403 
L 139.556877 171.488804 
L 139.556877 171.488804 
L 139.856654 171.488804 
L 139.856654 171.488804 
L 139.856654 171.083578 
L 140.156431 171.083578 
L 140.156431 170.678352 
L 140.30632 170.678352 
L 140.30632 170.678352 
L 140.30632 170.273126 
L 140.456208 170.273126 
L 140.456208 169.867899 
L 140.456208 169.867899 
L 140.606097 169.867899 
L 140.606097 169.462673 
L 141.205651 169.462673 
L 141.205651 169.462673 
L 141.205651 169.057447 
L 141.505428 169.057447 
L 141.505428 169.057447 
L 141.505428 168.246995 
L 141.805204 168.246995 
L 141.805204 167.841769 
L 141.805204 167.841769 
L 142.25487 167.841769 
L 142.25487 167.841769 
L 142.25487 167.436543 
L 143.004312 167.436543 
L 143.004312 167.031317 
L 143.004312 167.031317 
L 143.753755 167.031317 
L 143.753755 167.031317 
L 143.753755 166.62609 
L 144.353309 166.62609 
L 144.353309 165.005186 
L 144.353309 165.005186 
L 145.402528 165.005186 
L 145.402528 165.005186 
L 145.402528 164.59996 
L 145.402528 164.59996 
L 145.852193 164.59996 
L 145.852193 164.59996 
L 145.852193 164.194734 
L 146.002082 164.194734 
L 146.002082 163.789508 
L 146.002082 163.789508 
L 146.15197 163.789508 
L 146.15197 163.384281 
L 146.301859 163.384281 
L 146.301859 162.979055 
L 146.451747 162.979055 
L 146.451747 162.979055 
L 146.451747 162.573829 
L 146.451747 162.573829 
L 146.601636 162.573829 
L 146.601636 162.168603 
L 147.051301 162.168603 
L 147.051301 160.952925 
L 147.800743 160.952925 
L 147.800743 160.952925 
L 147.800743 160.547698 
L 148.999851 160.547698 
L 148.999851 160.547698 
L 148.999851 160.142472 
L 149.299628 160.142472 
L 149.299628 159.737246 
L 150.049071 159.737246 
L 150.049071 158.926794 
L 150.348848 158.926794 
L 150.348848 157.711116 
L 151.847732 157.711116 
L 151.847732 157.305889 
L 152.147509 157.305889 
L 152.147509 157.305889 
L 152.147509 156.495437 
L 152.147509 156.495437 
L 152.297398 156.495437 
L 152.297398 156.495437 
L 152.297398 155.279759 
L 152.896952 155.279759 
L 152.896952 155.279759 
L 152.896952 154.469307 
L 152.896952 154.469307 
L 153.04684 154.469307 
L 153.04684 154.469307 
L 153.04684 153.253628 
L 153.04684 153.253628 
L 155.145279 153.253628 
L 155.145279 153.253628 
L 155.145279 152.848402 
L 156.194498 152.848402 
L 156.194498 152.443176 
L 156.494275 152.443176 
L 156.494275 151.227497 
L 156.494275 151.227497 
L 157.243717 151.227497 
L 157.243717 150.822271 
L 157.393606 150.822271 
L 157.393606 150.822271 
L 157.393606 150.417045 
L 157.843271 150.417045 
L 157.843271 149.606593 
L 157.99316 149.606593 
L 157.99316 149.201367 
L 158.592714 149.201367 
L 158.592714 149.201367 
L 158.592714 148.796141 
L 159.042379 148.796141 
L 159.042379 148.796141 
L 159.042379 148.390915 
L 159.492045 148.390915 
L 159.492045 148.390915 
L 159.492045 147.175236 
L 160.541264 147.175236 
L 160.541264 146.77001 
L 160.841041 146.77001 
L 160.841041 146.364784 
L 160.990929 146.364784 
L 160.990929 145.959558 
L 161.89026 145.959558 
L 161.89026 145.554332 
L 163.83881 145.554332 
L 163.83881 145.149106 
L 164.138587 145.149106 
L 164.138587 145.149106 
L 164.138587 143.933427 
L 164.138587 143.933427 
L 164.438364 143.933427 
L 164.438364 143.528201 
L 164.738141 143.528201 
L 164.738141 143.528201 
L 164.738141 143.122975 
L 165.187807 143.122975 
L 165.187807 142.717749 
L 168.185576 142.717749 
L 168.185576 142.717749 
L 168.185576 142.312523 
L 168.485353 142.312523 
L 168.485353 142.312523 
L 168.485353 141.907296 
L 168.635242 141.907296 
L 168.635242 141.907296 
L 168.635242 141.50207 
L 168.635242 141.50207 
L 169.084907 141.50207 
L 169.084907 141.096844 
L 169.084907 141.096844 
L 169.984238 141.096844 
L 169.984238 140.691618 
L 170.284015 140.691618 
L 170.284015 140.691618 
L 170.284015 140.286392 
L 170.284015 140.286392 
L 171.033457 140.286392 
L 171.033457 139.881166 
L 172.68223 139.881166 
L 172.68223 139.47594 
L 173.281784 139.47594 
L 173.281784 139.070714 
L 173.431673 139.070714 
L 173.431673 138.665487 
L 173.581561 138.665487 
L 173.581561 137.449809 
L 173.581561 137.449809 
L 173.73145 137.449809 
L 173.73145 137.449809 
L 173.73145 137.044583 
L 174.930558 137.044583 
L 174.930558 137.044583 
L 174.930558 136.234131 
L 175.530112 136.234131 
L 175.530112 136.234131 
L 175.530112 135.828905 
L 175.979777 135.828905 
L 175.979777 135.423678 
L 176.879108 135.423678 
L 176.879108 135.018452 
L 176.879108 135.018452 
L 177.328773 135.018452 
L 177.328773 134.613226 
L 177.478662 134.613226 
L 177.478662 134.208 
L 177.778439 134.208 
L 177.778439 134.208 
L 177.778439 133.802774 
L 177.928327 133.802774 
L 177.928327 133.397548 
L 177.928327 133.397548 
L 179.277323 133.397548 
L 179.277323 132.181869 
L 179.277323 132.181869 
L 179.726989 132.181869 
L 179.726989 131.776643 
L 182.424981 131.776643 
L 182.424981 131.776643 
L 182.424981 131.371417 
L 183.324312 131.371417 
L 183.324312 130.966191 
L 183.474201 130.966191 
L 183.474201 130.966191 
L 183.474201 130.560965 
L 183.923866 130.560965 
L 183.923866 130.560965 
L 183.923866 129.345286 
L 183.923866 129.345286 
L 184.823197 129.345286 
L 184.823197 129.345286 
L 184.823197 128.94006 
L 185.122974 128.94006 
L 185.122974 128.129608 
L 185.122974 128.129608 
L 185.872416 128.129608 
L 185.872416 127.724382 
L 186.172193 127.724382 
L 186.172193 127.319156 
L 186.322082 127.319156 
L 186.322082 126.91393 
L 186.771747 126.91393 
L 186.771747 126.508704 
L 187.071524 126.508704 
L 187.071524 126.103477 
L 187.071524 126.103477 
L 187.671078 126.103477 
L 187.671078 126.103477 
L 187.671078 125.698251 
L 187.671078 125.698251 
L 188.42052 125.698251 
L 188.42052 125.293025 
L 188.870186 125.293025 
L 188.870186 124.887799 
L 189.169963 124.887799 
L 189.169963 124.887799 
L 189.169963 124.482573 
L 189.46974 124.482573 
L 189.46974 124.482573 
L 189.46974 124.077347 
L 189.46974 124.077347 
L 191.718067 124.077347 
L 191.718067 123.266894 
L 192.317621 123.266894 
L 192.317621 123.266894 
L 192.317621 122.861668 
L 193.516729 122.861668 
L 193.516729 122.456442 
L 193.516729 122.456442 
L 197.114052 122.456442 
L 197.114052 122.051216 
L 197.114052 122.051216 
L 198.31316 122.051216 
L 198.31316 122.051216 
L 198.31316 121.64599 
L 198.463048 121.64599 
L 198.463048 121.64599 
L 198.463048 121.240764 
L 199.062602 121.240764 
L 199.062602 120.835538 
L 199.062602 120.835538 
L 199.212491 120.835538 
L 199.212491 120.025085 
L 200.861264 120.025085 
L 200.861264 119.214633 
L 201.011152 119.214633 
L 201.011152 119.214633 
L 201.011152 118.809407 
L 201.161041 118.809407 
L 201.161041 118.809407 
L 201.161041 118.404181 
L 202.510037 118.404181 
L 202.510037 117.998955 
L 202.809814 117.998955 
L 202.809814 117.593729 
L 202.959703 117.593729 
L 202.959703 117.593729 
L 202.959703 117.188503 
L 203.409368 117.188503 
L 203.409368 116.37805 
L 204.308699 116.37805 
L 204.308699 116.37805 
L 204.308699 115.567598 
L 204.308699 115.567598 
L 204.758364 115.567598 
L 204.758364 115.567598 
L 204.758364 115.162372 
L 204.908253 115.162372 
L 204.908253 114.35192 
L 205.357918 114.35192 
L 205.357918 114.35192 
L 205.357918 113.946693 
L 205.507807 113.946693 
L 205.507807 113.541467 
L 206.107361 113.541467 
L 206.107361 112.325789 
L 207.306468 112.325789 
L 207.306468 112.325789 
L 207.306468 111.515337 
L 207.306468 111.515337 
L 207.906022 111.515337 
L 207.906022 111.110111 
L 208.055911 111.110111 
L 208.055911 110.704884 
L 208.955242 110.704884 
L 208.955242 110.299658 
L 208.955242 110.299658 
L 211.203569 110.299658 
L 211.203569 110.299658 
L 211.203569 109.894432 
L 211.503346 109.894432 
L 211.503346 109.894432 
L 211.503346 109.489206 
L 213.00223 109.489206 
L 213.00223 109.489206 
L 213.00223 109.08398 
L 213.00223 109.08398 
L 213.451896 109.08398 
L 213.451896 108.273528 
L 213.601784 108.273528 
L 213.601784 107.463075 
L 213.601784 107.463075 
L 215.850112 107.463075 
L 215.850112 107.057849 
L 215.850112 107.057849 
L 216 107.057849 
L 216 106.652623 
L 216.299777 106.652623 
L 216.299777 106.247397 
L 218.098439 106.247397 
L 218.098439 105.436945 
L 218.098439 105.436945 
L 218.697993 105.436945 
L 218.697993 105.031719 
L 219.147658 105.031719 
L 219.147658 104.626492 
L 221.096208 104.626492 
L 221.096208 104.221266 
L 221.246097 104.221266 
L 221.246097 103.81604 
L 221.246097 103.81604 
L 223.044758 103.81604 
L 223.044758 103.81604 
L 223.044758 103.410814 
L 223.644312 103.410814 
L 223.644312 103.410814 
L 223.644312 102.600362 
L 223.644312 102.600362 
L 225.442974 102.600362 
L 225.442974 102.195136 
L 227.091747 102.195136 
L 227.091747 102.195136 
L 227.091747 101.78991 
L 227.091747 101.78991 
L 227.241636 101.78991 
L 227.241636 101.384683 
L 227.991078 101.384683 
L 227.991078 100.979457 
L 228.74052 100.979457 
L 228.74052 100.169005 
L 228.890409 100.169005 
L 228.890409 100.169005 
L 228.890409 99.763779 
L 228.890409 99.763779 
L 230.239405 99.763779 
L 230.239405 99.763779 
L 230.239405 99.358553 
L 231.73829 99.358553 
L 231.73829 99.358553 
L 231.73829 98.548101 
L 231.73829 98.548101 
L 232.187955 98.548101 
L 232.187955 98.142874 
L 232.487732 98.142874 
L 232.487732 98.142874 
L 232.487732 97.737648 
L 232.487732 97.737648 
L 232.787509 97.737648 
L 232.787509 97.737648 
L 232.787509 97.332422 
L 232.787509 97.332422 
L 235.035836 97.332422 
L 235.035836 96.927196 
L 236.234944 96.927196 
L 236.234944 96.927196 
L 236.234944 95.306291 
L 236.384833 95.306291 
L 236.384833 94.901065 
L 237.134275 94.901065 
L 237.134275 94.495839 
L 237.134275 94.495839 
L 237.284164 94.495839 
L 237.284164 94.090613 
L 237.284164 94.090613 
L 237.434052 94.090613 
L 237.434052 93.685387 
L 237.434052 93.685387 
L 238.183494 93.685387 
L 238.183494 92.874935 
L 238.783048 92.874935 
L 238.783048 92.874935 
L 238.783048 92.469709 
L 238.783048 92.469709 
L 239.382602 92.469709 
L 239.382602 92.469709 
L 239.382602 91.659256 
L 240.431822 91.659256 
L 240.431822 90.848804 
L 242.53026 90.848804 
L 242.53026 90.443578 
L 243.429591 90.443578 
L 243.429591 90.443578 
L 243.429591 90.038352 
L 245.228253 90.038352 
L 245.228253 90.038352 
L 245.228253 89.633126 
L 245.977695 89.633126 
L 245.977695 89.633126 
L 245.977695 88.822673 
L 246.427361 88.822673 
L 246.427361 88.822673 
L 246.427361 88.417447 
L 249.275242 88.417447 
L 249.275242 88.417447 
L 249.275242 88.012221 
L 249.575019 88.012221 
L 249.575019 87.201769 
L 250.324461 87.201769 
L 250.324461 87.201769 
L 250.324461 86.796543 
L 252.123123 86.796543 
L 252.123123 86.391317 
L 252.123123 86.391317 
L 254.521338 86.391317 
L 254.521338 86.391317 
L 254.521338 85.98609 
L 254.821115 85.98609 
L 254.821115 85.98609 
L 254.821115 85.580864 
L 257.668996 85.580864 
L 257.668996 85.580864 
L 257.668996 85.175638 
L 257.668996 85.175638 
L 260.816654 85.175638 
L 260.816654 84.770412 
L 260.966543 84.770412 
L 260.966543 84.770412 
L 260.966543 84.365186 
L 261.715985 84.365186 
L 261.715985 84.365186 
L 261.715985 83.554734 
L 262.915093 83.554734 
L 262.915093 83.149508 
L 263.21487 83.149508 
L 263.21487 83.149508 
L 263.21487 82.339055 
L 263.514647 82.339055 
L 263.514647 82.339055 
L 263.514647 81.528603 
L 264.264089 81.528603 
L 264.264089 81.528603 
L 264.264089 81.123377 
L 264.264089 81.123377 
L 268.460967 81.123377 
L 268.460967 80.718151 
L 270.709294 80.718151 
L 270.709294 80.718151 
L 270.709294 79.907698 
L 270.709294 79.907698 
L 271.308848 79.907698 
L 271.308848 79.907698 
L 271.308848 79.502472 
L 271.458736 79.502472 
L 271.458736 79.502472 
L 271.458736 78.69202 
L 271.458736 78.69202 
L 273.257398 78.69202 
L 273.257398 78.286794 
L 273.257398 78.286794 
L 273.557175 78.286794 
L 273.557175 78.286794 
L 273.557175 77.476342 
L 273.557175 77.476342 
L 276.105279 77.476342 
L 276.105279 77.071116 
L 279.852491 77.071116 
L 279.852491 76.665889 
L 279.852491 76.665889 
L 281.801041 76.665889 
L 281.801041 76.260663 
L 282.400595 76.260663 
L 282.400595 75.855437 
L 284.499033 75.855437 
L 284.499033 75.450211 
L 287.646691 75.450211 
L 287.646691 75.450211 
L 287.646691 75.044985 
L 287.646691 75.044985 
L 288.096357 75.044985 
L 288.096357 74.639759 
L 291.244015 74.639759 
L 291.244015 74.639759 
L 291.244015 74.234533 
L 291.843569 74.234533 
L 291.843569 74.234533 
L 291.843569 73.829307 
L 291.993457 73.829307 
L 291.993457 73.42408 
L 291.993457 73.42408 
L 292.7429 73.42408 
L 292.7429 73.42408 
L 292.7429 73.018854 
L 293.64223 73.018854 
L 293.64223 72.613628 
L 297.239554 72.613628 
L 297.239554 72.613628 
L 297.239554 72.208402 
L 297.239554 72.208402 
L 297.539331 72.208402 
L 297.539331 71.803176 
L 298.58855 71.803176 
L 298.58855 71.803176 
L 298.58855 71.39795 
L 303.384981 71.39795 
L 303.384981 71.39795 
L 303.384981 70.992724 
L 304.434201 70.992724 
L 304.434201 70.587497 
L 305.933086 70.587497 
L 305.933086 70.587497 
L 305.933086 70.182271 
L 307.132193 70.182271 
L 307.132193 69.777045 
L 307.881636 69.777045 
L 307.881636 69.777045 
L 307.881636 69.371819 
L 309.830186 69.371819 
L 309.830186 69.371819 
L 309.830186 68.966593 
L 309.830186 68.966593 
L 313.877175 68.966593 
L 313.877175 68.561367 
L 313.877175 68.561367 
L 314.776506 68.561367 
L 314.776506 68.156141 
L 316.874944 68.156141 
L 316.874944 67.750915 
L 316.874944 67.750915 
L 318.223941 67.750915 
L 318.223941 67.345688 
L 319.27316 67.345688 
L 319.27316 66.940462 
L 320.172491 66.940462 
L 320.172491 66.535236 
L 320.472268 66.535236 
L 320.472268 66.535236 
L 320.472268 66.13001 
L 320.472268 66.13001 
L 321.071822 66.13001 
L 321.071822 65.724784 
L 321.071822 65.724784 
L 323.020372 65.724784 
L 323.020372 65.319558 
L 327.067361 65.319558 
L 327.067361 64.914332 
L 327.067361 64.914332 
L 329.315688 64.914332 
L 329.315688 64.914332 
L 329.315688 64.509106 
L 332.463346 64.509106 
L 332.463346 64.509106 
L 332.463346 63.293427 
L 332.613234 63.293427 
L 332.613234 62.888201 
L 338.159108 62.888201 
L 338.159108 62.888201 
L 338.159108 62.077749 
L 338.159108 62.077749 
L 338.458885 62.077749 
L 338.458885 61.672523 
L 339.058439 61.672523 
L 339.058439 61.672523 
L 339.058439 61.267296 
L 339.058439 61.267296 
L 339.95777 61.267296 
L 339.95777 61.267296 
L 339.95777 60.86207 
L 340.557323 60.86207 
L 340.557323 60.86207 
L 340.557323 60.456844 
L 341.156877 60.456844 
L 341.156877 60.456844 
L 341.156877 60.051618 
L 342.505874 60.051618 
L 342.505874 60.051618 
L 342.505874 59.646392 
L 343.255316 59.646392 
L 343.255316 59.646392 
L 343.255316 59.241166 
L 343.704981 59.241166 
L 343.704981 58.025487 
L 344.604312 58.025487 
L 344.604312 58.025487 
L 344.604312 57.620261 
L 344.604312 57.620261 
L 345.203866 57.620261 
L 345.203866 57.215035 
L 345.653532 57.215035 
L 345.653532 56.809809 
L 345.653532 56.809809 
L 348.201636 56.809809 
L 348.201636 56.404583 
L 351.798959 56.404583 
L 351.798959 56.404583 
L 351.798959 55.999357 
L 353.297844 55.999357 
L 353.297844 55.188905 
L 354.047286 55.188905 
L 354.047286 54.378452 
L 354.64684 54.378452 
L 354.64684 53.973226 
L 355.845948 53.973226 
L 355.845948 53.973226 
L 355.845948 53.568 
L 357.045056 53.568 
L 357.045056 53.568 
" clip-path="url(#p672fda33b8)" style="fill: none; stroke: #1f77b4; stroke-width: 1.5; stroke-linecap: square"/>
   </g>
   <g id="line2d_14">
    <path d="M 153.04684 153.253628 
" clip-path="url(#p672fda33b8)" style="fill: none; stroke: #ff0000; stroke-width: 1.5; stroke-linecap: square"/>
    <defs>
     <path id="m60f77e3663" d="M 0 3 
C 0.795609 3 1.55874 2.683901 2.12132 2.12132 
C 2.683901 1.55874 3 0.795609 3 0 
C 3 -0.795609 2.683901 -1.55874 2.12132 -2.12132 
C 1.55874 -2.683901 0.795609 -3 0 -3 
C -0.795609 -3 -1.55874 -2.683901 -2.12132 -2.12132 
C -2.683901 -1.55874 -3 -0.795609 -3 0 
C -3 0.795609 -2.683901 1.55874 -2.12132 2.12132 
C -1.55874 2.683901 -0.795609 3 0 3 
z
" style="stroke: #ff0000"/>
    </defs>
    <g clip-path="url(#p672fda33b8)">
     <use xlink:href="#m60f77e3663" x="153.04684" y="153.253628" style="fill: #ff0000; stroke: #ff0000"/>
    </g>
   </g>
   <g id="patch_3">
    <path d="M 103.186439 307.584 
L 103.186439 41.472 
" style="fill: none; stroke: #000000; stroke-width: 0.8; stroke-linejoin: miter; stroke-linecap: square"/>
   </g>
   <g id="patch_4">
    <path d="M 369.133561 307.584 
L 369.133561 41.472 
" style="fill: none; stroke: #000000; stroke-width: 0.8; stroke-linejoin: miter; stroke-linecap: square"/>
   </g>
   <g id="patch_5">
    <path d="M 103.186439 307.584 
L 369.133561 307.584 
" style="fill: none; stroke: #000000; stroke-width: 0.8; stroke-linejoin: miter; stroke-linecap: square"/>
   </g>
   <g id="patch_6">
    <path d="M 103.186439 41.472 
L 369.133561 41.472 
" style="fill: none; stroke: #000000; stroke-width: 0.8; stroke-linejoin: miter; stroke-linecap: square"/>
   </g>
   <g id="text_15">
    <!-- AUC = 0.77 -->
    <g transform="translate(115.125056 77.76)scale(0.1 -0.1)">
     <defs>
      <path id="DejaVuSans-41" d="M 2188 4044 
L 1331 1722 
L 3047 1722 
L 2188 4044 
z
M 1831 4666 
L 2547 4666 
L 4325 0 
L 3669 0 
L 3244 1197 
L 1141 1197 
L 716 0 
L 50 0 
L 1831 4666 
z
" transform="scale(0.015625)"/>
      <path id="DejaVuSans-55" d="M 556 4666 
L 1191 4666 
L 1191 1831 
Q 1191 1081 1462 751 
Q 1734 422 2344 422 
Q 2950 422 3222 751 
Q 3494 1081 3494 1831 
L 3494 4666 
L 4128 4666 
L 4128 1753 
Q 4128 841 3676 375 
Q 3225 -91 2344 -91 
Q 1459 -91 1007 375 
Q 556 841 556 1753 
L 556 4666 
z
" transform="scale(0.015625)"/>
      <path id="DejaVuSans-43" d="M 4122 4306 
L 4122 3641 
Q 3803 3938 3442 4084 
Q 3081 4231 2675 4231 
Q 1875 4231 1450 3742 
Q 1025 3253 1025 2328 
Q 1025 1406 1450 917 
Q 1875 428 2675 428 
Q 3081 428 3442 575 
Q 3803 722 4122 1019 
L 4122 359 
Q 3791 134 3420 21 
Q 3050 -91 2638 -91 
Q 1578 -91 968 557 
Q 359 1206 359 2328 
Q 359 3453 968 4101 
Q 1578 4750 2638 4750 
Q 3056 4750 3426 4639 
Q 3797 4528 4122 4306 
z
" transform="scale(0.015625)"/>
      <path id="DejaVuSans-20" transform="scale(0.015625)"/>
      <path id="DejaVuSans-3d" d="M 678 2906 
L 4684 2906 
L 4684 2381 
L 678 2381 
L 678 2906 
z
M 678 1631 
L 4684 1631 
L 4684 1100 
L 678 1100 
L 678 1631 
z
" transform="scale(0.015625)"/>
      <path id="DejaVuSans-37" d="M 525 4666 
L 3525 4666 
L 3525 4397 
L 1831 0 
L 1172 0 
L 2766 4134 
L 525 4134 
L 525 4666 
z
" transform="scale(0.015625)"/>
     </defs>
     <use xlink:href="#DejaVuSans-41"/>
     <use xlink:href="#DejaVuSans-55" x="68.408203"/>
     <use xlink:href="#DejaVuSans-43" x="141.601562"/>
     <use xlink:href="#DejaVuSans-20" x="211.425781"/>
     <use xlink:href="#DejaVuSans-3d" x="243.212891"/>
     <use xlink:href="#DejaVuSans-20" x="327.001953"/>
     <use xlink:href="#DejaVuSans-30" x="358.789062"/>
     <use xlink:href="#DejaVuSans-2e" x="422.412109"/>
     <use xlink:href="#DejaVuSans-37" x="454.199219"/>
     <use xlink:href="#DejaVuSans-37" x="517.822266"/>
    </g>
   </g>
   <g id="text_16">
    <!-- Cut-off Point -->
    <g transform="translate(165.14284 167.146003)scale(0.1 -0.1)">
     <defs>
      <path id="DejaVuSans-75" d="M 544 1381 
L 544 3500 
L 1119 3500 
L 1119 1403 
Q 1119 906 1312 657 
Q 1506 409 1894 409 
Q 2359 409 2629 706 
Q 2900 1003 2900 1516 
L 2900 3500 
L 3475 3500 
L 3475 0 
L 2900 0 
L 2900 538 
Q 2691 219 2414 64 
Q 2138 -91 1772 -91 
Q 1169 -91 856 284 
Q 544 659 544 1381 
z
M 1991 3584 
L 1991 3584 
z
" transform="scale(0.015625)"/>
      <path id="DejaVuSans-74" d="M 1172 4494 
L 1172 3500 
L 2356 3500 
L 2356 3053 
L 1172 3053 
L 1172 1153 
Q 1172 725 1289 603 
Q 1406 481 1766 481 
L 2356 481 
L 2356 0 
L 1766 0 
Q 1100 0 847 248 
Q 594 497 594 1153 
L 594 3053 
L 172 3053 
L 172 3500 
L 594 3500 
L 594 4494 
L 1172 4494 
z
" transform="scale(0.015625)"/>
      <path id="DejaVuSans-2d" d="M 313 2009 
L 1997 2009 
L 1997 1497 
L 313 1497 
L 313 2009 
z
" transform="scale(0.015625)"/>
      <path id="DejaVuSans-6f" d="M 1959 3097 
Q 1497 3097 1228 2736 
Q 959 2375 959 1747 
Q 959 1119 1226 758 
Q 1494 397 1959 397 
Q 2419 397 2687 759 
Q 2956 1122 2956 1747 
Q 2956 2369 2687 2733 
Q 2419 3097 1959 3097 
z
M 1959 3584 
Q 2709 3584 3137 3096 
Q 3566 2609 3566 1747 
Q 3566 888 3137 398 
Q 2709 -91 1959 -91 
Q 1206 -91 779 398 
Q 353 888 353 1747 
Q 353 2609 779 3096 
Q 1206 3584 1959 3584 
z
" transform="scale(0.015625)"/>
      <path id="DejaVuSans-66" d="M 2375 4863 
L 2375 4384 
L 1825 4384 
Q 1516 4384 1395 4259 
Q 1275 4134 1275 3809 
L 1275 3500 
L 2222 3500 
L 2222 3053 
L 1275 3053 
L 1275 0 
L 697 0 
L 697 3053 
L 147 3053 
L 147 3500 
L 697 3500 
L 697 3744 
Q 697 4328 969 4595 
Q 1241 4863 1831 4863 
L 2375 4863 
z
" transform="scale(0.015625)"/>
      <path id="DejaVuSans-69" d="M 603 3500 
L 1178 3500 
L 1178 0 
L 603 0 
L 603 3500 
z
M 603 4863 
L 1178 4863 
L 1178 4134 
L 603 4134 
L 603 4863 
z
" transform="scale(0.015625)"/>
      <path id="DejaVuSans-6e" d="M 3513 2113 
L 3513 0 
L 2938 0 
L 2938 2094 
Q 2938 2591 2744 2837 
Q 2550 3084 2163 3084 
Q 1697 3084 1428 2787 
Q 1159 2491 1159 1978 
L 1159 0 
L 581 0 
L 581 3500 
L 1159 3500 
L 1159 2956 
Q 1366 3272 1645 3428 
Q 1925 3584 2291 3584 
Q 2894 3584 3203 3211 
Q 3513 2838 3513 2113 
z
" transform="scale(0.015625)"/>
     </defs>
     <use xlink:href="#DejaVuSans-43"/>
     <use xlink:href="#DejaVuSans-75" x="69.824219"/>
     <use xlink:href="#DejaVuSans-74" x="133.203125"/>
     <use xlink:href="#DejaVuSans-2d" x="172.412109"/>
     <use xlink:href="#DejaVuSans-6f" x="210.371094"/>
     <use xlink:href="#DejaVuSans-66" x="271.552734"/>
     <use xlink:href="#DejaVuSans-66" x="306.757812"/>
     <use xlink:href="#DejaVuSans-20" x="341.962891"/>
     <use xlink:href="#DejaVuSans-50" x="373.75"/>
     <use xlink:href="#DejaVuSans-6f" x="430.427734"/>
     <use xlink:href="#DejaVuSans-69" x="491.609375"/>
     <use xlink:href="#DejaVuSans-6e" x="519.392578"/>
     <use xlink:href="#DejaVuSans-74" x="582.771484"/>
    </g>
    <!-- FPR=0.157 -->
    <g transform="translate(165.14284 178.343816)scale(0.1 -0.1)">
     <defs>
      <path id="DejaVuSans-35" d="M 691 4666 
L 3169 4666 
L 3169 4134 
L 1269 4134 
L 1269 2991 
Q 1406 3038 1543 3061 
Q 1681 3084 1819 3084 
Q 2600 3084 3056 2656 
Q 3513 2228 3513 1497 
Q 3513 744 3044 326 
Q 2575 -91 1722 -91 
Q 1428 -91 1123 -41 
Q 819 9 494 109 
L 494 744 
Q 775 591 1075 516 
Q 1375 441 1709 441 
Q 2250 441 2565 725 
Q 2881 1009 2881 1497 
Q 2881 1984 2565 2268 
Q 2250 2553 1709 2553 
Q 1456 2553 1204 2497 
Q 953 2441 691 2322 
L 691 4666 
z
" transform="scale(0.015625)"/>
     </defs>
     <use xlink:href="#DejaVuSans-46"/>
     <use xlink:href="#DejaVuSans-50" x="57.519531"/>
     <use xlink:href="#DejaVuSans-52" x="117.822266"/>
     <use xlink:href="#DejaVuSans-3d" x="187.304688"/>
     <use xlink:href="#DejaVuSans-30" x="271.09375"/>
     <use xlink:href="#DejaVuSans-2e" x="334.716797"/>
     <use xlink:href="#DejaVuSans-31" x="366.503906"/>
     <use xlink:href="#DejaVuSans-35" x="430.126953"/>
     <use xlink:href="#DejaVuSans-37" x="493.75"/>
    </g>
    <!-- TPR=0.588 -->
    <g transform="translate(165.14284 189.541628)scale(0.1 -0.1)">
     <use xlink:href="#DejaVuSans-54"/>
     <use xlink:href="#DejaVuSans-50" x="61.083984"/>
     <use xlink:href="#DejaVuSans-52" x="121.386719"/>
     <use xlink:href="#DejaVuSans-3d" x="190.869141"/>
     <use xlink:href="#DejaVuSans-30" x="274.658203"/>
     <use xlink:href="#DejaVuSans-2e" x="338.28125"/>
     <use xlink:href="#DejaVuSans-35" x="370.068359"/>
     <use xlink:href="#DejaVuSans-38" x="433.691406"/>
     <use xlink:href="#DejaVuSans-38" x="497.314453"/>
    </g>
   </g>
   <g id="text_17">
    <!-- ROC_Ratio_128C_127C -->
    <g transform="translate(167.3925 35.472)scale(0.12 -0.12)">
     <defs>
      <path id="DejaVuSans-4f" d="M 2522 4238 
Q 1834 4238 1429 3725 
Q 1025 3213 1025 2328 
Q 1025 1447 1429 934 
Q 1834 422 2522 422 
Q 3209 422 3611 934 
Q 4013 1447 4013 2328 
Q 4013 3213 3611 3725 
Q 3209 4238 2522 4238 
z
M 2522 4750 
Q 3503 4750 4090 4092 
Q 4678 3434 4678 2328 
Q 4678 1225 4090 567 
Q 3503 -91 2522 -91 
Q 1538 -91 948 565 
Q 359 1222 359 2328 
Q 359 3434 948 4092 
Q 1538 4750 2522 4750 
z
" transform="scale(0.015625)"/>
      <path id="DejaVuSans-5f" d="M 3263 -1063 
L 3263 -1509 
L -63 -1509 
L -63 -1063 
L 3263 -1063 
z
" transform="scale(0.015625)"/>
      <path id="DejaVuSans-61" d="M 2194 1759 
Q 1497 1759 1228 1600 
Q 959 1441 959 1056 
Q 959 750 1161 570 
Q 1363 391 1709 391 
Q 2188 391 2477 730 
Q 2766 1069 2766 1631 
L 2766 1759 
L 2194 1759 
z
M 3341 1997 
L 3341 0 
L 2766 0 
L 2766 531 
Q 2569 213 2275 61 
Q 1981 -91 1556 -91 
Q 1019 -91 701 211 
Q 384 513 384 1019 
Q 384 1609 779 1909 
Q 1175 2209 1959 2209 
L 2766 2209 
L 2766 2266 
Q 2766 2663 2505 2880 
Q 2244 3097 1772 3097 
Q 1472 3097 1187 3025 
Q 903 2953 641 2809 
L 641 3341 
Q 956 3463 1253 3523 
Q 1550 3584 1831 3584 
Q 2591 3584 2966 3190 
Q 3341 2797 3341 1997 
z
" transform="scale(0.015625)"/>
     </defs>
     <use xlink:href="#DejaVuSans-52"/>
     <use xlink:href="#DejaVuSans-4f" x="69.482422"/>
     <use xlink:href="#DejaVuSans-43" x="148.193359"/>
     <use xlink:href="#DejaVuSans-5f" x="218.017578"/>
     <use xlink:href="#DejaVuSans-52" x="268.017578"/>
     <use xlink:href="#DejaVuSans-61" x="335.25"/>
     <use xlink:href="#DejaVuSans-74" x="396.529297"/>
     <use xlink:href="#DejaVuSans-69" x="435.738281"/>
     <use xlink:href="#DejaVuSans-6f" x="463.521484"/>
     <use xlink:href="#DejaVuSans-5f" x="524.703125"/>
     <use xlink:href="#DejaVuSans-31" x="574.703125"/>
     <use xlink:href="#DejaVuSans-32" x="638.326172"/>
     <use xlink:href="#DejaVuSans-38" x="701.949219"/>
     <use xlink:href="#DejaVuSans-43" x="765.572266"/>
     <use xlink:href="#DejaVuSans-5f" x="835.396484"/>
     <use xlink:href="#DejaVuSans-31" x="885.396484"/>
     <use xlink:href="#DejaVuSans-32" x="949.019531"/>
     <use xlink:href="#DejaVuSans-37" x="1012.642578"/>
     <use xlink:href="#DejaVuSans-43" x="1076.265625"/>
    </g>
   </g>
  </g>
 </g>
 <defs>
  <clipPath id="p672fda33b8">
   <rect x="103.186439" y="41.472" width="265.947123" height="266.112"/>
  </clipPath>
 </defs>
</svg>
