<?xml version="1.0" encoding="utf-8" standalone="no"?>
<!DOCTYPE svg PUBLIC "-//W3C//DTD SVG 1.1//EN"
  "http://www.w3.org/Graphics/SVG/1.1/DTD/svg11.dtd">
<svg xmlns:xlink="http://www.w3.org/1999/xlink" width="460.8pt" height="345.6pt" viewBox="0 0 460.8 345.6" xmlns="http://www.w3.org/2000/svg" version="1.1">
 <metadata>
  <rdf:RDF xmlns:dc="http://purl.org/dc/elements/1.1/" xmlns:cc="http://creativecommons.org/ns#" xmlns:rdf="http://www.w3.org/1999/02/22-rdf-syntax-ns#">
   <cc:Work>
    <dc:type rdf:resource="http://purl.org/dc/dcmitype/StillImage"/>
    <dc:date>2022-11-16T18:28:46.177898</dc:date>
    <dc:format>image/svg+xml</dc:format>
    <dc:creator>
     <cc:Agent>
      <dc:title>Matplotlib v3.5.1, https://matplotlib.org/</dc:title>
     </cc:Agent>
    </dc:creator>
   </cc:Work>
  </rdf:RDF>
 </metadata>
 <defs>
  <style type="text/css">*{stroke-linejoin: round; stroke-linecap: butt}</style>
 </defs>
 <g id="figure_1">
  <g id="patch_1">
   <path d="M 0 345.6 
L 460.8 345.6 
L 460.8 0 
L 0 0 
z
" style="fill: #ffffff"/>
  </g>
  <g id="axes_1">
   <g id="patch_2">
    <path d="M 102.880752 307.584 
L 369.439248 307.584 
L 369.439248 41.472 
L 102.880752 41.472 
z
" style="fill: #ffffff"/>
   </g>
   <g id="matplotlib.axis_1">
    <g id="xtick_1">
     <g id="line2d_1">
      <defs>
       <path id="mba8bb5bf2e" d="M 0 0 
L 0 3.5 
" style="stroke: #000000; stroke-width: 0.8"/>
      </defs>
      <g>
       <use xlink:href="#mba8bb5bf2e" x="114.997047" y="307.584" style="stroke: #000000; stroke-width: 0.8"/>
      </g>
     </g>
     <g id="text_1">
      <!-- 0.0 -->
      <g transform="translate(107.045484 322.182437)scale(0.1 -0.1)">
       <defs>
        <path id="DejaVuSans-30" d="M 2034 4250 
Q 1547 4250 1301 3770 
Q 1056 3291 1056 2328 
Q 1056 1369 1301 889 
Q 1547 409 2034 409 
Q 2525 409 2770 889 
Q 3016 1369 3016 2328 
Q 3016 3291 2770 3770 
Q 2525 4250 2034 4250 
z
M 2034 4750 
Q 2819 4750 3233 4129 
Q 3647 3509 3647 2328 
Q 3647 1150 3233 529 
Q 2819 -91 2034 -91 
Q 1250 -91 836 529 
Q 422 1150 422 2328 
Q 422 3509 836 4129 
Q 1250 4750 2034 4750 
z
" transform="scale(0.015625)"/>
        <path id="DejaVuSans-2e" d="M 684 794 
L 1344 794 
L 1344 0 
L 684 0 
L 684 794 
z
" transform="scale(0.015625)"/>
       </defs>
       <use xlink:href="#DejaVuSans-30"/>
       <use xlink:href="#DejaVuSans-2e" x="63.623047"/>
       <use xlink:href="#DejaVuSans-30" x="95.410156"/>
      </g>
     </g>
    </g>
    <g id="xtick_2">
     <g id="line2d_2">
      <g>
       <use xlink:href="#mba8bb5bf2e" x="163.462228" y="307.584" style="stroke: #000000; stroke-width: 0.8"/>
      </g>
     </g>
     <g id="text_2">
      <!-- 0.2 -->
      <g transform="translate(155.510666 322.182437)scale(0.1 -0.1)">
       <defs>
        <path id="DejaVuSans-32" d="M 1228 531 
L 3431 531 
L 3431 0 
L 469 0 
L 469 531 
Q 828 903 1448 1529 
Q 2069 2156 2228 2338 
Q 2531 2678 2651 2914 
Q 2772 3150 2772 3378 
Q 2772 3750 2511 3984 
Q 2250 4219 1831 4219 
Q 1534 4219 1204 4116 
Q 875 4013 500 3803 
L 500 4441 
Q 881 4594 1212 4672 
Q 1544 4750 1819 4750 
Q 2544 4750 2975 4387 
Q 3406 4025 3406 3419 
Q 3406 3131 3298 2873 
Q 3191 2616 2906 2266 
Q 2828 2175 2409 1742 
Q 1991 1309 1228 531 
z
" transform="scale(0.015625)"/>
       </defs>
       <use xlink:href="#DejaVuSans-30"/>
       <use xlink:href="#DejaVuSans-2e" x="63.623047"/>
       <use xlink:href="#DejaVuSans-32" x="95.410156"/>
      </g>
     </g>
    </g>
    <g id="xtick_3">
     <g id="line2d_3">
      <g>
       <use xlink:href="#mba8bb5bf2e" x="211.927409" y="307.584" style="stroke: #000000; stroke-width: 0.8"/>
      </g>
     </g>
     <g id="text_3">
      <!-- 0.4 -->
      <g transform="translate(203.975847 322.182437)scale(0.1 -0.1)">
       <defs>
        <path id="DejaVuSans-34" d="M 2419 4116 
L 825 1625 
L 2419 1625 
L 2419 4116 
z
M 2253 4666 
L 3047 4666 
L 3047 1625 
L 3713 1625 
L 3713 1100 
L 3047 1100 
L 3047 0 
L 2419 0 
L 2419 1100 
L 313 1100 
L 313 1709 
L 2253 4666 
z
" transform="scale(0.015625)"/>
       </defs>
       <use xlink:href="#DejaVuSans-30"/>
       <use xlink:href="#DejaVuSans-2e" x="63.623047"/>
       <use xlink:href="#DejaVuSans-34" x="95.410156"/>
      </g>
     </g>
    </g>
    <g id="xtick_4">
     <g id="line2d_4">
      <g>
       <use xlink:href="#mba8bb5bf2e" x="260.392591" y="307.584" style="stroke: #000000; stroke-width: 0.8"/>
      </g>
     </g>
     <g id="text_4">
      <!-- 0.6 -->
      <g transform="translate(252.441028 322.182437)scale(0.1 -0.1)">
       <defs>
        <path id="DejaVuSans-36" d="M 2113 2584 
Q 1688 2584 1439 2293 
Q 1191 2003 1191 1497 
Q 1191 994 1439 701 
Q 1688 409 2113 409 
Q 2538 409 2786 701 
Q 3034 994 3034 1497 
Q 3034 2003 2786 2293 
Q 2538 2584 2113 2584 
z
M 3366 4563 
L 3366 3988 
Q 3128 4100 2886 4159 
Q 2644 4219 2406 4219 
Q 1781 4219 1451 3797 
Q 1122 3375 1075 2522 
Q 1259 2794 1537 2939 
Q 1816 3084 2150 3084 
Q 2853 3084 3261 2657 
Q 3669 2231 3669 1497 
Q 3669 778 3244 343 
Q 2819 -91 2113 -91 
Q 1303 -91 875 529 
Q 447 1150 447 2328 
Q 447 3434 972 4092 
Q 1497 4750 2381 4750 
Q 2619 4750 2861 4703 
Q 3103 4656 3366 4563 
z
" transform="scale(0.015625)"/>
       </defs>
       <use xlink:href="#DejaVuSans-30"/>
       <use xlink:href="#DejaVuSans-2e" x="63.623047"/>
       <use xlink:href="#DejaVuSans-36" x="95.410156"/>
      </g>
     </g>
    </g>
    <g id="xtick_5">
     <g id="line2d_5">
      <g>
       <use xlink:href="#mba8bb5bf2e" x="308.857772" y="307.584" style="stroke: #000000; stroke-width: 0.8"/>
      </g>
     </g>
     <g id="text_5">
      <!-- 0.8 -->
      <g transform="translate(300.906209 322.182437)scale(0.1 -0.1)">
       <defs>
        <path id="DejaVuSans-38" d="M 2034 2216 
Q 1584 2216 1326 1975 
Q 1069 1734 1069 1313 
Q 1069 891 1326 650 
Q 1584 409 2034 409 
Q 2484 409 2743 651 
Q 3003 894 3003 1313 
Q 3003 1734 2745 1975 
Q 2488 2216 2034 2216 
z
M 1403 2484 
Q 997 2584 770 2862 
Q 544 3141 544 3541 
Q 544 4100 942 4425 
Q 1341 4750 2034 4750 
Q 2731 4750 3128 4425 
Q 3525 4100 3525 3541 
Q 3525 3141 3298 2862 
Q 3072 2584 2669 2484 
Q 3125 2378 3379 2068 
Q 3634 1759 3634 1313 
Q 3634 634 3220 271 
Q 2806 -91 2034 -91 
Q 1263 -91 848 271 
Q 434 634 434 1313 
Q 434 1759 690 2068 
Q 947 2378 1403 2484 
z
M 1172 3481 
Q 1172 3119 1398 2916 
Q 1625 2713 2034 2713 
Q 2441 2713 2670 2916 
Q 2900 3119 2900 3481 
Q 2900 3844 2670 4047 
Q 2441 4250 2034 4250 
Q 1625 4250 1398 4047 
Q 1172 3844 1172 3481 
z
" transform="scale(0.015625)"/>
       </defs>
       <use xlink:href="#DejaVuSans-30"/>
       <use xlink:href="#DejaVuSans-2e" x="63.623047"/>
       <use xlink:href="#DejaVuSans-38" x="95.410156"/>
      </g>
     </g>
    </g>
    <g id="xtick_6">
     <g id="line2d_6">
      <g>
       <use xlink:href="#mba8bb5bf2e" x="357.322953" y="307.584" style="stroke: #000000; stroke-width: 0.8"/>
      </g>
     </g>
     <g id="text_6">
      <!-- 1.0 -->
      <g transform="translate(349.371391 322.182437)scale(0.1 -0.1)">
       <defs>
        <path id="DejaVuSans-31" d="M 794 531 
L 1825 531 
L 1825 4091 
L 703 3866 
L 703 4441 
L 1819 4666 
L 2450 4666 
L 2450 531 
L 3481 531 
L 3481 0 
L 794 0 
L 794 531 
z
" transform="scale(0.015625)"/>
       </defs>
       <use xlink:href="#DejaVuSans-31"/>
       <use xlink:href="#DejaVuSans-2e" x="63.623047"/>
       <use xlink:href="#DejaVuSans-30" x="95.410156"/>
      </g>
     </g>
    </g>
    <g id="text_7">
     <!-- FPR -->
     <g transform="translate(226.795156 335.860562)scale(0.1 -0.1)">
      <defs>
       <path id="DejaVuSans-46" d="M 628 4666 
L 3309 4666 
L 3309 4134 
L 1259 4134 
L 1259 2759 
L 3109 2759 
L 3109 2228 
L 1259 2228 
L 1259 0 
L 628 0 
L 628 4666 
z
" transform="scale(0.015625)"/>
       <path id="DejaVuSans-50" d="M 1259 4147 
L 1259 2394 
L 2053 2394 
Q 2494 2394 2734 2622 
Q 2975 2850 2975 3272 
Q 2975 3691 2734 3919 
Q 2494 4147 2053 4147 
L 1259 4147 
z
M 628 4666 
L 2053 4666 
Q 2838 4666 3239 4311 
Q 3641 3956 3641 3272 
Q 3641 2581 3239 2228 
Q 2838 1875 2053 1875 
L 1259 1875 
L 1259 0 
L 628 0 
L 628 4666 
z
" transform="scale(0.015625)"/>
       <path id="DejaVuSans-52" d="M 2841 2188 
Q 3044 2119 3236 1894 
Q 3428 1669 3622 1275 
L 4263 0 
L 3584 0 
L 2988 1197 
Q 2756 1666 2539 1819 
Q 2322 1972 1947 1972 
L 1259 1972 
L 1259 0 
L 628 0 
L 628 4666 
L 2053 4666 
Q 2853 4666 3247 4331 
Q 3641 3997 3641 3322 
Q 3641 2881 3436 2590 
Q 3231 2300 2841 2188 
z
M 1259 4147 
L 1259 2491 
L 2053 2491 
Q 2509 2491 2742 2702 
Q 2975 2913 2975 3322 
Q 2975 3731 2742 3939 
Q 2509 4147 2053 4147 
L 1259 4147 
z
" transform="scale(0.015625)"/>
      </defs>
      <use xlink:href="#DejaVuSans-46"/>
      <use xlink:href="#DejaVuSans-50" x="57.519531"/>
      <use xlink:href="#DejaVuSans-52" x="117.822266"/>
     </g>
    </g>
   </g>
   <g id="matplotlib.axis_2">
    <g id="ytick_1">
     <g id="line2d_7">
      <defs>
       <path id="m23f2e9cbcb" d="M 0 0 
L -3.5 0 
" style="stroke: #000000; stroke-width: 0.8"/>
      </defs>
      <g>
       <use xlink:href="#m23f2e9cbcb" x="102.880752" y="295.893906" style="stroke: #000000; stroke-width: 0.8"/>
      </g>
     </g>
     <g id="text_8">
      <!-- 0.0 -->
      <g transform="translate(79.977627 299.693125)scale(0.1 -0.1)">
       <use xlink:href="#DejaVuSans-30"/>
       <use xlink:href="#DejaVuSans-2e" x="63.623047"/>
       <use xlink:href="#DejaVuSans-30" x="95.410156"/>
      </g>
     </g>
    </g>
    <g id="ytick_2">
     <g id="line2d_8">
      <g>
       <use xlink:href="#m23f2e9cbcb" x="102.880752" y="247.428725" style="stroke: #000000; stroke-width: 0.8"/>
      </g>
     </g>
     <g id="text_9">
      <!-- 0.2 -->
      <g transform="translate(79.977627 251.227944)scale(0.1 -0.1)">
       <use xlink:href="#DejaVuSans-30"/>
       <use xlink:href="#DejaVuSans-2e" x="63.623047"/>
       <use xlink:href="#DejaVuSans-32" x="95.410156"/>
      </g>
     </g>
    </g>
    <g id="ytick_3">
     <g id="line2d_9">
      <g>
       <use xlink:href="#m23f2e9cbcb" x="102.880752" y="198.963544" style="stroke: #000000; stroke-width: 0.8"/>
      </g>
     </g>
     <g id="text_10">
      <!-- 0.4 -->
      <g transform="translate(79.977627 202.762762)scale(0.1 -0.1)">
       <use xlink:href="#DejaVuSans-30"/>
       <use xlink:href="#DejaVuSans-2e" x="63.623047"/>
       <use xlink:href="#DejaVuSans-34" x="95.410156"/>
      </g>
     </g>
    </g>
    <g id="ytick_4">
     <g id="line2d_10">
      <g>
       <use xlink:href="#m23f2e9cbcb" x="102.880752" y="150.498362" style="stroke: #000000; stroke-width: 0.8"/>
      </g>
     </g>
     <g id="text_11">
      <!-- 0.6 -->
      <g transform="translate(79.977627 154.297581)scale(0.1 -0.1)">
       <use xlink:href="#DejaVuSans-30"/>
       <use xlink:href="#DejaVuSans-2e" x="63.623047"/>
       <use xlink:href="#DejaVuSans-36" x="95.410156"/>
      </g>
     </g>
    </g>
    <g id="ytick_5">
     <g id="line2d_11">
      <g>
       <use xlink:href="#m23f2e9cbcb" x="102.880752" y="102.033181" style="stroke: #000000; stroke-width: 0.8"/>
      </g>
     </g>
     <g id="text_12">
      <!-- 0.8 -->
      <g transform="translate(79.977627 105.8324)scale(0.1 -0.1)">
       <use xlink:href="#DejaVuSans-30"/>
       <use xlink:href="#DejaVuSans-2e" x="63.623047"/>
       <use xlink:href="#DejaVuSans-38" x="95.410156"/>
      </g>
     </g>
    </g>
    <g id="ytick_6">
     <g id="line2d_12">
      <g>
       <use xlink:href="#m23f2e9cbcb" x="102.880752" y="53.568" style="stroke: #000000; stroke-width: 0.8"/>
      </g>
     </g>
     <g id="text_13">
      <!-- 1.0 -->
      <g transform="translate(79.977627 57.367219)scale(0.1 -0.1)">
       <use xlink:href="#DejaVuSans-31"/>
       <use xlink:href="#DejaVuSans-2e" x="63.623047"/>
       <use xlink:href="#DejaVuSans-30" x="95.410156"/>
      </g>
     </g>
    </g>
    <g id="text_14">
     <!-- TPR -->
     <g transform="translate(73.897939 184.070969)rotate(-90)scale(0.1 -0.1)">
      <defs>
       <path id="DejaVuSans-54" d="M -19 4666 
L 3928 4666 
L 3928 4134 
L 2272 4134 
L 2272 0 
L 1638 0 
L 1638 4134 
L -19 4134 
L -19 4666 
z
" transform="scale(0.015625)"/>
      </defs>
      <use xlink:href="#DejaVuSans-54"/>
      <use xlink:href="#DejaVuSans-50" x="61.083984"/>
      <use xlink:href="#DejaVuSans-52" x="121.386719"/>
     </g>
    </g>
   </g>
   <g id="line2d_13">
    <path d="M 114.997047 295.488 
L 115.297327 295.488 
L 115.297327 294.270282 
L 115.597607 294.270282 
L 115.597607 294.270282 
L 115.597607 292.646658 
L 115.747747 292.646658 
L 115.747747 292.646658 
L 115.747747 288.993503 
L 115.897887 288.993503 
L 115.897887 288.993503 
L 115.897887 288.587597 
L 115.897887 288.587597 
L 116.048027 288.587597 
L 116.048027 285.340349 
L 116.198167 285.340349 
L 116.198167 284.122631 
L 116.198167 284.122631 
L 116.498447 284.122631 
L 116.498447 284.122631 
L 116.498447 273.163168 
L 116.498447 273.163168 
L 116.648587 273.163168 
L 116.648587 268.698201 
L 116.798727 268.698201 
L 116.798727 267.886389 
L 116.798727 267.886389 
L 116.948867 267.886389 
L 116.948867 267.886389 
L 116.948867 266.668671 
L 117.099007 266.668671 
L 117.099007 266.668671 
L 117.099007 262.609611 
L 117.249146 262.609611 
L 117.249146 259.768268 
L 117.399286 259.768268 
L 117.399286 259.768268 
L 117.399286 254.085584 
L 117.399286 254.085584 
L 117.549426 254.085584 
L 117.549426 252.867866 
L 117.699566 252.867866 
L 117.699566 252.867866 
L 117.699566 250.838336 
L 117.849706 250.838336 
L 117.849706 249.620617 
L 117.849706 249.620617 
L 117.999846 249.620617 
L 117.999846 249.620617 
L 117.999846 249.214711 
L 118.149986 249.214711 
L 118.149986 243.937933 
L 118.149986 243.937933 
L 118.300126 243.937933 
L 118.300126 243.126121 
L 118.300126 243.126121 
L 118.600406 243.126121 
L 118.600406 243.126121 
L 118.600406 240.690685 
L 118.600406 240.690685 
L 118.750546 240.690685 
L 118.750546 240.690685 
L 118.750546 239.878872 
L 118.750546 239.878872 
L 118.900686 239.878872 
L 118.900686 239.878872 
L 118.900686 239.472966 
L 119.050826 239.472966 
L 119.050826 239.472966 
L 119.050826 236.631624 
L 119.050826 236.631624 
L 119.200966 236.631624 
L 119.200966 233.790282 
L 119.351106 233.790282 
L 119.351106 233.384376 
L 119.501246 233.384376 
L 119.501246 233.384376 
L 119.501246 232.166658 
L 119.501246 232.166658 
L 119.801526 232.166658 
L 119.801526 232.166658 
L 119.801526 231.760752 
L 120.251946 231.760752 
L 120.251946 230.543034 
L 120.402086 230.543034 
L 120.402086 230.543034 
L 120.402086 230.137128 
L 120.702366 230.137128 
L 120.702366 229.731221 
L 121.002646 229.731221 
L 121.002646 226.889879 
L 121.152786 226.889879 
L 121.152786 226.078067 
L 121.302926 226.078067 
L 121.302926 226.078067 
L 121.302926 225.266255 
L 121.302926 225.266255 
L 121.453066 225.266255 
L 121.453066 224.454443 
L 121.453066 224.454443 
L 121.603206 224.454443 
L 121.603206 224.048537 
L 121.753345 224.048537 
L 121.753345 223.642631 
L 121.903485 223.642631 
L 121.903485 222.424913 
L 122.053625 222.424913 
L 122.053625 221.613101 
L 122.053625 221.613101 
L 122.203765 221.613101 
L 122.203765 220.801289 
L 122.504045 220.801289 
L 122.504045 219.177664 
L 122.504045 219.177664 
L 122.804325 219.177664 
L 122.804325 218.365852 
L 123.104605 218.365852 
L 123.104605 218.365852 
L 123.104605 216.742228 
L 123.254745 216.742228 
L 123.254745 216.742228 
L 123.254745 215.52451 
L 123.254745 215.52451 
L 123.705165 215.52451 
L 123.705165 215.52451 
L 123.705165 213.900886 
L 123.705165 213.900886 
L 124.005445 213.900886 
L 124.005445 213.49498 
L 124.155585 213.49498 
L 124.155585 213.49498 
L 124.155585 211.46545 
L 124.155585 211.46545 
L 124.305725 211.46545 
L 124.305725 211.46545 
L 124.305725 211.059544 
L 124.606005 211.059544 
L 124.606005 209.435919 
L 124.906285 209.435919 
L 124.906285 208.624107 
L 125.056425 208.624107 
L 125.056425 208.218201 
L 125.056425 208.218201 
L 125.206565 208.218201 
L 125.206565 208.218201 
L 125.206565 207.000483 
L 125.506845 207.000483 
L 125.506845 205.782765 
L 125.506845 205.782765 
L 125.656985 205.782765 
L 125.656985 202.941423 
L 125.807125 202.941423 
L 125.807125 202.129611 
L 125.807125 202.129611 
L 125.957265 202.129611 
L 125.957265 202.129611 
L 125.957265 200.911893 
L 126.107405 200.911893 
L 126.107405 200.911893 
L 126.107405 200.100081 
L 126.257544 200.100081 
L 126.257544 200.100081 
L 126.257544 199.694174 
L 126.257544 199.694174 
L 126.407684 199.694174 
L 126.407684 199.288268 
L 126.707964 199.288268 
L 126.707964 199.288268 
L 126.707964 198.476456 
L 126.707964 198.476456 
L 127.008244 198.476456 
L 127.008244 198.07055 
L 127.158384 198.07055 
L 127.158384 198.07055 
L 127.158384 196.852832 
L 127.308524 196.852832 
L 127.308524 196.852832 
L 127.308524 196.446926 
L 127.458664 196.446926 
L 127.458664 196.04102 
L 127.608804 196.04102 
L 127.608804 195.229208 
L 127.758944 195.229208 
L 127.758944 194.417396 
L 127.909084 194.417396 
L 127.909084 194.01149 
L 128.059224 194.01149 
L 128.059224 194.01149 
L 128.059224 193.605584 
L 128.359504 193.605584 
L 128.359504 191.170148 
L 128.359504 191.170148 
L 128.809924 191.170148 
L 128.809924 190.358336 
L 128.809924 190.358336 
L 129.410484 190.358336 
L 129.410484 189.546523 
L 129.710764 189.546523 
L 129.710764 187.516993 
L 130.011044 187.516993 
L 130.011044 187.516993 
L 130.011044 186.705181 
L 130.011044 186.705181 
L 130.311324 186.705181 
L 130.311324 185.893369 
L 130.911883 185.893369 
L 130.911883 185.893369 
L 130.911883 185.487463 
L 130.911883 185.487463 
L 131.062023 185.487463 
L 131.062023 185.081557 
L 131.212163 185.081557 
L 131.212163 184.675651 
L 131.662583 184.675651 
L 131.662583 184.269745 
L 131.812723 184.269745 
L 131.812723 184.269745 
L 131.812723 183.863839 
L 131.962863 183.863839 
L 131.962863 183.863839 
L 131.962863 182.646121 
L 133.013843 182.646121 
L 133.013843 181.834309 
L 133.013843 181.834309 
L 134.064823 181.834309 
L 134.064823 181.834309 
L 134.064823 181.428403 
L 134.365103 181.428403 
L 134.365103 180.210685 
L 134.515243 180.210685 
L 134.515243 180.210685 
L 134.515243 179.398872 
L 134.665383 179.398872 
L 134.665383 178.992966 
L 134.965663 178.992966 
L 134.965663 177.775248 
L 135.115802 177.775248 
L 135.115802 177.369342 
L 135.416082 177.369342 
L 135.416082 177.369342 
L 135.416082 176.963436 
L 135.566222 176.963436 
L 135.566222 176.963436 
L 135.566222 176.55753 
L 135.866502 176.55753 
L 135.866502 176.55753 
L 135.866502 176.151624 
L 137.518042 176.151624 
L 137.518042 176.151624 
L 137.518042 175.339812 
L 137.668182 175.339812 
L 137.668182 175.339812 
L 137.668182 174.933906 
L 138.118602 174.933906 
L 138.118602 174.528 
L 138.118602 174.528 
L 138.869302 174.528 
L 138.869302 173.310282 
L 139.620001 173.310282 
L 139.620001 172.49847 
L 139.770141 172.49847 
L 139.770141 172.092564 
L 139.920281 172.092564 
L 139.920281 171.686658 
L 140.220561 171.686658 
L 140.220561 170.46894 
L 140.370701 170.46894 
L 140.370701 169.657128 
L 140.370701 169.657128 
L 140.520841 169.657128 
L 140.520841 169.251221 
L 140.670981 169.251221 
L 140.670981 169.251221 
L 140.670981 168.845315 
L 140.821121 168.845315 
L 140.821121 168.439409 
L 140.971261 168.439409 
L 140.971261 168.033503 
L 140.971261 168.033503 
L 141.121401 168.033503 
L 141.121401 168.033503 
L 141.121401 167.627597 
L 141.121401 167.627597 
L 141.271541 167.627597 
L 141.271541 167.221691 
L 141.271541 167.221691 
L 141.571821 167.221691 
L 141.571821 166.815785 
L 141.872101 166.815785 
L 141.872101 166.409879 
L 142.022241 166.409879 
L 142.022241 165.192161 
L 142.172381 165.192161 
L 142.172381 164.786255 
L 142.322521 164.786255 
L 142.322521 164.380349 
L 142.622801 164.380349 
L 142.622801 163.974443 
L 143.373501 163.974443 
L 143.373501 163.568537 
L 143.823921 163.568537 
L 143.823921 163.568537 
L 143.823921 163.162631 
L 144.42448 163.162631 
L 144.42448 162.756725 
L 145.17518 162.756725 
L 145.17518 162.756725 
L 145.17518 161.539007 
L 145.17518 161.539007 
L 147.8777 161.539007 
L 147.8777 160.321289 
L 148.928679 160.321289 
L 148.928679 159.915383 
L 149.228959 159.915383 
L 149.228959 159.915383 
L 149.228959 159.509477 
L 149.228959 159.509477 
L 149.379099 159.509477 
L 149.379099 159.509477 
L 149.379099 158.697664 
L 150.279939 158.697664 
L 150.279939 158.291758 
L 150.430079 158.291758 
L 150.430079 157.479946 
L 150.730359 157.479946 
L 150.730359 157.479946 
L 150.730359 157.07404 
L 150.730359 157.07404 
L 150.880499 157.07404 
L 150.880499 157.07404 
L 150.880499 156.262228 
L 150.880499 156.262228 
L 151.030639 156.262228 
L 151.030639 155.856322 
L 151.931479 155.856322 
L 151.931479 155.450416 
L 152.081619 155.450416 
L 152.081619 155.450416 
L 152.081619 155.04451 
L 153.432878 155.04451 
L 153.432878 154.232698 
L 153.432878 154.232698 
L 153.583018 154.232698 
L 153.583018 154.232698 
L 153.583018 153.826792 
L 153.733158 153.826792 
L 153.733158 153.826792 
L 153.733158 153.01498 
L 153.733158 153.01498 
L 154.333718 153.01498 
L 154.333718 152.609074 
L 154.934278 152.609074 
L 154.934278 152.609074 
L 154.934278 152.203168 
L 156.285538 152.203168 
L 156.285538 151.391356 
L 156.285538 151.391356 
L 156.435678 151.391356 
L 156.435678 150.98545 
L 157.186378 150.98545 
L 157.186378 150.98545 
L 157.186378 150.579544 
L 157.786937 150.579544 
L 157.786937 150.579544 
L 157.786937 149.767732 
L 157.786937 149.767732 
L 158.087217 149.767732 
L 158.087217 149.767732 
L 158.087217 149.361826 
L 158.387497 149.361826 
L 158.387497 148.955919 
L 158.537637 148.955919 
L 158.537637 148.550013 
L 159.438477 148.550013 
L 159.438477 147.738201 
L 159.738757 147.738201 
L 159.738757 147.738201 
L 159.738757 147.332295 
L 160.339317 147.332295 
L 160.339317 147.332295 
L 160.339317 146.926389 
L 160.939877 146.926389 
L 160.939877 146.926389 
L 160.939877 146.114577 
L 160.939877 146.114577 
L 161.240157 146.114577 
L 161.240157 146.114577 
L 161.240157 145.708671 
L 161.390297 145.708671 
L 161.390297 145.302765 
L 161.990857 145.302765 
L 161.990857 145.302765 
L 161.990857 144.896859 
L 162.441276 144.896859 
L 162.441276 144.896859 
L 162.441276 144.490953 
L 162.441276 144.490953 
L 163.942676 144.490953 
L 163.942676 144.490953 
L 163.942676 144.085047 
L 164.242956 144.085047 
L 164.242956 144.085047 
L 164.242956 143.679141 
L 164.843516 143.679141 
L 164.843516 143.679141 
L 164.843516 142.867329 
L 164.843516 142.867329 
L 165.744356 142.867329 
L 165.744356 142.461423 
L 166.795335 142.461423 
L 166.795335 142.055517 
L 167.395895 142.055517 
L 167.395895 142.055517 
L 167.395895 141.649611 
L 167.546035 141.649611 
L 167.546035 141.243705 
L 167.546035 141.243705 
L 167.846315 141.243705 
L 167.846315 141.243705 
L 167.846315 140.431893 
L 167.996455 140.431893 
L 167.996455 140.431893 
L 167.996455 139.214174 
L 167.996455 139.214174 
L 168.446875 139.214174 
L 168.446875 138.808268 
L 168.446875 138.808268 
L 169.347715 138.808268 
L 169.347715 137.996456 
L 169.948275 137.996456 
L 169.948275 137.996456 
L 169.948275 137.184644 
L 169.948275 137.184644 
L 170.398695 137.184644 
L 170.398695 135.966926 
L 170.398695 135.966926 
L 170.548835 135.966926 
L 170.548835 135.966926 
L 170.548835 135.56102 
L 171.149394 135.56102 
L 171.149394 135.155114 
L 171.449674 135.155114 
L 171.449674 135.155114 
L 171.449674 134.749208 
L 172.200374 134.749208 
L 172.200374 134.749208 
L 172.200374 134.343302 
L 173.251354 134.343302 
L 173.251354 134.343302 
L 173.251354 133.937396 
L 175.653593 133.937396 
L 175.653593 132.719678 
L 175.803733 132.719678 
L 175.803733 132.719678 
L 175.803733 132.313772 
L 175.953873 132.313772 
L 175.953873 131.907866 
L 175.953873 131.907866 
L 176.404293 131.907866 
L 176.404293 131.50196 
L 176.704573 131.50196 
L 176.704573 131.096054 
L 178.506253 131.096054 
L 178.506253 130.690148 
L 178.806533 130.690148 
L 178.806533 130.284242 
L 178.806533 130.284242 
L 178.956673 130.284242 
L 178.956673 129.878336 
L 178.956673 129.878336 
L 179.707373 129.878336 
L 179.707373 129.47243 
L 180.458072 129.47243 
L 180.458072 129.066523 
L 180.608212 129.066523 
L 180.608212 129.066523 
L 180.608212 128.660617 
L 180.608212 128.660617 
L 181.358912 128.660617 
L 181.358912 128.660617 
L 181.358912 128.254711 
L 181.659192 128.254711 
L 181.659192 127.848805 
L 181.809332 127.848805 
L 181.809332 127.442899 
L 182.109612 127.442899 
L 182.109612 127.036993 
L 182.109612 127.036993 
L 182.710172 127.036993 
L 182.710172 126.631087 
L 183.761152 126.631087 
L 183.761152 126.225181 
L 183.911292 126.225181 
L 183.911292 125.413369 
L 184.211572 125.413369 
L 184.211572 125.413369 
L 184.211572 125.007463 
L 184.361712 125.007463 
L 184.361712 125.007463 
L 184.361712 123.789745 
L 184.812131 123.789745 
L 184.812131 123.383839 
L 184.812131 123.383839 
L 186.163391 123.383839 
L 186.163391 123.383839 
L 186.163391 122.572027 
L 187.965071 122.572027 
L 187.965071 122.572027 
L 187.965071 122.166121 
L 187.965071 122.166121 
L 188.115211 122.166121 
L 188.115211 122.166121 
L 188.115211 121.760215 
L 189.46647 121.760215 
L 189.46647 121.354309 
L 189.61661 121.354309 
L 189.61661 121.354309 
L 189.61661 120.542497 
L 189.76675 120.542497 
L 189.76675 120.136591 
L 190.06703 120.136591 
L 190.06703 119.730685 
L 190.06703 119.730685 
L 190.21717 119.730685 
L 190.21717 118.918872 
L 190.21717 118.918872 
L 190.51745 118.918872 
L 190.51745 118.10706 
L 191.41829 118.10706 
L 191.41829 118.10706 
L 191.41829 117.295248 
L 191.41829 117.295248 
L 192.61941 117.295248 
L 192.61941 117.295248 
L 192.61941 116.07753 
L 192.91969 116.07753 
L 192.91969 116.07753 
L 192.91969 115.671624 
L 193.06983 115.671624 
L 193.06983 115.265718 
L 194.120809 115.265718 
L 194.120809 115.265718 
L 194.120809 114.859812 
L 194.871509 114.859812 
L 194.871509 114.453906 
L 194.871509 114.453906 
L 195.622209 114.453906 
L 195.622209 114.453906 
L 195.622209 114.048 
L 196.072629 114.048 
L 196.072629 113.236188 
L 196.222769 113.236188 
L 196.222769 112.830282 
L 196.222769 112.830282 
L 196.823329 112.830282 
L 196.823329 112.424376 
L 197.273749 112.424376 
L 197.273749 112.424376 
L 197.273749 112.01847 
L 198.174588 112.01847 
L 198.174588 112.01847 
L 198.174588 111.612564 
L 198.625008 111.612564 
L 198.625008 111.206658 
L 199.075428 111.206658 
L 199.075428 111.206658 
L 199.075428 110.800752 
L 199.075428 110.800752 
L 199.525848 110.800752 
L 199.525848 110.800752 
L 199.525848 110.394846 
L 200.576828 110.394846 
L 200.576828 109.177128 
L 203.129207 109.177128 
L 203.129207 108.771221 
L 203.279347 108.771221 
L 203.279347 107.553503 
L 203.579627 107.553503 
L 203.579627 107.553503 
L 203.579627 107.147597 
L 204.330327 107.147597 
L 204.330327 107.147597 
L 204.330327 106.335785 
L 207.483266 106.335785 
L 207.483266 106.335785 
L 207.483266 105.929879 
L 207.483266 105.929879 
L 207.783546 105.929879 
L 207.783546 105.523973 
L 208.233966 105.523973 
L 208.233966 105.523973 
L 208.233966 105.118067 
L 208.233966 105.118067 
L 208.834526 105.118067 
L 208.834526 105.118067 
L 208.834526 104.712161 
L 210.936486 104.712161 
L 210.936486 104.712161 
L 210.936486 104.306255 
L 211.837325 104.306255 
L 211.837325 104.306255 
L 211.837325 103.900349 
L 211.837325 103.900349 
L 213.188585 103.900349 
L 213.188585 103.900349 
L 213.188585 103.494443 
L 213.939285 103.494443 
L 213.939285 102.682631 
L 214.239565 102.682631 
L 214.239565 102.682631 
L 214.239565 102.276725 
L 215.290545 102.276725 
L 215.290545 101.870819 
L 215.290545 101.870819 
L 215.590825 101.870819 
L 215.590825 101.870819 
L 215.590825 101.464913 
L 215.740965 101.464913 
L 215.740965 101.059007 
L 217.993064 101.059007 
L 217.993064 100.653101 
L 218.443484 100.653101 
L 218.443484 100.653101 
L 218.443484 100.247195 
L 218.443484 100.247195 
L 220.095024 100.247195 
L 220.095024 99.841289 
L 220.395304 99.841289 
L 220.395304 99.841289 
L 220.395304 99.435383 
L 221.746563 99.435383 
L 221.746563 99.029477 
L 222.046843 99.029477 
L 222.046843 98.62357 
L 222.046843 98.62357 
L 222.347123 98.62357 
L 222.347123 98.217664 
L 224.449083 98.217664 
L 224.449083 97.405852 
L 224.449083 97.405852 
L 227.451882 97.405852 
L 227.451882 96.999946 
L 228.803142 96.999946 
L 228.803142 96.999946 
L 228.803142 96.59404 
L 234.50846 96.59404 
L 234.50846 96.188134 
L 234.6586 96.188134 
L 234.6586 95.782228 
L 235.10902 95.782228 
L 235.10902 95.782228 
L 235.10902 95.376322 
L 235.25916 95.376322 
L 235.25916 95.376322 
L 235.25916 94.158604 
L 236.00986 94.158604 
L 236.00986 93.752698 
L 236.16 93.752698 
L 236.16 93.346792 
L 238.26196 93.346792 
L 238.26196 93.346792 
L 238.26196 92.940886 
L 239.913499 92.940886 
L 239.913499 92.940886 
L 239.913499 92.53498 
L 239.913499 92.53498 
L 240.363919 92.53498 
L 240.363919 92.129074 
L 240.664199 92.129074 
L 240.664199 92.129074 
L 240.664199 91.723168 
L 240.664199 91.723168 
L 243.366718 91.723168 
L 243.366718 91.317262 
L 243.366718 91.317262 
L 245.018258 91.317262 
L 245.018258 91.317262 
L 245.018258 90.911356 
L 246.819938 90.911356 
L 246.819938 90.911356 
L 246.819938 90.50545 
L 246.819938 90.50545 
L 247.420497 90.50545 
L 247.420497 90.099544 
L 249.672597 90.099544 
L 249.672597 89.693638 
L 250.573437 89.693638 
L 250.573437 89.693638 
L 250.573437 89.287732 
L 252.375116 89.287732 
L 252.375116 88.881826 
L 253.876516 88.881826 
L 253.876516 88.475919 
L 255.678196 88.475919 
L 255.678196 88.475919 
L 255.678196 88.070013 
L 257.029455 88.070013 
L 257.029455 87.664107 
L 257.029455 87.664107 
L 260.332535 87.664107 
L 260.332535 87.664107 
L 260.332535 87.258201 
L 263.035054 87.258201 
L 263.035054 86.852295 
L 263.035054 86.852295 
L 263.635614 86.852295 
L 263.635614 86.852295 
L 263.635614 86.446389 
L 264.536454 86.446389 
L 264.536454 86.446389 
L 264.536454 86.040483 
L 264.986874 86.040483 
L 264.986874 85.634577 
L 269.340933 85.634577 
L 269.340933 85.634577 
L 269.340933 85.228671 
L 270.391912 85.228671 
L 270.391912 84.822765 
L 270.391912 84.822765 
L 271.593032 84.822765 
L 271.593032 84.416859 
L 275.046251 84.416859 
L 275.046251 84.010953 
L 279.70059 84.010953 
L 279.70059 83.605047 
L 280.60143 83.605047 
L 280.60143 83.199141 
L 282.10283 83.199141 
L 282.10283 83.199141 
L 282.10283 82.387329 
L 282.55325 82.387329 
L 282.55325 82.387329 
L 282.55325 81.981423 
L 283.00367 81.981423 
L 283.00367 81.575517 
L 283.00367 81.575517 
L 283.604229 81.575517 
L 283.604229 81.575517 
L 283.604229 80.763705 
L 283.604229 80.763705 
L 284.805349 80.763705 
L 284.805349 80.763705 
L 284.805349 80.357799 
L 284.805349 80.357799 
L 286.156609 80.357799 
L 286.156609 80.357799 
L 286.156609 79.951893 
L 286.757169 79.951893 
L 286.757169 79.545987 
L 287.658009 79.545987 
L 287.658009 79.545987 
L 287.658009 79.140081 
L 287.958288 79.140081 
L 287.958288 78.734174 
L 289.459688 78.734174 
L 289.459688 78.734174 
L 289.459688 78.328268 
L 294.114027 78.328268 
L 294.114027 77.922362 
L 294.114027 77.922362 
L 296.816546 77.922362 
L 296.816546 77.922362 
L 296.816546 77.516456 
L 296.816546 77.516456 
L 298.167806 77.516456 
L 298.167806 77.516456 
L 298.167806 77.11055 
L 299.068646 77.11055 
L 299.068646 77.11055 
L 299.068646 76.704644 
L 301.320745 76.704644 
L 301.320745 76.704644 
L 301.320745 76.298738 
L 303.122425 76.298738 
L 303.122425 76.298738 
L 303.122425 75.892832 
L 303.122425 75.892832 
L 303.422705 75.892832 
L 303.422705 75.486926 
L 303.422705 75.486926 
L 306.725784 75.486926 
L 306.725784 75.08102 
L 307.476484 75.08102 
L 307.476484 74.675114 
L 307.776764 74.675114 
L 307.776764 74.269208 
L 308.377324 74.269208 
L 308.377324 74.269208 
L 308.377324 73.863302 
L 308.677604 73.863302 
L 308.677604 73.863302 
L 308.677604 73.457396 
L 308.677604 73.457396 
L 311.229983 73.457396 
L 311.229983 73.457396 
L 311.229983 73.05149 
L 311.380123 73.05149 
L 311.380123 73.05149 
L 311.380123 72.645584 
L 314.082643 72.645584 
L 314.082643 72.239678 
L 316.484882 72.239678 
L 316.484882 72.239678 
L 316.484882 71.833772 
L 316.484882 71.833772 
L 317.836142 71.833772 
L 317.836142 71.427866 
L 318.887122 71.427866 
L 318.887122 71.02196 
L 318.887122 71.02196 
L 319.938101 71.02196 
L 319.938101 71.02196 
L 319.938101 70.616054 
L 321.589641 70.616054 
L 321.589641 70.210148 
L 322.190201 70.210148 
L 322.190201 70.210148 
L 322.190201 69.804242 
L 323.241181 69.804242 
L 323.241181 69.804242 
L 323.241181 69.398336 
L 324.89272 69.398336 
L 324.89272 68.99243 
L 325.04286 68.99243 
L 325.04286 68.99243 
L 325.04286 68.586523 
L 325.193 68.586523 
L 325.193 68.180617 
L 326.09384 68.180617 
L 326.09384 67.368805 
L 326.09384 67.368805 
L 326.84454 67.368805 
L 326.84454 67.368805 
L 326.84454 66.962899 
L 327.89552 66.962899 
L 327.89552 66.962899 
L 327.89552 66.556993 
L 330.447899 66.556993 
L 330.447899 66.556993 
L 330.447899 66.151087 
L 330.447899 66.151087 
L 331.498879 66.151087 
L 331.498879 64.527463 
L 331.498879 64.527463 
L 333.000278 64.527463 
L 333.000278 64.121557 
L 333.000278 64.121557 
L 335.552658 64.121557 
L 335.552658 63.715651 
L 335.552658 63.715651 
L 337.504477 63.715651 
L 337.504477 63.715651 
L 337.504477 63.309745 
L 338.405317 63.309745 
L 338.405317 63.309745 
L 338.405317 62.903839 
L 338.555457 62.903839 
L 338.555457 62.903839 
L 338.555457 62.497933 
L 340.807557 62.497933 
L 340.807557 62.092027 
L 341.257977 62.092027 
L 341.257977 62.092027 
L 341.257977 61.686121 
L 342.909516 61.686121 
L 342.909516 61.686121 
L 342.909516 61.280215 
L 342.909516 61.280215 
L 343.810356 61.280215 
L 343.810356 60.874309 
L 343.960496 60.874309 
L 343.960496 60.874309 
L 343.960496 60.468403 
L 343.960496 60.468403 
L 345.161616 60.468403 
L 345.161616 60.062497 
L 345.612036 60.062497 
L 345.612036 59.656591 
L 345.612036 59.656591 
L 345.762176 59.656591 
L 345.762176 59.656591 
L 345.762176 58.844779 
L 345.912316 58.844779 
L 345.912316 58.438872 
L 345.912316 58.438872 
L 346.062456 58.438872 
L 346.062456 58.438872 
L 346.062456 57.62706 
L 347.263575 57.62706 
L 347.263575 57.221154 
L 347.864135 57.221154 
L 347.864135 57.221154 
L 347.864135 56.815248 
L 348.164415 56.815248 
L 348.164415 56.409342 
L 348.164415 56.409342 
L 348.614835 56.409342 
L 348.614835 56.409342 
L 348.614835 56.003436 
L 348.614835 56.003436 
L 348.764975 56.003436 
L 348.764975 55.59753 
L 353.269174 55.59753 
L 353.269174 55.59753 
L 353.269174 55.191624 
L 354.770574 55.191624 
L 354.770574 55.191624 
L 354.770574 54.785718 
L 355.070854 54.785718 
L 355.070854 54.379812 
L 355.070854 54.379812 
L 355.371133 54.379812 
L 355.371133 53.973906 
L 355.971693 53.973906 
L 355.971693 53.568 
L 355.971693 53.568 
L 357.322953 53.568 
L 357.322953 53.568 
" clip-path="url(#p1d59c20a27)" style="fill: none; stroke: #1f77b4; stroke-width: 1.5; stroke-linecap: square"/>
   </g>
   <g id="line2d_14">
    <path d="M 170.548835 135.56102 
" clip-path="url(#p1d59c20a27)" style="fill: none; stroke: #ff0000; stroke-width: 1.5; stroke-linecap: square"/>
    <defs>
     <path id="m2eb57fca38" d="M 0 3 
C 0.795609 3 1.55874 2.683901 2.12132 2.12132 
C 2.683901 1.55874 3 0.795609 3 0 
C 3 -0.795609 2.683901 -1.55874 2.12132 -2.12132 
C 1.55874 -2.683901 0.795609 -3 0 -3 
C -0.795609 -3 -1.55874 -2.683901 -2.12132 -2.12132 
C -2.683901 -1.55874 -3 -0.795609 -3 0 
C -3 0.795609 -2.683901 1.55874 -2.12132 2.12132 
C -1.55874 2.683901 -0.795609 3 0 3 
z
" style="stroke: #ff0000"/>
    </defs>
    <g clip-path="url(#p1d59c20a27)">
     <use xlink:href="#m2eb57fca38" x="170.548835" y="135.56102" style="fill: #ff0000; stroke: #ff0000"/>
    </g>
   </g>
   <g id="patch_3">
    <path d="M 102.880752 307.584 
L 102.880752 41.472 
" style="fill: none; stroke: #000000; stroke-width: 0.8; stroke-linejoin: miter; stroke-linecap: square"/>
   </g>
   <g id="patch_4">
    <path d="M 369.439248 307.584 
L 369.439248 41.472 
" style="fill: none; stroke: #000000; stroke-width: 0.8; stroke-linejoin: miter; stroke-linecap: square"/>
   </g>
   <g id="patch_5">
    <path d="M 102.880752 307.584 
L 369.439248 307.584 
" style="fill: none; stroke: #000000; stroke-width: 0.8; stroke-linejoin: miter; stroke-linecap: square"/>
   </g>
   <g id="patch_6">
    <path d="M 102.880752 41.472 
L 369.439248 41.472 
" style="fill: none; stroke: #000000; stroke-width: 0.8; stroke-linejoin: miter; stroke-linecap: square"/>
   </g>
   <g id="text_15">
    <!-- AUC = 0.77 -->
    <g transform="translate(114.997047 77.800591)scale(0.1 -0.1)">
     <defs>
      <path id="DejaVuSans-41" d="M 2188 4044 
L 1331 1722 
L 3047 1722 
L 2188 4044 
z
M 1831 4666 
L 2547 4666 
L 4325 0 
L 3669 0 
L 3244 1197 
L 1141 1197 
L 716 0 
L 50 0 
L 1831 4666 
z
" transform="scale(0.015625)"/>
      <path id="DejaVuSans-55" d="M 556 4666 
L 1191 4666 
L 1191 1831 
Q 1191 1081 1462 751 
Q 1734 422 2344 422 
Q 2950 422 3222 751 
Q 3494 1081 3494 1831 
L 3494 4666 
L 4128 4666 
L 4128 1753 
Q 4128 841 3676 375 
Q 3225 -91 2344 -91 
Q 1459 -91 1007 375 
Q 556 841 556 1753 
L 556 4666 
z
" transform="scale(0.015625)"/>
      <path id="DejaVuSans-43" d="M 4122 4306 
L 4122 3641 
Q 3803 3938 3442 4084 
Q 3081 4231 2675 4231 
Q 1875 4231 1450 3742 
Q 1025 3253 1025 2328 
Q 1025 1406 1450 917 
Q 1875 428 2675 428 
Q 3081 428 3442 575 
Q 3803 722 4122 1019 
L 4122 359 
Q 3791 134 3420 21 
Q 3050 -91 2638 -91 
Q 1578 -91 968 557 
Q 359 1206 359 2328 
Q 359 3453 968 4101 
Q 1578 4750 2638 4750 
Q 3056 4750 3426 4639 
Q 3797 4528 4122 4306 
z
" transform="scale(0.015625)"/>
      <path id="DejaVuSans-20" transform="scale(0.015625)"/>
      <path id="DejaVuSans-3d" d="M 678 2906 
L 4684 2906 
L 4684 2381 
L 678 2381 
L 678 2906 
z
M 678 1631 
L 4684 1631 
L 4684 1100 
L 678 1100 
L 678 1631 
z
" transform="scale(0.015625)"/>
      <path id="DejaVuSans-37" d="M 525 4666 
L 3525 4666 
L 3525 4397 
L 1831 0 
L 1172 0 
L 2766 4134 
L 525 4134 
L 525 4666 
z
" transform="scale(0.015625)"/>
     </defs>
     <use xlink:href="#DejaVuSans-41"/>
     <use xlink:href="#DejaVuSans-55" x="68.408203"/>
     <use xlink:href="#DejaVuSans-43" x="141.601562"/>
     <use xlink:href="#DejaVuSans-20" x="211.425781"/>
     <use xlink:href="#DejaVuSans-3d" x="243.212891"/>
     <use xlink:href="#DejaVuSans-20" x="327.001953"/>
     <use xlink:href="#DejaVuSans-30" x="358.789062"/>
     <use xlink:href="#DejaVuSans-2e" x="422.412109"/>
     <use xlink:href="#DejaVuSans-37" x="454.199219"/>
     <use xlink:href="#DejaVuSans-37" x="517.822266"/>
    </g>
   </g>
   <g id="text_16">
    <!-- Cut-off Point -->
    <g transform="translate(182.66513 149.514281)scale(0.1 -0.1)">
     <defs>
      <path id="DejaVuSans-75" d="M 544 1381 
L 544 3500 
L 1119 3500 
L 1119 1403 
Q 1119 906 1312 657 
Q 1506 409 1894 409 
Q 2359 409 2629 706 
Q 2900 1003 2900 1516 
L 2900 3500 
L 3475 3500 
L 3475 0 
L 2900 0 
L 2900 538 
Q 2691 219 2414 64 
Q 2138 -91 1772 -91 
Q 1169 -91 856 284 
Q 544 659 544 1381 
z
M 1991 3584 
L 1991 3584 
z
" transform="scale(0.015625)"/>
      <path id="DejaVuSans-74" d="M 1172 4494 
L 1172 3500 
L 2356 3500 
L 2356 3053 
L 1172 3053 
L 1172 1153 
Q 1172 725 1289 603 
Q 1406 481 1766 481 
L 2356 481 
L 2356 0 
L 1766 0 
Q 1100 0 847 248 
Q 594 497 594 1153 
L 594 3053 
L 172 3053 
L 172 3500 
L 594 3500 
L 594 4494 
L 1172 4494 
z
" transform="scale(0.015625)"/>
      <path id="DejaVuSans-2d" d="M 313 2009 
L 1997 2009 
L 1997 1497 
L 313 1497 
L 313 2009 
z
" transform="scale(0.015625)"/>
      <path id="DejaVuSans-6f" d="M 1959 3097 
Q 1497 3097 1228 2736 
Q 959 2375 959 1747 
Q 959 1119 1226 758 
Q 1494 397 1959 397 
Q 2419 397 2687 759 
Q 2956 1122 2956 1747 
Q 2956 2369 2687 2733 
Q 2419 3097 1959 3097 
z
M 1959 3584 
Q 2709 3584 3137 3096 
Q 3566 2609 3566 1747 
Q 3566 888 3137 398 
Q 2709 -91 1959 -91 
Q 1206 -91 779 398 
Q 353 888 353 1747 
Q 353 2609 779 3096 
Q 1206 3584 1959 3584 
z
" transform="scale(0.015625)"/>
      <path id="DejaVuSans-66" d="M 2375 4863 
L 2375 4384 
L 1825 4384 
Q 1516 4384 1395 4259 
Q 1275 4134 1275 3809 
L 1275 3500 
L 2222 3500 
L 2222 3053 
L 1275 3053 
L 1275 0 
L 697 0 
L 697 3053 
L 147 3053 
L 147 3500 
L 697 3500 
L 697 3744 
Q 697 4328 969 4595 
Q 1241 4863 1831 4863 
L 2375 4863 
z
" transform="scale(0.015625)"/>
      <path id="DejaVuSans-69" d="M 603 3500 
L 1178 3500 
L 1178 0 
L 603 0 
L 603 3500 
z
M 603 4863 
L 1178 4863 
L 1178 4134 
L 603 4134 
L 603 4863 
z
" transform="scale(0.015625)"/>
      <path id="DejaVuSans-6e" d="M 3513 2113 
L 3513 0 
L 2938 0 
L 2938 2094 
Q 2938 2591 2744 2837 
Q 2550 3084 2163 3084 
Q 1697 3084 1428 2787 
Q 1159 2491 1159 1978 
L 1159 0 
L 581 0 
L 581 3500 
L 1159 3500 
L 1159 2956 
Q 1366 3272 1645 3428 
Q 1925 3584 2291 3584 
Q 2894 3584 3203 3211 
Q 3513 2838 3513 2113 
z
" transform="scale(0.015625)"/>
     </defs>
     <use xlink:href="#DejaVuSans-43"/>
     <use xlink:href="#DejaVuSans-75" x="69.824219"/>
     <use xlink:href="#DejaVuSans-74" x="133.203125"/>
     <use xlink:href="#DejaVuSans-2d" x="172.412109"/>
     <use xlink:href="#DejaVuSans-6f" x="210.371094"/>
     <use xlink:href="#DejaVuSans-66" x="271.552734"/>
     <use xlink:href="#DejaVuSans-66" x="306.757812"/>
     <use xlink:href="#DejaVuSans-20" x="341.962891"/>
     <use xlink:href="#DejaVuSans-50" x="373.75"/>
     <use xlink:href="#DejaVuSans-6f" x="430.427734"/>
     <use xlink:href="#DejaVuSans-69" x="491.609375"/>
     <use xlink:href="#DejaVuSans-6e" x="519.392578"/>
     <use xlink:href="#DejaVuSans-74" x="582.771484"/>
    </g>
    <!-- FPR=0.229 -->
    <g transform="translate(182.66513 160.712094)scale(0.1 -0.1)">
     <defs>
      <path id="DejaVuSans-39" d="M 703 97 
L 703 672 
Q 941 559 1184 500 
Q 1428 441 1663 441 
Q 2288 441 2617 861 
Q 2947 1281 2994 2138 
Q 2813 1869 2534 1725 
Q 2256 1581 1919 1581 
Q 1219 1581 811 2004 
Q 403 2428 403 3163 
Q 403 3881 828 4315 
Q 1253 4750 1959 4750 
Q 2769 4750 3195 4129 
Q 3622 3509 3622 2328 
Q 3622 1225 3098 567 
Q 2575 -91 1691 -91 
Q 1453 -91 1209 -44 
Q 966 3 703 97 
z
M 1959 2075 
Q 2384 2075 2632 2365 
Q 2881 2656 2881 3163 
Q 2881 3666 2632 3958 
Q 2384 4250 1959 4250 
Q 1534 4250 1286 3958 
Q 1038 3666 1038 3163 
Q 1038 2656 1286 2365 
Q 1534 2075 1959 2075 
z
" transform="scale(0.015625)"/>
     </defs>
     <use xlink:href="#DejaVuSans-46"/>
     <use xlink:href="#DejaVuSans-50" x="57.519531"/>
     <use xlink:href="#DejaVuSans-52" x="117.822266"/>
     <use xlink:href="#DejaVuSans-3d" x="187.304688"/>
     <use xlink:href="#DejaVuSans-30" x="271.09375"/>
     <use xlink:href="#DejaVuSans-2e" x="334.716797"/>
     <use xlink:href="#DejaVuSans-32" x="366.503906"/>
     <use xlink:href="#DejaVuSans-32" x="430.126953"/>
     <use xlink:href="#DejaVuSans-39" x="493.75"/>
    </g>
    <!-- TPR=0.662 -->
    <g transform="translate(182.66513 171.909906)scale(0.1 -0.1)">
     <use xlink:href="#DejaVuSans-54"/>
     <use xlink:href="#DejaVuSans-50" x="61.083984"/>
     <use xlink:href="#DejaVuSans-52" x="121.386719"/>
     <use xlink:href="#DejaVuSans-3d" x="190.869141"/>
     <use xlink:href="#DejaVuSans-30" x="274.658203"/>
     <use xlink:href="#DejaVuSans-2e" x="338.28125"/>
     <use xlink:href="#DejaVuSans-36" x="370.068359"/>
     <use xlink:href="#DejaVuSans-36" x="433.691406"/>
     <use xlink:href="#DejaVuSans-32" x="497.314453"/>
    </g>
   </g>
   <g id="text_17">
    <!-- ROC_Ratio_129C_127C -->
    <g transform="translate(167.3925 35.472)scale(0.12 -0.12)">
     <defs>
      <path id="DejaVuSans-4f" d="M 2522 4238 
Q 1834 4238 1429 3725 
Q 1025 3213 1025 2328 
Q 1025 1447 1429 934 
Q 1834 422 2522 422 
Q 3209 422 3611 934 
Q 4013 1447 4013 2328 
Q 4013 3213 3611 3725 
Q 3209 4238 2522 4238 
z
M 2522 4750 
Q 3503 4750 4090 4092 
Q 4678 3434 4678 2328 
Q 4678 1225 4090 567 
Q 3503 -91 2522 -91 
Q 1538 -91 948 565 
Q 359 1222 359 2328 
Q 359 3434 948 4092 
Q 1538 4750 2522 4750 
z
" transform="scale(0.015625)"/>
      <path id="DejaVuSans-5f" d="M 3263 -1063 
L 3263 -1509 
L -63 -1509 
L -63 -1063 
L 3263 -1063 
z
" transform="scale(0.015625)"/>
      <path id="DejaVuSans-61" d="M 2194 1759 
Q 1497 1759 1228 1600 
Q 959 1441 959 1056 
Q 959 750 1161 570 
Q 1363 391 1709 391 
Q 2188 391 2477 730 
Q 2766 1069 2766 1631 
L 2766 1759 
L 2194 1759 
z
M 3341 1997 
L 3341 0 
L 2766 0 
L 2766 531 
Q 2569 213 2275 61 
Q 1981 -91 1556 -91 
Q 1019 -91 701 211 
Q 384 513 384 1019 
Q 384 1609 779 1909 
Q 1175 2209 1959 2209 
L 2766 2209 
L 2766 2266 
Q 2766 2663 2505 2880 
Q 2244 3097 1772 3097 
Q 1472 3097 1187 3025 
Q 903 2953 641 2809 
L 641 3341 
Q 956 3463 1253 3523 
Q 1550 3584 1831 3584 
Q 2591 3584 2966 3190 
Q 3341 2797 3341 1997 
z
" transform="scale(0.015625)"/>
     </defs>
     <use xlink:href="#DejaVuSans-52"/>
     <use xlink:href="#DejaVuSans-4f" x="69.482422"/>
     <use xlink:href="#DejaVuSans-43" x="148.193359"/>
     <use xlink:href="#DejaVuSans-5f" x="218.017578"/>
     <use xlink:href="#DejaVuSans-52" x="268.017578"/>
     <use xlink:href="#DejaVuSans-61" x="335.25"/>
     <use xlink:href="#DejaVuSans-74" x="396.529297"/>
     <use xlink:href="#DejaVuSans-69" x="435.738281"/>
     <use xlink:href="#DejaVuSans-6f" x="463.521484"/>
     <use xlink:href="#DejaVuSans-5f" x="524.703125"/>
     <use xlink:href="#DejaVuSans-31" x="574.703125"/>
     <use xlink:href="#DejaVuSans-32" x="638.326172"/>
     <use xlink:href="#DejaVuSans-39" x="701.949219"/>
     <use xlink:href="#DejaVuSans-43" x="765.572266"/>
     <use xlink:href="#DejaVuSans-5f" x="835.396484"/>
     <use xlink:href="#DejaVuSans-31" x="885.396484"/>
     <use xlink:href="#DejaVuSans-32" x="949.019531"/>
     <use xlink:href="#DejaVuSans-37" x="1012.642578"/>
     <use xlink:href="#DejaVuSans-43" x="1076.265625"/>
    </g>
   </g>
  </g>
 </g>
 <defs>
  <clipPath id="p1d59c20a27">
   <rect x="102.880752" y="41.472" width="266.558497" height="266.112"/>
  </clipPath>
 </defs>
</svg>
