<?xml version="1.0" encoding="utf-8" standalone="no"?>
<!DOCTYPE svg PUBLIC "-//W3C//DTD SVG 1.1//EN"
  "http://www.w3.org/Graphics/SVG/1.1/DTD/svg11.dtd">
<svg xmlns:xlink="http://www.w3.org/1999/xlink" width="460.8pt" height="345.6pt" viewBox="0 0 460.8 345.6" xmlns="http://www.w3.org/2000/svg" version="1.1">
 <metadata>
  <rdf:RDF xmlns:dc="http://purl.org/dc/elements/1.1/" xmlns:cc="http://creativecommons.org/ns#" xmlns:rdf="http://www.w3.org/1999/02/22-rdf-syntax-ns#">
   <cc:Work>
    <dc:type rdf:resource="http://purl.org/dc/dcmitype/StillImage"/>
    <dc:date>2022-11-16T18:28:46.661571</dc:date>
    <dc:format>image/svg+xml</dc:format>
    <dc:creator>
     <cc:Agent>
      <dc:title>Matplotlib v3.5.1, https://matplotlib.org/</dc:title>
     </cc:Agent>
    </dc:creator>
   </cc:Work>
  </rdf:RDF>
 </metadata>
 <defs>
  <style type="text/css">*{stroke-linejoin: round; stroke-linecap: butt}</style>
 </defs>
 <g id="figure_1">
  <g id="patch_1">
   <path d="M 0 345.6 
L 460.8 345.6 
L 460.8 0 
L 0 0 
z
" style="fill: #ffffff"/>
  </g>
  <g id="axes_1">
   <g id="patch_2">
    <path d="M 103.104 307.584 
L 369.216 307.584 
L 369.216 41.472 
L 103.104 41.472 
z
" style="fill: #ffffff"/>
   </g>
   <g id="matplotlib.axis_1">
    <g id="xtick_1">
     <g id="line2d_1">
      <defs>
       <path id="mad0bd6b3d1" d="M 0 0 
L 0 3.5 
" style="stroke: #000000; stroke-width: 0.8"/>
      </defs>
      <g>
       <use xlink:href="#mad0bd6b3d1" x="115.2" y="307.584" style="stroke: #000000; stroke-width: 0.8"/>
      </g>
     </g>
     <g id="text_1">
      <!-- 0.0 -->
      <g transform="translate(107.248438 322.182437)scale(0.1 -0.1)">
       <defs>
        <path id="DejaVuSans-30" d="M 2034 4250 
Q 1547 4250 1301 3770 
Q 1056 3291 1056 2328 
Q 1056 1369 1301 889 
Q 1547 409 2034 409 
Q 2525 409 2770 889 
Q 3016 1369 3016 2328 
Q 3016 3291 2770 3770 
Q 2525 4250 2034 4250 
z
M 2034 4750 
Q 2819 4750 3233 4129 
Q 3647 3509 3647 2328 
Q 3647 1150 3233 529 
Q 2819 -91 2034 -91 
Q 1250 -91 836 529 
Q 422 1150 422 2328 
Q 422 3509 836 4129 
Q 1250 4750 2034 4750 
z
" transform="scale(0.015625)"/>
        <path id="DejaVuSans-2e" d="M 684 794 
L 1344 794 
L 1344 0 
L 684 0 
L 684 794 
z
" transform="scale(0.015625)"/>
       </defs>
       <use xlink:href="#DejaVuSans-30"/>
       <use xlink:href="#DejaVuSans-2e" x="63.623047"/>
       <use xlink:href="#DejaVuSans-30" x="95.410156"/>
      </g>
     </g>
    </g>
    <g id="xtick_2">
     <g id="line2d_2">
      <g>
       <use xlink:href="#mad0bd6b3d1" x="163.584" y="307.584" style="stroke: #000000; stroke-width: 0.8"/>
      </g>
     </g>
     <g id="text_2">
      <!-- 0.2 -->
      <g transform="translate(155.632438 322.182437)scale(0.1 -0.1)">
       <defs>
        <path id="DejaVuSans-32" d="M 1228 531 
L 3431 531 
L 3431 0 
L 469 0 
L 469 531 
Q 828 903 1448 1529 
Q 2069 2156 2228 2338 
Q 2531 2678 2651 2914 
Q 2772 3150 2772 3378 
Q 2772 3750 2511 3984 
Q 2250 4219 1831 4219 
Q 1534 4219 1204 4116 
Q 875 4013 500 3803 
L 500 4441 
Q 881 4594 1212 4672 
Q 1544 4750 1819 4750 
Q 2544 4750 2975 4387 
Q 3406 4025 3406 3419 
Q 3406 3131 3298 2873 
Q 3191 2616 2906 2266 
Q 2828 2175 2409 1742 
Q 1991 1309 1228 531 
z
" transform="scale(0.015625)"/>
       </defs>
       <use xlink:href="#DejaVuSans-30"/>
       <use xlink:href="#DejaVuSans-2e" x="63.623047"/>
       <use xlink:href="#DejaVuSans-32" x="95.410156"/>
      </g>
     </g>
    </g>
    <g id="xtick_3">
     <g id="line2d_3">
      <g>
       <use xlink:href="#mad0bd6b3d1" x="211.968" y="307.584" style="stroke: #000000; stroke-width: 0.8"/>
      </g>
     </g>
     <g id="text_3">
      <!-- 0.4 -->
      <g transform="translate(204.016438 322.182437)scale(0.1 -0.1)">
       <defs>
        <path id="DejaVuSans-34" d="M 2419 4116 
L 825 1625 
L 2419 1625 
L 2419 4116 
z
M 2253 4666 
L 3047 4666 
L 3047 1625 
L 3713 1625 
L 3713 1100 
L 3047 1100 
L 3047 0 
L 2419 0 
L 2419 1100 
L 313 1100 
L 313 1709 
L 2253 4666 
z
" transform="scale(0.015625)"/>
       </defs>
       <use xlink:href="#DejaVuSans-30"/>
       <use xlink:href="#DejaVuSans-2e" x="63.623047"/>
       <use xlink:href="#DejaVuSans-34" x="95.410156"/>
      </g>
     </g>
    </g>
    <g id="xtick_4">
     <g id="line2d_4">
      <g>
       <use xlink:href="#mad0bd6b3d1" x="260.352" y="307.584" style="stroke: #000000; stroke-width: 0.8"/>
      </g>
     </g>
     <g id="text_4">
      <!-- 0.6 -->
      <g transform="translate(252.400438 322.182437)scale(0.1 -0.1)">
       <defs>
        <path id="DejaVuSans-36" d="M 2113 2584 
Q 1688 2584 1439 2293 
Q 1191 2003 1191 1497 
Q 1191 994 1439 701 
Q 1688 409 2113 409 
Q 2538 409 2786 701 
Q 3034 994 3034 1497 
Q 3034 2003 2786 2293 
Q 2538 2584 2113 2584 
z
M 3366 4563 
L 3366 3988 
Q 3128 4100 2886 4159 
Q 2644 4219 2406 4219 
Q 1781 4219 1451 3797 
Q 1122 3375 1075 2522 
Q 1259 2794 1537 2939 
Q 1816 3084 2150 3084 
Q 2853 3084 3261 2657 
Q 3669 2231 3669 1497 
Q 3669 778 3244 343 
Q 2819 -91 2113 -91 
Q 1303 -91 875 529 
Q 447 1150 447 2328 
Q 447 3434 972 4092 
Q 1497 4750 2381 4750 
Q 2619 4750 2861 4703 
Q 3103 4656 3366 4563 
z
" transform="scale(0.015625)"/>
       </defs>
       <use xlink:href="#DejaVuSans-30"/>
       <use xlink:href="#DejaVuSans-2e" x="63.623047"/>
       <use xlink:href="#DejaVuSans-36" x="95.410156"/>
      </g>
     </g>
    </g>
    <g id="xtick_5">
     <g id="line2d_5">
      <g>
       <use xlink:href="#mad0bd6b3d1" x="308.736" y="307.584" style="stroke: #000000; stroke-width: 0.8"/>
      </g>
     </g>
     <g id="text_5">
      <!-- 0.8 -->
      <g transform="translate(300.784437 322.182437)scale(0.1 -0.1)">
       <defs>
        <path id="DejaVuSans-38" d="M 2034 2216 
Q 1584 2216 1326 1975 
Q 1069 1734 1069 1313 
Q 1069 891 1326 650 
Q 1584 409 2034 409 
Q 2484 409 2743 651 
Q 3003 894 3003 1313 
Q 3003 1734 2745 1975 
Q 2488 2216 2034 2216 
z
M 1403 2484 
Q 997 2584 770 2862 
Q 544 3141 544 3541 
Q 544 4100 942 4425 
Q 1341 4750 2034 4750 
Q 2731 4750 3128 4425 
Q 3525 4100 3525 3541 
Q 3525 3141 3298 2862 
Q 3072 2584 2669 2484 
Q 3125 2378 3379 2068 
Q 3634 1759 3634 1313 
Q 3634 634 3220 271 
Q 2806 -91 2034 -91 
Q 1263 -91 848 271 
Q 434 634 434 1313 
Q 434 1759 690 2068 
Q 947 2378 1403 2484 
z
M 1172 3481 
Q 1172 3119 1398 2916 
Q 1625 2713 2034 2713 
Q 2441 2713 2670 2916 
Q 2900 3119 2900 3481 
Q 2900 3844 2670 4047 
Q 2441 4250 2034 4250 
Q 1625 4250 1398 4047 
Q 1172 3844 1172 3481 
z
" transform="scale(0.015625)"/>
       </defs>
       <use xlink:href="#DejaVuSans-30"/>
       <use xlink:href="#DejaVuSans-2e" x="63.623047"/>
       <use xlink:href="#DejaVuSans-38" x="95.410156"/>
      </g>
     </g>
    </g>
    <g id="xtick_6">
     <g id="line2d_6">
      <g>
       <use xlink:href="#mad0bd6b3d1" x="357.12" y="307.584" style="stroke: #000000; stroke-width: 0.8"/>
      </g>
     </g>
     <g id="text_6">
      <!-- 1.0 -->
      <g transform="translate(349.168438 322.182437)scale(0.1 -0.1)">
       <defs>
        <path id="DejaVuSans-31" d="M 794 531 
L 1825 531 
L 1825 4091 
L 703 3866 
L 703 4441 
L 1819 4666 
L 2450 4666 
L 2450 531 
L 3481 531 
L 3481 0 
L 794 0 
L 794 531 
z
" transform="scale(0.015625)"/>
       </defs>
       <use xlink:href="#DejaVuSans-31"/>
       <use xlink:href="#DejaVuSans-2e" x="63.623047"/>
       <use xlink:href="#DejaVuSans-30" x="95.410156"/>
      </g>
     </g>
    </g>
    <g id="text_7">
     <!-- FPR -->
     <g transform="translate(226.795156 335.860562)scale(0.1 -0.1)">
      <defs>
       <path id="DejaVuSans-46" d="M 628 4666 
L 3309 4666 
L 3309 4134 
L 1259 4134 
L 1259 2759 
L 3109 2759 
L 3109 2228 
L 1259 2228 
L 1259 0 
L 628 0 
L 628 4666 
z
" transform="scale(0.015625)"/>
       <path id="DejaVuSans-50" d="M 1259 4147 
L 1259 2394 
L 2053 2394 
Q 2494 2394 2734 2622 
Q 2975 2850 2975 3272 
Q 2975 3691 2734 3919 
Q 2494 4147 2053 4147 
L 1259 4147 
z
M 628 4666 
L 2053 4666 
Q 2838 4666 3239 4311 
Q 3641 3956 3641 3272 
Q 3641 2581 3239 2228 
Q 2838 1875 2053 1875 
L 1259 1875 
L 1259 0 
L 628 0 
L 628 4666 
z
" transform="scale(0.015625)"/>
       <path id="DejaVuSans-52" d="M 2841 2188 
Q 3044 2119 3236 1894 
Q 3428 1669 3622 1275 
L 4263 0 
L 3584 0 
L 2988 1197 
Q 2756 1666 2539 1819 
Q 2322 1972 1947 1972 
L 1259 1972 
L 1259 0 
L 628 0 
L 628 4666 
L 2053 4666 
Q 2853 4666 3247 4331 
Q 3641 3997 3641 3322 
Q 3641 2881 3436 2590 
Q 3231 2300 2841 2188 
z
M 1259 4147 
L 1259 2491 
L 2053 2491 
Q 2509 2491 2742 2702 
Q 2975 2913 2975 3322 
Q 2975 3731 2742 3939 
Q 2509 4147 2053 4147 
L 1259 4147 
z
" transform="scale(0.015625)"/>
      </defs>
      <use xlink:href="#DejaVuSans-46"/>
      <use xlink:href="#DejaVuSans-50" x="57.519531"/>
      <use xlink:href="#DejaVuSans-52" x="117.822266"/>
     </g>
    </g>
   </g>
   <g id="matplotlib.axis_2">
    <g id="ytick_1">
     <g id="line2d_7">
      <defs>
       <path id="m301cd4855a" d="M 0 0 
L -3.5 0 
" style="stroke: #000000; stroke-width: 0.8"/>
      </defs>
      <g>
       <use xlink:href="#m301cd4855a" x="103.104" y="295.488" style="stroke: #000000; stroke-width: 0.8"/>
      </g>
     </g>
     <g id="text_8">
      <!-- 0.0 -->
      <g transform="translate(80.200875 299.287219)scale(0.1 -0.1)">
       <use xlink:href="#DejaVuSans-30"/>
       <use xlink:href="#DejaVuSans-2e" x="63.623047"/>
       <use xlink:href="#DejaVuSans-30" x="95.410156"/>
      </g>
     </g>
    </g>
    <g id="ytick_2">
     <g id="line2d_8">
      <g>
       <use xlink:href="#m301cd4855a" x="103.104" y="247.104" style="stroke: #000000; stroke-width: 0.8"/>
      </g>
     </g>
     <g id="text_9">
      <!-- 0.2 -->
      <g transform="translate(80.200875 250.903219)scale(0.1 -0.1)">
       <use xlink:href="#DejaVuSans-30"/>
       <use xlink:href="#DejaVuSans-2e" x="63.623047"/>
       <use xlink:href="#DejaVuSans-32" x="95.410156"/>
      </g>
     </g>
    </g>
    <g id="ytick_3">
     <g id="line2d_9">
      <g>
       <use xlink:href="#m301cd4855a" x="103.104" y="198.72" style="stroke: #000000; stroke-width: 0.8"/>
      </g>
     </g>
     <g id="text_10">
      <!-- 0.4 -->
      <g transform="translate(80.200875 202.519219)scale(0.1 -0.1)">
       <use xlink:href="#DejaVuSans-30"/>
       <use xlink:href="#DejaVuSans-2e" x="63.623047"/>
       <use xlink:href="#DejaVuSans-34" x="95.410156"/>
      </g>
     </g>
    </g>
    <g id="ytick_4">
     <g id="line2d_10">
      <g>
       <use xlink:href="#m301cd4855a" x="103.104" y="150.336" style="stroke: #000000; stroke-width: 0.8"/>
      </g>
     </g>
     <g id="text_11">
      <!-- 0.6 -->
      <g transform="translate(80.200875 154.135219)scale(0.1 -0.1)">
       <use xlink:href="#DejaVuSans-30"/>
       <use xlink:href="#DejaVuSans-2e" x="63.623047"/>
       <use xlink:href="#DejaVuSans-36" x="95.410156"/>
      </g>
     </g>
    </g>
    <g id="ytick_5">
     <g id="line2d_11">
      <g>
       <use xlink:href="#m301cd4855a" x="103.104" y="101.952" style="stroke: #000000; stroke-width: 0.8"/>
      </g>
     </g>
     <g id="text_12">
      <!-- 0.8 -->
      <g transform="translate(80.200875 105.751219)scale(0.1 -0.1)">
       <use xlink:href="#DejaVuSans-30"/>
       <use xlink:href="#DejaVuSans-2e" x="63.623047"/>
       <use xlink:href="#DejaVuSans-38" x="95.410156"/>
      </g>
     </g>
    </g>
    <g id="ytick_6">
     <g id="line2d_12">
      <g>
       <use xlink:href="#m301cd4855a" x="103.104" y="53.568" style="stroke: #000000; stroke-width: 0.8"/>
      </g>
     </g>
     <g id="text_13">
      <!-- 1.0 -->
      <g transform="translate(80.200875 57.367219)scale(0.1 -0.1)">
       <use xlink:href="#DejaVuSans-31"/>
       <use xlink:href="#DejaVuSans-2e" x="63.623047"/>
       <use xlink:href="#DejaVuSans-30" x="95.410156"/>
      </g>
     </g>
    </g>
    <g id="text_14">
     <!-- TPR -->
     <g transform="translate(74.121188 184.070969)rotate(-90)scale(0.1 -0.1)">
      <defs>
       <path id="DejaVuSans-54" d="M -19 4666 
L 3928 4666 
L 3928 4134 
L 2272 4134 
L 2272 0 
L 1638 0 
L 1638 4134 
L -19 4134 
L -19 4666 
z
" transform="scale(0.015625)"/>
      </defs>
      <use xlink:href="#DejaVuSans-54"/>
      <use xlink:href="#DejaVuSans-50" x="61.083984"/>
      <use xlink:href="#DejaVuSans-52" x="121.386719"/>
     </g>
    </g>
   </g>
   <g id="line2d_13">
    <path d="M 115.2 295.488 
L 115.949442 295.488 
L 115.949442 295.082774 
L 115.949442 295.082774 
L 116.099331 295.082774 
L 116.099331 295.082774 
L 116.099331 283.736442 
L 116.249219 283.736442 
L 116.249219 283.736442 
L 116.249219 282.115538 
L 116.399108 282.115538 
L 116.399108 282.115538 
L 116.399108 278.063276 
L 116.399108 278.063276 
L 116.548996 278.063276 
L 116.548996 276.442372 
L 116.698885 276.442372 
L 116.698885 274.821467 
L 116.698885 274.821467 
L 116.848773 274.821467 
L 116.848773 256.991518 
L 116.848773 256.991518 
L 116.998662 256.991518 
L 116.998662 256.991518 
L 116.998662 251.318352 
L 117.14855 251.318352 
L 117.14855 251.318352 
L 117.14855 246.050412 
L 117.14855 246.050412 
L 117.448327 246.050412 
L 117.448327 243.619055 
L 117.448327 243.619055 
L 117.748104 243.619055 
L 117.748104 242.403377 
L 117.748104 242.403377 
L 117.897993 242.403377 
L 117.897993 230.246593 
L 117.897993 230.246593 
L 118.047881 230.246593 
L 118.047881 226.194332 
L 118.047881 226.194332 
L 118.19777 226.194332 
L 118.19777 226.194332 
L 118.19777 224.168201 
L 118.19777 224.168201 
L 118.347658 224.168201 
L 118.347658 219.710714 
L 118.347658 219.710714 
L 118.497546 219.710714 
L 118.497546 219.305487 
L 118.797323 219.305487 
L 118.797323 219.305487 
L 118.797323 218.495035 
L 118.947212 218.495035 
L 118.947212 215.658452 
L 119.0971 215.658452 
L 119.0971 214.037548 
L 119.0971 214.037548 
L 119.546766 214.037548 
L 119.546766 214.037548 
L 119.546766 212.821869 
L 119.546766 212.821869 
L 119.696654 212.821869 
L 119.696654 209.985286 
L 119.696654 209.985286 
L 119.846543 209.985286 
L 119.846543 207.148704 
L 119.996431 207.148704 
L 119.996431 206.338251 
L 120.14632 206.338251 
L 120.14632 205.933025 
L 120.296208 205.933025 
L 120.296208 205.933025 
L 120.296208 205.527799 
L 120.446097 205.527799 
L 120.446097 205.527799 
L 120.446097 201.880764 
L 120.895762 201.880764 
L 120.895762 201.880764 
L 120.895762 200.665085 
L 121.045651 200.665085 
L 121.045651 200.259859 
L 121.045651 200.259859 
L 121.195539 200.259859 
L 121.195539 199.854633 
L 121.195539 199.854633 
L 121.495316 199.854633 
L 121.495316 198.233729 
L 121.645204 198.233729 
L 121.645204 198.233729 
L 121.645204 196.207598 
L 121.795093 196.207598 
L 121.795093 196.207598 
L 121.795093 193.371015 
L 121.944981 193.371015 
L 121.944981 191.750111 
L 121.944981 191.750111 
L 122.09487 191.750111 
L 122.09487 191.344884 
L 122.09487 191.344884 
L 122.244758 191.344884 
L 122.244758 188.103075 
L 122.244758 188.103075 
L 122.694424 188.103075 
L 122.694424 184.45604 
L 122.844312 184.45604 
L 122.844312 183.240362 
L 123.144089 183.240362 
L 123.144089 182.024683 
L 123.893532 182.024683 
L 123.893532 182.024683 
L 123.893532 180.809005 
L 124.04342 180.809005 
L 124.04342 180.809005 
L 124.04342 179.593327 
L 124.04342 179.593327 
L 124.193309 179.593327 
L 124.193309 179.593327 
L 124.193309 179.188101 
L 124.343197 179.188101 
L 124.343197 178.782874 
L 124.343197 178.782874 
L 124.493086 178.782874 
L 124.493086 178.377648 
L 124.942751 178.377648 
L 124.942751 175.946291 
L 124.942751 175.946291 
L 125.092639 175.946291 
L 125.092639 174.730613 
L 125.092639 174.730613 
L 125.242528 174.730613 
L 125.242528 174.730613 
L 125.242528 172.299256 
L 125.392416 172.299256 
L 125.392416 172.299256 
L 125.392416 170.273126 
L 125.542305 170.273126 
L 125.542305 170.273126 
L 125.542305 169.867899 
L 125.842082 169.867899 
L 125.842082 169.867899 
L 125.842082 169.462673 
L 125.842082 169.462673 
L 125.99197 169.462673 
L 125.99197 169.057447 
L 125.99197 169.057447 
L 126.141859 169.057447 
L 126.141859 168.652221 
L 126.291747 168.652221 
L 126.291747 168.652221 
L 126.291747 168.246995 
L 126.441636 168.246995 
L 126.441636 168.246995 
L 126.441636 165.005186 
L 126.891301 165.005186 
L 126.891301 164.59996 
L 126.891301 164.59996 
L 127.04119 164.59996 
L 127.04119 164.194734 
L 127.191078 164.194734 
L 127.191078 163.789508 
L 127.340967 163.789508 
L 127.340967 161.358151 
L 127.340967 161.358151 
L 127.490855 161.358151 
L 127.490855 160.952925 
L 127.94052 160.952925 
L 127.94052 160.952925 
L 127.94052 160.547698 
L 128.090409 160.547698 
L 128.090409 160.547698 
L 128.090409 160.142472 
L 128.240297 160.142472 
L 128.240297 159.737246 
L 128.689963 159.737246 
L 128.689963 158.926794 
L 128.689963 158.926794 
L 128.839851 158.926794 
L 128.839851 158.116342 
L 128.98974 158.116342 
L 128.98974 156.900663 
L 129.139628 156.900663 
L 129.139628 156.900663 
L 129.139628 156.495437 
L 129.289517 156.495437 
L 129.289517 156.495437 
L 129.289517 155.279759 
L 129.589294 155.279759 
L 129.589294 155.279759 
L 129.589294 154.874533 
L 129.589294 154.874533 
L 129.739182 154.874533 
L 129.739182 154.469307 
L 129.739182 154.469307 
L 130.338736 154.469307 
L 130.338736 153.658854 
L 130.338736 153.658854 
L 130.488625 153.658854 
L 130.488625 153.658854 
L 130.488625 152.03795 
L 130.638513 152.03795 
L 130.638513 151.227497 
L 130.93829 151.227497 
L 130.93829 150.822271 
L 131.537844 150.822271 
L 131.537844 150.822271 
L 131.537844 149.606593 
L 131.537844 149.606593 
L 131.987509 149.606593 
L 131.987509 149.201367 
L 132.437175 149.201367 
L 132.437175 148.796141 
L 132.587063 148.796141 
L 132.587063 148.390915 
L 132.587063 148.390915 
L 133.036729 148.390915 
L 133.036729 147.580462 
L 133.036729 147.580462 
L 133.336506 147.580462 
L 133.336506 147.580462 
L 133.336506 146.77001 
L 133.336506 146.77001 
L 134.685502 146.77001 
L 134.685502 145.149106 
L 134.685502 145.149106 
L 134.83539 145.149106 
L 134.83539 144.743879 
L 134.985279 144.743879 
L 134.985279 144.743879 
L 134.985279 143.933427 
L 135.135167 143.933427 
L 135.135167 143.933427 
L 135.135167 143.122975 
L 135.135167 143.122975 
L 135.285056 143.122975 
L 135.285056 142.717749 
L 135.285056 142.717749 
L 135.434944 142.717749 
L 135.434944 142.717749 
L 135.434944 139.47594 
L 135.434944 139.47594 
L 135.584833 139.47594 
L 135.584833 139.47594 
L 135.584833 139.070714 
L 135.584833 139.070714 
L 136.334275 139.070714 
L 136.334275 139.070714 
L 136.334275 138.665487 
L 136.484164 138.665487 
L 136.484164 138.260261 
L 136.933829 138.260261 
L 136.933829 137.044583 
L 136.933829 137.044583 
L 137.383494 137.044583 
L 137.383494 137.044583 
L 137.383494 136.234131 
L 137.383494 136.234131 
L 137.83316 136.234131 
L 137.83316 136.234131 
L 137.83316 135.423678 
L 137.83316 135.423678 
L 138.282825 135.423678 
L 138.282825 135.423678 
L 138.282825 135.018452 
L 138.582602 135.018452 
L 138.582602 134.613226 
L 138.582602 134.613226 
L 140.830929 134.613226 
L 140.830929 134.613226 
L 140.830929 133.802774 
L 141.130706 133.802774 
L 141.130706 133.397548 
L 141.280595 133.397548 
L 141.280595 133.397548 
L 141.280595 132.992322 
L 141.73026 132.992322 
L 141.73026 132.587095 
L 141.73026 132.587095 
L 141.880149 132.587095 
L 141.880149 132.181869 
L 142.179926 132.181869 
L 142.179926 132.181869 
L 142.179926 131.371417 
L 142.179926 131.371417 
L 142.329814 131.371417 
L 142.329814 130.966191 
L 143.67881 130.966191 
L 143.67881 130.966191 
L 143.67881 130.560965 
L 143.67881 130.560965 
L 144.278364 130.560965 
L 144.278364 130.560965 
L 144.278364 130.155739 
L 144.578141 130.155739 
L 144.578141 130.155739 
L 144.578141 129.750513 
L 144.578141 129.750513 
L 144.72803 129.750513 
L 144.72803 129.750513 
L 144.72803 129.345286 
L 144.72803 129.345286 
L 145.327584 129.345286 
L 145.327584 129.345286 
L 145.327584 128.534834 
L 145.477472 128.534834 
L 145.477472 128.534834 
L 145.477472 128.129608 
L 146.526691 128.129608 
L 146.526691 127.724382 
L 147.126245 127.724382 
L 147.126245 127.724382 
L 147.126245 127.319156 
L 147.426022 127.319156 
L 147.426022 126.91393 
L 147.426022 126.91393 
L 150.423792 126.91393 
L 150.423792 126.91393 
L 150.423792 126.508704 
L 151.473011 126.508704 
L 151.473011 126.103477 
L 151.473011 126.103477 
L 151.6229 126.103477 
L 151.6229 126.103477 
L 151.6229 125.698251 
L 151.772788 125.698251 
L 151.772788 125.698251 
L 151.772788 124.887799 
L 152.072565 124.887799 
L 152.072565 124.482573 
L 152.672119 124.482573 
L 152.672119 124.482573 
L 152.672119 124.077347 
L 153.271673 124.077347 
L 153.271673 123.672121 
L 153.271673 123.672121 
L 153.721338 123.672121 
L 153.721338 123.266894 
L 154.320892 123.266894 
L 154.320892 123.266894 
L 154.320892 122.861668 
L 154.470781 122.861668 
L 154.470781 122.861668 
L 154.470781 122.456442 
L 154.770558 122.456442 
L 154.770558 122.456442 
L 154.770558 122.051216 
L 155.220223 122.051216 
L 155.220223 122.051216 
L 155.220223 121.64599 
L 155.819777 121.64599 
L 155.819777 121.64599 
L 155.819777 121.240764 
L 156.119554 121.240764 
L 156.119554 120.835538 
L 156.119554 120.835538 
L 156.719108 120.835538 
L 156.719108 120.835538 
L 156.719108 120.430312 
L 156.719108 120.430312 
L 156.868996 120.430312 
L 156.868996 120.025085 
L 157.018885 120.025085 
L 157.018885 119.619859 
L 158.068104 119.619859 
L 158.068104 119.214633 
L 158.217993 119.214633 
L 158.217993 118.809407 
L 158.667658 118.809407 
L 158.667658 118.809407 
L 158.667658 118.404181 
L 158.667658 118.404181 
L 159.117323 118.404181 
L 159.117323 117.998955 
L 160.46632 117.998955 
L 160.46632 117.593729 
L 163.014424 117.593729 
L 163.014424 117.593729 
L 163.014424 116.37805 
L 163.613978 116.37805 
L 163.613978 115.972824 
L 163.613978 115.972824 
L 163.763866 115.972824 
L 163.763866 115.972824 
L 163.763866 115.567598 
L 163.763866 115.567598 
L 164.962974 115.567598 
L 164.962974 115.567598 
L 164.962974 115.162372 
L 166.012193 115.162372 
L 166.012193 114.757146 
L 166.31197 114.757146 
L 166.31197 114.35192 
L 167.960743 114.35192 
L 167.960743 114.35192 
L 167.960743 113.946693 
L 167.960743 113.946693 
L 168.560297 113.946693 
L 168.560297 113.946693 
L 168.560297 113.541467 
L 168.710186 113.541467 
L 168.710186 113.136241 
L 169.609517 113.136241 
L 169.609517 113.136241 
L 169.609517 112.731015 
L 170.358959 112.731015 
L 170.358959 112.731015 
L 170.358959 112.325789 
L 170.358959 112.325789 
L 172.607286 112.325789 
L 172.607286 112.325789 
L 172.607286 111.920563 
L 173.20684 111.920563 
L 173.20684 111.515337 
L 173.20684 111.515337 
L 173.506617 111.515337 
L 173.506617 111.110111 
L 174.705725 111.110111 
L 174.705725 110.704884 
L 176.654275 110.704884 
L 176.654275 110.299658 
L 179.652045 110.299658 
L 179.652045 109.894432 
L 180.10171 109.894432 
L 180.10171 109.489206 
L 180.551375 109.489206 
L 180.551375 109.489206 
L 180.551375 109.08398 
L 181.450706 109.08398 
L 181.450706 109.08398 
L 181.450706 108.678754 
L 182.05026 108.678754 
L 182.05026 108.273528 
L 182.350037 108.273528 
L 182.350037 107.868302 
L 182.649814 107.868302 
L 182.649814 107.463075 
L 183.99881 107.463075 
L 183.99881 107.463075 
L 183.99881 107.057849 
L 184.148699 107.057849 
L 184.148699 107.057849 
L 184.148699 106.652623 
L 185.497695 106.652623 
L 185.497695 106.652623 
L 185.497695 106.247397 
L 186.097249 106.247397 
L 186.097249 106.247397 
L 186.097249 105.842171 
L 186.247138 105.842171 
L 186.247138 105.842171 
L 186.247138 105.436945 
L 186.546914 105.436945 
L 186.546914 105.031719 
L 186.546914 105.031719 
L 186.696803 105.031719 
L 186.696803 104.626492 
L 186.696803 104.626492 
L 188.345576 104.626492 
L 188.345576 104.626492 
L 188.345576 104.221266 
L 189.095019 104.221266 
L 189.095019 103.81604 
L 189.095019 103.81604 
L 189.244907 103.81604 
L 189.244907 103.410814 
L 189.544684 103.410814 
L 189.544684 103.005588 
L 191.343346 103.005588 
L 191.343346 103.005588 
L 191.343346 102.600362 
L 196.139777 102.600362 
L 196.139777 102.195136 
L 196.589442 102.195136 
L 196.589442 101.78991 
L 197.938439 101.78991 
L 197.938439 100.574231 
L 197.938439 100.574231 
L 200.636431 100.574231 
L 200.636431 99.763779 
L 200.936208 99.763779 
L 200.936208 99.358553 
L 201.685651 99.358553 
L 201.685651 98.953327 
L 203.334424 98.953327 
L 203.334424 98.548101 
L 203.634201 98.548101 
L 203.634201 98.142874 
L 203.634201 98.142874 
L 204.533532 98.142874 
L 204.533532 97.737648 
L 204.68342 97.737648 
L 204.68342 97.737648 
L 204.68342 97.332422 
L 204.68342 97.332422 
L 205.432862 97.332422 
L 205.432862 97.332422 
L 205.432862 96.927196 
L 206.182305 96.927196 
L 206.182305 96.927196 
L 206.182305 96.52197 
L 206.63197 96.52197 
L 206.63197 96.52197 
L 206.63197 96.116744 
L 211.128625 96.116744 
L 211.128625 95.711518 
L 214.126394 95.711518 
L 214.126394 95.711518 
L 214.126394 95.306291 
L 217.723717 95.306291 
L 217.723717 94.901065 
L 224.019033 94.901065 
L 224.019033 94.495839 
L 225.817695 94.495839 
L 225.817695 94.495839 
L 225.817695 94.090613 
L 225.817695 94.090613 
L 231.663346 94.090613 
L 231.663346 93.280161 
L 232.113011 93.280161 
L 232.113011 92.874935 
L 232.2629 92.874935 
L 232.2629 92.469709 
L 232.562677 92.469709 
L 232.562677 91.659256 
L 232.562677 91.659256 
L 233.16223 91.659256 
L 233.16223 91.25403 
L 234.061561 91.25403 
L 234.061561 90.848804 
L 234.661115 90.848804 
L 234.661115 90.038352 
L 237.808773 90.038352 
L 237.808773 90.038352 
L 237.808773 89.633126 
L 239.457546 89.633126 
L 239.457546 89.227899 
L 239.457546 89.227899 
L 240.0571 89.227899 
L 240.0571 89.227899 
L 240.0571 88.417447 
L 241.10632 88.417447 
L 241.10632 87.606995 
L 241.855762 87.606995 
L 241.855762 87.201769 
L 243.654424 87.201769 
L 243.654424 87.201769 
L 243.654424 86.796543 
L 244.104089 86.796543 
L 244.104089 86.796543 
L 244.104089 86.391317 
L 244.403866 86.391317 
L 244.403866 85.98609 
L 248.450855 85.98609 
L 248.450855 85.98609 
L 248.450855 85.580864 
L 250.549294 85.580864 
L 250.549294 85.175638 
L 250.549294 85.175638 
L 250.849071 85.175638 
L 250.849071 84.770412 
L 250.998959 84.770412 
L 250.998959 84.770412 
L 250.998959 84.365186 
L 252.048178 84.365186 
L 252.048178 84.365186 
L 252.048178 83.95996 
L 253.84684 83.95996 
L 253.84684 83.554734 
L 256.095167 83.554734 
L 256.095167 83.554734 
L 256.095167 83.149508 
L 259.242825 83.149508 
L 259.242825 83.149508 
L 259.242825 82.744281 
L 259.992268 82.744281 
L 259.992268 82.744281 
L 259.992268 82.339055 
L 261.191375 82.339055 
L 261.191375 81.933829 
L 264.039257 81.933829 
L 264.039257 81.933829 
L 264.039257 81.528603 
L 264.488922 81.528603 
L 264.488922 81.528603 
L 264.488922 81.123377 
L 264.788699 81.123377 
L 264.788699 80.718151 
L 267.037026 80.718151 
L 267.037026 80.718151 
L 267.037026 80.312925 
L 268.386022 80.312925 
L 268.386022 79.907698 
L 269.735019 79.907698 
L 269.735019 79.502472 
L 271.233903 79.502472 
L 271.233903 79.502472 
L 271.233903 79.097246 
L 273.782007 79.097246 
L 273.782007 79.097246 
L 273.782007 78.69202 
L 273.782007 78.69202 
L 274.381561 78.69202 
L 274.381561 77.881568 
L 274.381561 77.881568 
L 275.280892 77.881568 
L 275.280892 77.881568 
L 275.280892 77.476342 
L 276.180223 77.476342 
L 276.180223 77.476342 
L 276.180223 77.071116 
L 277.079554 77.071116 
L 277.079554 77.071116 
L 277.079554 76.665889 
L 277.229442 76.665889 
L 277.229442 76.665889 
L 277.229442 76.260663 
L 277.229442 76.260663 
L 279.927435 76.260663 
L 279.927435 75.450211 
L 280.077323 75.450211 
L 280.077323 75.450211 
L 280.077323 75.044985 
L 282.475539 75.044985 
L 282.475539 74.234533 
L 282.475539 74.234533 
L 284.723866 74.234533 
L 284.723866 74.234533 
L 284.723866 73.829307 
L 286.522528 73.829307 
L 286.522528 73.42408 
L 292.967732 73.42408 
L 292.967732 73.018854 
L 292.967732 73.018854 
L 294.466617 73.018854 
L 294.466617 73.018854 
L 294.466617 72.613628 
L 298.813383 72.613628 
L 298.813383 72.613628 
L 298.813383 71.803176 
L 298.813383 71.803176 
L 300.911822 71.803176 
L 300.911822 71.39795 
L 302.710483 71.39795 
L 302.710483 71.39795 
L 302.710483 70.992724 
L 304.359257 70.992724 
L 304.359257 70.587497 
L 304.95881 70.587497 
L 304.95881 69.777045 
L 305.858141 69.777045 
L 305.858141 69.777045 
L 305.858141 69.371819 
L 310.354796 69.371819 
L 310.354796 68.966593 
L 311.404015 68.966593 
L 311.404015 68.966593 
L 311.404015 68.561367 
L 311.85368 68.561367 
L 311.85368 68.561367 
L 311.85368 67.750915 
L 311.85368 67.750915 
L 312.303346 67.750915 
L 312.303346 67.345688 
L 315.600892 67.345688 
L 315.600892 67.345688 
L 315.600892 66.940462 
L 318.298885 66.940462 
L 318.298885 66.940462 
L 318.298885 66.535236 
L 319.348104 66.535236 
L 319.348104 66.13001 
L 319.497993 66.13001 
L 319.497993 66.13001 
L 319.497993 65.724784 
L 322.345874 65.724784 
L 322.345874 65.319558 
L 323.095316 65.319558 
L 323.095316 64.914332 
L 324.594201 64.914332 
L 324.594201 64.509106 
L 326.392862 64.509106 
L 326.392862 64.509106 
L 326.392862 64.103879 
L 326.392862 64.103879 
L 332.088625 64.103879 
L 332.088625 63.698653 
L 332.53829 63.698653 
L 332.53829 63.698653 
L 332.53829 63.293427 
L 334.48684 63.293427 
L 334.48684 63.293427 
L 334.48684 62.888201 
L 334.48684 62.888201 
L 334.786617 62.888201 
L 334.786617 62.888201 
L 334.786617 62.482975 
L 336.43539 62.482975 
L 336.43539 61.672523 
L 336.43539 61.672523 
L 339.882825 61.672523 
L 339.882825 60.86207 
L 340.032714 60.86207 
L 340.032714 60.86207 
L 340.032714 60.051618 
L 340.032714 60.051618 
L 342.131152 60.051618 
L 342.131152 59.646392 
L 342.131152 59.646392 
L 344.079703 59.646392 
L 344.079703 59.241166 
L 344.979033 59.241166 
L 344.979033 58.83594 
L 345.878364 58.83594 
L 345.878364 58.025487 
L 346.927584 58.025487 
L 346.927584 58.025487 
L 346.927584 57.620261 
L 351.424238 57.620261 
L 351.424238 56.809809 
L 351.873903 56.809809 
L 351.873903 55.999357 
L 351.873903 55.999357 
L 352.323569 55.999357 
L 352.323569 55.999357 
L 352.323569 55.188905 
L 355.471227 55.188905 
L 355.471227 54.783678 
L 355.471227 54.783678 
L 355.621115 54.783678 
L 355.621115 54.378452 
L 356.370558 54.378452 
L 356.370558 53.568 
L 356.370558 53.568 
L 357.12 53.568 
L 357.12 53.568 
" clip-path="url(#pde68b61473)" style="fill: none; stroke: #1f77b4; stroke-width: 1.5; stroke-linecap: square"/>
   </g>
   <g id="line2d_14">
    <path d="M 138.582602 134.613226 
" clip-path="url(#pde68b61473)" style="fill: none; stroke: #ff0000; stroke-width: 1.5; stroke-linecap: square"/>
    <defs>
     <path id="m614663cc90" d="M 0 3 
C 0.795609 3 1.55874 2.683901 2.12132 2.12132 
C 2.683901 1.55874 3 0.795609 3 0 
C 3 -0.795609 2.683901 -1.55874 2.12132 -2.12132 
C 1.55874 -2.683901 0.795609 -3 0 -3 
C -0.795609 -3 -1.55874 -2.683901 -2.12132 -2.12132 
C -2.683901 -1.55874 -3 -0.795609 -3 0 
C -3 0.795609 -2.683901 1.55874 -2.12132 2.12132 
C -1.55874 2.683901 -0.795609 3 0 3 
z
" style="stroke: #ff0000"/>
    </defs>
    <g clip-path="url(#pde68b61473)">
     <use xlink:href="#m614663cc90" x="138.582602" y="134.613226" style="fill: #ff0000; stroke: #ff0000"/>
    </g>
   </g>
   <g id="patch_3">
    <path d="M 103.104 307.584 
L 103.104 41.472 
" style="fill: none; stroke: #000000; stroke-width: 0.8; stroke-linejoin: miter; stroke-linecap: square"/>
   </g>
   <g id="patch_4">
    <path d="M 369.216 307.584 
L 369.216 41.472 
" style="fill: none; stroke: #000000; stroke-width: 0.8; stroke-linejoin: miter; stroke-linecap: square"/>
   </g>
   <g id="patch_5">
    <path d="M 103.104 307.584 
L 369.216 307.584 
" style="fill: none; stroke: #000000; stroke-width: 0.8; stroke-linejoin: miter; stroke-linecap: square"/>
   </g>
   <g id="patch_6">
    <path d="M 103.104 41.472 
L 369.216 41.472 
" style="fill: none; stroke: #000000; stroke-width: 0.8; stroke-linejoin: miter; stroke-linecap: square"/>
   </g>
   <g id="text_15">
    <!-- AUC = 0.82 -->
    <g transform="translate(115.2 77.76)scale(0.1 -0.1)">
     <defs>
      <path id="DejaVuSans-41" d="M 2188 4044 
L 1331 1722 
L 3047 1722 
L 2188 4044 
z
M 1831 4666 
L 2547 4666 
L 4325 0 
L 3669 0 
L 3244 1197 
L 1141 1197 
L 716 0 
L 50 0 
L 1831 4666 
z
" transform="scale(0.015625)"/>
      <path id="DejaVuSans-55" d="M 556 4666 
L 1191 4666 
L 1191 1831 
Q 1191 1081 1462 751 
Q 1734 422 2344 422 
Q 2950 422 3222 751 
Q 3494 1081 3494 1831 
L 3494 4666 
L 4128 4666 
L 4128 1753 
Q 4128 841 3676 375 
Q 3225 -91 2344 -91 
Q 1459 -91 1007 375 
Q 556 841 556 1753 
L 556 4666 
z
" transform="scale(0.015625)"/>
      <path id="DejaVuSans-43" d="M 4122 4306 
L 4122 3641 
Q 3803 3938 3442 4084 
Q 3081 4231 2675 4231 
Q 1875 4231 1450 3742 
Q 1025 3253 1025 2328 
Q 1025 1406 1450 917 
Q 1875 428 2675 428 
Q 3081 428 3442 575 
Q 3803 722 4122 1019 
L 4122 359 
Q 3791 134 3420 21 
Q 3050 -91 2638 -91 
Q 1578 -91 968 557 
Q 359 1206 359 2328 
Q 359 3453 968 4101 
Q 1578 4750 2638 4750 
Q 3056 4750 3426 4639 
Q 3797 4528 4122 4306 
z
" transform="scale(0.015625)"/>
      <path id="DejaVuSans-20" transform="scale(0.015625)"/>
      <path id="DejaVuSans-3d" d="M 678 2906 
L 4684 2906 
L 4684 2381 
L 678 2381 
L 678 2906 
z
M 678 1631 
L 4684 1631 
L 4684 1100 
L 678 1100 
L 678 1631 
z
" transform="scale(0.015625)"/>
     </defs>
     <use xlink:href="#DejaVuSans-41"/>
     <use xlink:href="#DejaVuSans-55" x="68.408203"/>
     <use xlink:href="#DejaVuSans-43" x="141.601562"/>
     <use xlink:href="#DejaVuSans-20" x="211.425781"/>
     <use xlink:href="#DejaVuSans-3d" x="243.212891"/>
     <use xlink:href="#DejaVuSans-20" x="327.001953"/>
     <use xlink:href="#DejaVuSans-30" x="358.789062"/>
     <use xlink:href="#DejaVuSans-2e" x="422.412109"/>
     <use xlink:href="#DejaVuSans-38" x="454.199219"/>
     <use xlink:href="#DejaVuSans-32" x="517.822266"/>
    </g>
   </g>
   <g id="text_16">
    <!-- Cut-off Point -->
    <g transform="translate(150.678602 148.505601)scale(0.1 -0.1)">
     <defs>
      <path id="DejaVuSans-75" d="M 544 1381 
L 544 3500 
L 1119 3500 
L 1119 1403 
Q 1119 906 1312 657 
Q 1506 409 1894 409 
Q 2359 409 2629 706 
Q 2900 1003 2900 1516 
L 2900 3500 
L 3475 3500 
L 3475 0 
L 2900 0 
L 2900 538 
Q 2691 219 2414 64 
Q 2138 -91 1772 -91 
Q 1169 -91 856 284 
Q 544 659 544 1381 
z
M 1991 3584 
L 1991 3584 
z
" transform="scale(0.015625)"/>
      <path id="DejaVuSans-74" d="M 1172 4494 
L 1172 3500 
L 2356 3500 
L 2356 3053 
L 1172 3053 
L 1172 1153 
Q 1172 725 1289 603 
Q 1406 481 1766 481 
L 2356 481 
L 2356 0 
L 1766 0 
Q 1100 0 847 248 
Q 594 497 594 1153 
L 594 3053 
L 172 3053 
L 172 3500 
L 594 3500 
L 594 4494 
L 1172 4494 
z
" transform="scale(0.015625)"/>
      <path id="DejaVuSans-2d" d="M 313 2009 
L 1997 2009 
L 1997 1497 
L 313 1497 
L 313 2009 
z
" transform="scale(0.015625)"/>
      <path id="DejaVuSans-6f" d="M 1959 3097 
Q 1497 3097 1228 2736 
Q 959 2375 959 1747 
Q 959 1119 1226 758 
Q 1494 397 1959 397 
Q 2419 397 2687 759 
Q 2956 1122 2956 1747 
Q 2956 2369 2687 2733 
Q 2419 3097 1959 3097 
z
M 1959 3584 
Q 2709 3584 3137 3096 
Q 3566 2609 3566 1747 
Q 3566 888 3137 398 
Q 2709 -91 1959 -91 
Q 1206 -91 779 398 
Q 353 888 353 1747 
Q 353 2609 779 3096 
Q 1206 3584 1959 3584 
z
" transform="scale(0.015625)"/>
      <path id="DejaVuSans-66" d="M 2375 4863 
L 2375 4384 
L 1825 4384 
Q 1516 4384 1395 4259 
Q 1275 4134 1275 3809 
L 1275 3500 
L 2222 3500 
L 2222 3053 
L 1275 3053 
L 1275 0 
L 697 0 
L 697 3053 
L 147 3053 
L 147 3500 
L 697 3500 
L 697 3744 
Q 697 4328 969 4595 
Q 1241 4863 1831 4863 
L 2375 4863 
z
" transform="scale(0.015625)"/>
      <path id="DejaVuSans-69" d="M 603 3500 
L 1178 3500 
L 1178 0 
L 603 0 
L 603 3500 
z
M 603 4863 
L 1178 4863 
L 1178 4134 
L 603 4134 
L 603 4863 
z
" transform="scale(0.015625)"/>
      <path id="DejaVuSans-6e" d="M 3513 2113 
L 3513 0 
L 2938 0 
L 2938 2094 
Q 2938 2591 2744 2837 
Q 2550 3084 2163 3084 
Q 1697 3084 1428 2787 
Q 1159 2491 1159 1978 
L 1159 0 
L 581 0 
L 581 3500 
L 1159 3500 
L 1159 2956 
Q 1366 3272 1645 3428 
Q 1925 3584 2291 3584 
Q 2894 3584 3203 3211 
Q 3513 2838 3513 2113 
z
" transform="scale(0.015625)"/>
     </defs>
     <use xlink:href="#DejaVuSans-43"/>
     <use xlink:href="#DejaVuSans-75" x="69.824219"/>
     <use xlink:href="#DejaVuSans-74" x="133.203125"/>
     <use xlink:href="#DejaVuSans-2d" x="172.412109"/>
     <use xlink:href="#DejaVuSans-6f" x="210.371094"/>
     <use xlink:href="#DejaVuSans-66" x="271.552734"/>
     <use xlink:href="#DejaVuSans-66" x="306.757812"/>
     <use xlink:href="#DejaVuSans-20" x="341.962891"/>
     <use xlink:href="#DejaVuSans-50" x="373.75"/>
     <use xlink:href="#DejaVuSans-6f" x="430.427734"/>
     <use xlink:href="#DejaVuSans-69" x="491.609375"/>
     <use xlink:href="#DejaVuSans-6e" x="519.392578"/>
     <use xlink:href="#DejaVuSans-74" x="582.771484"/>
    </g>
    <!-- FPR=0.097 -->
    <g transform="translate(150.678602 159.703414)scale(0.1 -0.1)">
     <defs>
      <path id="DejaVuSans-39" d="M 703 97 
L 703 672 
Q 941 559 1184 500 
Q 1428 441 1663 441 
Q 2288 441 2617 861 
Q 2947 1281 2994 2138 
Q 2813 1869 2534 1725 
Q 2256 1581 1919 1581 
Q 1219 1581 811 2004 
Q 403 2428 403 3163 
Q 403 3881 828 4315 
Q 1253 4750 1959 4750 
Q 2769 4750 3195 4129 
Q 3622 3509 3622 2328 
Q 3622 1225 3098 567 
Q 2575 -91 1691 -91 
Q 1453 -91 1209 -44 
Q 966 3 703 97 
z
M 1959 2075 
Q 2384 2075 2632 2365 
Q 2881 2656 2881 3163 
Q 2881 3666 2632 3958 
Q 2384 4250 1959 4250 
Q 1534 4250 1286 3958 
Q 1038 3666 1038 3163 
Q 1038 2656 1286 2365 
Q 1534 2075 1959 2075 
z
" transform="scale(0.015625)"/>
      <path id="DejaVuSans-37" d="M 525 4666 
L 3525 4666 
L 3525 4397 
L 1831 0 
L 1172 0 
L 2766 4134 
L 525 4134 
L 525 4666 
z
" transform="scale(0.015625)"/>
     </defs>
     <use xlink:href="#DejaVuSans-46"/>
     <use xlink:href="#DejaVuSans-50" x="57.519531"/>
     <use xlink:href="#DejaVuSans-52" x="117.822266"/>
     <use xlink:href="#DejaVuSans-3d" x="187.304688"/>
     <use xlink:href="#DejaVuSans-30" x="271.09375"/>
     <use xlink:href="#DejaVuSans-2e" x="334.716797"/>
     <use xlink:href="#DejaVuSans-30" x="366.503906"/>
     <use xlink:href="#DejaVuSans-39" x="430.126953"/>
     <use xlink:href="#DejaVuSans-37" x="493.75"/>
    </g>
    <!-- TPR=0.665 -->
    <g transform="translate(150.678602 170.901226)scale(0.1 -0.1)">
     <defs>
      <path id="DejaVuSans-35" d="M 691 4666 
L 3169 4666 
L 3169 4134 
L 1269 4134 
L 1269 2991 
Q 1406 3038 1543 3061 
Q 1681 3084 1819 3084 
Q 2600 3084 3056 2656 
Q 3513 2228 3513 1497 
Q 3513 744 3044 326 
Q 2575 -91 1722 -91 
Q 1428 -91 1123 -41 
Q 819 9 494 109 
L 494 744 
Q 775 591 1075 516 
Q 1375 441 1709 441 
Q 2250 441 2565 725 
Q 2881 1009 2881 1497 
Q 2881 1984 2565 2268 
Q 2250 2553 1709 2553 
Q 1456 2553 1204 2497 
Q 953 2441 691 2322 
L 691 4666 
z
" transform="scale(0.015625)"/>
     </defs>
     <use xlink:href="#DejaVuSans-54"/>
     <use xlink:href="#DejaVuSans-50" x="61.083984"/>
     <use xlink:href="#DejaVuSans-52" x="121.386719"/>
     <use xlink:href="#DejaVuSans-3d" x="190.869141"/>
     <use xlink:href="#DejaVuSans-30" x="274.658203"/>
     <use xlink:href="#DejaVuSans-2e" x="338.28125"/>
     <use xlink:href="#DejaVuSans-36" x="370.068359"/>
     <use xlink:href="#DejaVuSans-36" x="433.691406"/>
     <use xlink:href="#DejaVuSans-35" x="497.314453"/>
    </g>
   </g>
   <g id="text_17">
    <!-- ROC_Ratio_132C_129N -->
    <g transform="translate(167.093438 35.472)scale(0.12 -0.12)">
     <defs>
      <path id="DejaVuSans-4f" d="M 2522 4238 
Q 1834 4238 1429 3725 
Q 1025 3213 1025 2328 
Q 1025 1447 1429 934 
Q 1834 422 2522 422 
Q 3209 422 3611 934 
Q 4013 1447 4013 2328 
Q 4013 3213 3611 3725 
Q 3209 4238 2522 4238 
z
M 2522 4750 
Q 3503 4750 4090 4092 
Q 4678 3434 4678 2328 
Q 4678 1225 4090 567 
Q 3503 -91 2522 -91 
Q 1538 -91 948 565 
Q 359 1222 359 2328 
Q 359 3434 948 4092 
Q 1538 4750 2522 4750 
z
" transform="scale(0.015625)"/>
      <path id="DejaVuSans-5f" d="M 3263 -1063 
L 3263 -1509 
L -63 -1509 
L -63 -1063 
L 3263 -1063 
z
" transform="scale(0.015625)"/>
      <path id="DejaVuSans-61" d="M 2194 1759 
Q 1497 1759 1228 1600 
Q 959 1441 959 1056 
Q 959 750 1161 570 
Q 1363 391 1709 391 
Q 2188 391 2477 730 
Q 2766 1069 2766 1631 
L 2766 1759 
L 2194 1759 
z
M 3341 1997 
L 3341 0 
L 2766 0 
L 2766 531 
Q 2569 213 2275 61 
Q 1981 -91 1556 -91 
Q 1019 -91 701 211 
Q 384 513 384 1019 
Q 384 1609 779 1909 
Q 1175 2209 1959 2209 
L 2766 2209 
L 2766 2266 
Q 2766 2663 2505 2880 
Q 2244 3097 1772 3097 
Q 1472 3097 1187 3025 
Q 903 2953 641 2809 
L 641 3341 
Q 956 3463 1253 3523 
Q 1550 3584 1831 3584 
Q 2591 3584 2966 3190 
Q 3341 2797 3341 1997 
z
" transform="scale(0.015625)"/>
      <path id="DejaVuSans-33" d="M 2597 2516 
Q 3050 2419 3304 2112 
Q 3559 1806 3559 1356 
Q 3559 666 3084 287 
Q 2609 -91 1734 -91 
Q 1441 -91 1130 -33 
Q 819 25 488 141 
L 488 750 
Q 750 597 1062 519 
Q 1375 441 1716 441 
Q 2309 441 2620 675 
Q 2931 909 2931 1356 
Q 2931 1769 2642 2001 
Q 2353 2234 1838 2234 
L 1294 2234 
L 1294 2753 
L 1863 2753 
Q 2328 2753 2575 2939 
Q 2822 3125 2822 3475 
Q 2822 3834 2567 4026 
Q 2313 4219 1838 4219 
Q 1578 4219 1281 4162 
Q 984 4106 628 3988 
L 628 4550 
Q 988 4650 1302 4700 
Q 1616 4750 1894 4750 
Q 2613 4750 3031 4423 
Q 3450 4097 3450 3541 
Q 3450 3153 3228 2886 
Q 3006 2619 2597 2516 
z
" transform="scale(0.015625)"/>
      <path id="DejaVuSans-4e" d="M 628 4666 
L 1478 4666 
L 3547 763 
L 3547 4666 
L 4159 4666 
L 4159 0 
L 3309 0 
L 1241 3903 
L 1241 0 
L 628 0 
L 628 4666 
z
" transform="scale(0.015625)"/>
     </defs>
     <use xlink:href="#DejaVuSans-52"/>
     <use xlink:href="#DejaVuSans-4f" x="69.482422"/>
     <use xlink:href="#DejaVuSans-43" x="148.193359"/>
     <use xlink:href="#DejaVuSans-5f" x="218.017578"/>
     <use xlink:href="#DejaVuSans-52" x="268.017578"/>
     <use xlink:href="#DejaVuSans-61" x="335.25"/>
     <use xlink:href="#DejaVuSans-74" x="396.529297"/>
     <use xlink:href="#DejaVuSans-69" x="435.738281"/>
     <use xlink:href="#DejaVuSans-6f" x="463.521484"/>
     <use xlink:href="#DejaVuSans-5f" x="524.703125"/>
     <use xlink:href="#DejaVuSans-31" x="574.703125"/>
     <use xlink:href="#DejaVuSans-33" x="638.326172"/>
     <use xlink:href="#DejaVuSans-32" x="701.949219"/>
     <use xlink:href="#DejaVuSans-43" x="765.572266"/>
     <use xlink:href="#DejaVuSans-5f" x="835.396484"/>
     <use xlink:href="#DejaVuSans-31" x="885.396484"/>
     <use xlink:href="#DejaVuSans-32" x="949.019531"/>
     <use xlink:href="#DejaVuSans-39" x="1012.642578"/>
     <use xlink:href="#DejaVuSans-4e" x="1076.265625"/>
    </g>
   </g>
  </g>
 </g>
 <defs>
  <clipPath id="pde68b61473">
   <rect x="103.104" y="41.472" width="266.112" height="266.112"/>
  </clipPath>
 </defs>
</svg>
