<?xml version="1.0" encoding="utf-8" standalone="no"?>
<!DOCTYPE svg PUBLIC "-//W3C//DTD SVG 1.1//EN"
  "http://www.w3.org/Graphics/SVG/1.1/DTD/svg11.dtd">
<svg xmlns:xlink="http://www.w3.org/1999/xlink" width="460.8pt" height="345.6pt" viewBox="0 0 460.8 345.6" xmlns="http://www.w3.org/2000/svg" version="1.1">
 <metadata>
  <rdf:RDF xmlns:dc="http://purl.org/dc/elements/1.1/" xmlns:cc="http://creativecommons.org/ns#" xmlns:rdf="http://www.w3.org/1999/02/22-rdf-syntax-ns#">
   <cc:Work>
    <dc:type rdf:resource="http://purl.org/dc/dcmitype/StillImage"/>
    <dc:date>2022-11-16T18:28:46.552792</dc:date>
    <dc:format>image/svg+xml</dc:format>
    <dc:creator>
     <cc:Agent>
      <dc:title>Matplotlib v3.5.1, https://matplotlib.org/</dc:title>
     </cc:Agent>
    </dc:creator>
   </cc:Work>
  </rdf:RDF>
 </metadata>
 <defs>
  <style type="text/css">*{stroke-linejoin: round; stroke-linecap: butt}</style>
 </defs>
 <g id="figure_1">
  <g id="patch_1">
   <path d="M 0 345.6 
L 460.8 345.6 
L 460.8 0 
L 0 0 
z
" style="fill: #ffffff"/>
  </g>
  <g id="axes_1">
   <g id="patch_2">
    <path d="M 103.104 307.584 
L 369.216 307.584 
L 369.216 41.472 
L 103.104 41.472 
z
" style="fill: #ffffff"/>
   </g>
   <g id="matplotlib.axis_1">
    <g id="xtick_1">
     <g id="line2d_1">
      <defs>
       <path id="m61a9f8f6c6" d="M 0 0 
L 0 3.5 
" style="stroke: #000000; stroke-width: 0.8"/>
      </defs>
      <g>
       <use xlink:href="#m61a9f8f6c6" x="115.2" y="307.584" style="stroke: #000000; stroke-width: 0.8"/>
      </g>
     </g>
     <g id="text_1">
      <!-- 0.0 -->
      <g transform="translate(107.248438 322.182437)scale(0.1 -0.1)">
       <defs>
        <path id="DejaVuSans-30" d="M 2034 4250 
Q 1547 4250 1301 3770 
Q 1056 3291 1056 2328 
Q 1056 1369 1301 889 
Q 1547 409 2034 409 
Q 2525 409 2770 889 
Q 3016 1369 3016 2328 
Q 3016 3291 2770 3770 
Q 2525 4250 2034 4250 
z
M 2034 4750 
Q 2819 4750 3233 4129 
Q 3647 3509 3647 2328 
Q 3647 1150 3233 529 
Q 2819 -91 2034 -91 
Q 1250 -91 836 529 
Q 422 1150 422 2328 
Q 422 3509 836 4129 
Q 1250 4750 2034 4750 
z
" transform="scale(0.015625)"/>
        <path id="DejaVuSans-2e" d="M 684 794 
L 1344 794 
L 1344 0 
L 684 0 
L 684 794 
z
" transform="scale(0.015625)"/>
       </defs>
       <use xlink:href="#DejaVuSans-30"/>
       <use xlink:href="#DejaVuSans-2e" x="63.623047"/>
       <use xlink:href="#DejaVuSans-30" x="95.410156"/>
      </g>
     </g>
    </g>
    <g id="xtick_2">
     <g id="line2d_2">
      <g>
       <use xlink:href="#m61a9f8f6c6" x="163.584" y="307.584" style="stroke: #000000; stroke-width: 0.8"/>
      </g>
     </g>
     <g id="text_2">
      <!-- 0.2 -->
      <g transform="translate(155.632438 322.182437)scale(0.1 -0.1)">
       <defs>
        <path id="DejaVuSans-32" d="M 1228 531 
L 3431 531 
L 3431 0 
L 469 0 
L 469 531 
Q 828 903 1448 1529 
Q 2069 2156 2228 2338 
Q 2531 2678 2651 2914 
Q 2772 3150 2772 3378 
Q 2772 3750 2511 3984 
Q 2250 4219 1831 4219 
Q 1534 4219 1204 4116 
Q 875 4013 500 3803 
L 500 4441 
Q 881 4594 1212 4672 
Q 1544 4750 1819 4750 
Q 2544 4750 2975 4387 
Q 3406 4025 3406 3419 
Q 3406 3131 3298 2873 
Q 3191 2616 2906 2266 
Q 2828 2175 2409 1742 
Q 1991 1309 1228 531 
z
" transform="scale(0.015625)"/>
       </defs>
       <use xlink:href="#DejaVuSans-30"/>
       <use xlink:href="#DejaVuSans-2e" x="63.623047"/>
       <use xlink:href="#DejaVuSans-32" x="95.410156"/>
      </g>
     </g>
    </g>
    <g id="xtick_3">
     <g id="line2d_3">
      <g>
       <use xlink:href="#m61a9f8f6c6" x="211.968" y="307.584" style="stroke: #000000; stroke-width: 0.8"/>
      </g>
     </g>
     <g id="text_3">
      <!-- 0.4 -->
      <g transform="translate(204.016438 322.182437)scale(0.1 -0.1)">
       <defs>
        <path id="DejaVuSans-34" d="M 2419 4116 
L 825 1625 
L 2419 1625 
L 2419 4116 
z
M 2253 4666 
L 3047 4666 
L 3047 1625 
L 3713 1625 
L 3713 1100 
L 3047 1100 
L 3047 0 
L 2419 0 
L 2419 1100 
L 313 1100 
L 313 1709 
L 2253 4666 
z
" transform="scale(0.015625)"/>
       </defs>
       <use xlink:href="#DejaVuSans-30"/>
       <use xlink:href="#DejaVuSans-2e" x="63.623047"/>
       <use xlink:href="#DejaVuSans-34" x="95.410156"/>
      </g>
     </g>
    </g>
    <g id="xtick_4">
     <g id="line2d_4">
      <g>
       <use xlink:href="#m61a9f8f6c6" x="260.352" y="307.584" style="stroke: #000000; stroke-width: 0.8"/>
      </g>
     </g>
     <g id="text_4">
      <!-- 0.6 -->
      <g transform="translate(252.400438 322.182437)scale(0.1 -0.1)">
       <defs>
        <path id="DejaVuSans-36" d="M 2113 2584 
Q 1688 2584 1439 2293 
Q 1191 2003 1191 1497 
Q 1191 994 1439 701 
Q 1688 409 2113 409 
Q 2538 409 2786 701 
Q 3034 994 3034 1497 
Q 3034 2003 2786 2293 
Q 2538 2584 2113 2584 
z
M 3366 4563 
L 3366 3988 
Q 3128 4100 2886 4159 
Q 2644 4219 2406 4219 
Q 1781 4219 1451 3797 
Q 1122 3375 1075 2522 
Q 1259 2794 1537 2939 
Q 1816 3084 2150 3084 
Q 2853 3084 3261 2657 
Q 3669 2231 3669 1497 
Q 3669 778 3244 343 
Q 2819 -91 2113 -91 
Q 1303 -91 875 529 
Q 447 1150 447 2328 
Q 447 3434 972 4092 
Q 1497 4750 2381 4750 
Q 2619 4750 2861 4703 
Q 3103 4656 3366 4563 
z
" transform="scale(0.015625)"/>
       </defs>
       <use xlink:href="#DejaVuSans-30"/>
       <use xlink:href="#DejaVuSans-2e" x="63.623047"/>
       <use xlink:href="#DejaVuSans-36" x="95.410156"/>
      </g>
     </g>
    </g>
    <g id="xtick_5">
     <g id="line2d_5">
      <g>
       <use xlink:href="#m61a9f8f6c6" x="308.736" y="307.584" style="stroke: #000000; stroke-width: 0.8"/>
      </g>
     </g>
     <g id="text_5">
      <!-- 0.8 -->
      <g transform="translate(300.784437 322.182437)scale(0.1 -0.1)">
       <defs>
        <path id="DejaVuSans-38" d="M 2034 2216 
Q 1584 2216 1326 1975 
Q 1069 1734 1069 1313 
Q 1069 891 1326 650 
Q 1584 409 2034 409 
Q 2484 409 2743 651 
Q 3003 894 3003 1313 
Q 3003 1734 2745 1975 
Q 2488 2216 2034 2216 
z
M 1403 2484 
Q 997 2584 770 2862 
Q 544 3141 544 3541 
Q 544 4100 942 4425 
Q 1341 4750 2034 4750 
Q 2731 4750 3128 4425 
Q 3525 4100 3525 3541 
Q 3525 3141 3298 2862 
Q 3072 2584 2669 2484 
Q 3125 2378 3379 2068 
Q 3634 1759 3634 1313 
Q 3634 634 3220 271 
Q 2806 -91 2034 -91 
Q 1263 -91 848 271 
Q 434 634 434 1313 
Q 434 1759 690 2068 
Q 947 2378 1403 2484 
z
M 1172 3481 
Q 1172 3119 1398 2916 
Q 1625 2713 2034 2713 
Q 2441 2713 2670 2916 
Q 2900 3119 2900 3481 
Q 2900 3844 2670 4047 
Q 2441 4250 2034 4250 
Q 1625 4250 1398 4047 
Q 1172 3844 1172 3481 
z
" transform="scale(0.015625)"/>
       </defs>
       <use xlink:href="#DejaVuSans-30"/>
       <use xlink:href="#DejaVuSans-2e" x="63.623047"/>
       <use xlink:href="#DejaVuSans-38" x="95.410156"/>
      </g>
     </g>
    </g>
    <g id="xtick_6">
     <g id="line2d_6">
      <g>
       <use xlink:href="#m61a9f8f6c6" x="357.12" y="307.584" style="stroke: #000000; stroke-width: 0.8"/>
      </g>
     </g>
     <g id="text_6">
      <!-- 1.0 -->
      <g transform="translate(349.168438 322.182437)scale(0.1 -0.1)">
       <defs>
        <path id="DejaVuSans-31" d="M 794 531 
L 1825 531 
L 1825 4091 
L 703 3866 
L 703 4441 
L 1819 4666 
L 2450 4666 
L 2450 531 
L 3481 531 
L 3481 0 
L 794 0 
L 794 531 
z
" transform="scale(0.015625)"/>
       </defs>
       <use xlink:href="#DejaVuSans-31"/>
       <use xlink:href="#DejaVuSans-2e" x="63.623047"/>
       <use xlink:href="#DejaVuSans-30" x="95.410156"/>
      </g>
     </g>
    </g>
    <g id="text_7">
     <!-- FPR -->
     <g transform="translate(226.795156 335.860562)scale(0.1 -0.1)">
      <defs>
       <path id="DejaVuSans-46" d="M 628 4666 
L 3309 4666 
L 3309 4134 
L 1259 4134 
L 1259 2759 
L 3109 2759 
L 3109 2228 
L 1259 2228 
L 1259 0 
L 628 0 
L 628 4666 
z
" transform="scale(0.015625)"/>
       <path id="DejaVuSans-50" d="M 1259 4147 
L 1259 2394 
L 2053 2394 
Q 2494 2394 2734 2622 
Q 2975 2850 2975 3272 
Q 2975 3691 2734 3919 
Q 2494 4147 2053 4147 
L 1259 4147 
z
M 628 4666 
L 2053 4666 
Q 2838 4666 3239 4311 
Q 3641 3956 3641 3272 
Q 3641 2581 3239 2228 
Q 2838 1875 2053 1875 
L 1259 1875 
L 1259 0 
L 628 0 
L 628 4666 
z
" transform="scale(0.015625)"/>
       <path id="DejaVuSans-52" d="M 2841 2188 
Q 3044 2119 3236 1894 
Q 3428 1669 3622 1275 
L 4263 0 
L 3584 0 
L 2988 1197 
Q 2756 1666 2539 1819 
Q 2322 1972 1947 1972 
L 1259 1972 
L 1259 0 
L 628 0 
L 628 4666 
L 2053 4666 
Q 2853 4666 3247 4331 
Q 3641 3997 3641 3322 
Q 3641 2881 3436 2590 
Q 3231 2300 2841 2188 
z
M 1259 4147 
L 1259 2491 
L 2053 2491 
Q 2509 2491 2742 2702 
Q 2975 2913 2975 3322 
Q 2975 3731 2742 3939 
Q 2509 4147 2053 4147 
L 1259 4147 
z
" transform="scale(0.015625)"/>
      </defs>
      <use xlink:href="#DejaVuSans-46"/>
      <use xlink:href="#DejaVuSans-50" x="57.519531"/>
      <use xlink:href="#DejaVuSans-52" x="117.822266"/>
     </g>
    </g>
   </g>
   <g id="matplotlib.axis_2">
    <g id="ytick_1">
     <g id="line2d_7">
      <defs>
       <path id="m6136e622a7" d="M 0 0 
L -3.5 0 
" style="stroke: #000000; stroke-width: 0.8"/>
      </defs>
      <g>
       <use xlink:href="#m6136e622a7" x="103.104" y="295.488" style="stroke: #000000; stroke-width: 0.8"/>
      </g>
     </g>
     <g id="text_8">
      <!-- 0.0 -->
      <g transform="translate(80.200875 299.287219)scale(0.1 -0.1)">
       <use xlink:href="#DejaVuSans-30"/>
       <use xlink:href="#DejaVuSans-2e" x="63.623047"/>
       <use xlink:href="#DejaVuSans-30" x="95.410156"/>
      </g>
     </g>
    </g>
    <g id="ytick_2">
     <g id="line2d_8">
      <g>
       <use xlink:href="#m6136e622a7" x="103.104" y="247.104" style="stroke: #000000; stroke-width: 0.8"/>
      </g>
     </g>
     <g id="text_9">
      <!-- 0.2 -->
      <g transform="translate(80.200875 250.903219)scale(0.1 -0.1)">
       <use xlink:href="#DejaVuSans-30"/>
       <use xlink:href="#DejaVuSans-2e" x="63.623047"/>
       <use xlink:href="#DejaVuSans-32" x="95.410156"/>
      </g>
     </g>
    </g>
    <g id="ytick_3">
     <g id="line2d_9">
      <g>
       <use xlink:href="#m6136e622a7" x="103.104" y="198.72" style="stroke: #000000; stroke-width: 0.8"/>
      </g>
     </g>
     <g id="text_10">
      <!-- 0.4 -->
      <g transform="translate(80.200875 202.519219)scale(0.1 -0.1)">
       <use xlink:href="#DejaVuSans-30"/>
       <use xlink:href="#DejaVuSans-2e" x="63.623047"/>
       <use xlink:href="#DejaVuSans-34" x="95.410156"/>
      </g>
     </g>
    </g>
    <g id="ytick_4">
     <g id="line2d_10">
      <g>
       <use xlink:href="#m6136e622a7" x="103.104" y="150.336" style="stroke: #000000; stroke-width: 0.8"/>
      </g>
     </g>
     <g id="text_11">
      <!-- 0.6 -->
      <g transform="translate(80.200875 154.135219)scale(0.1 -0.1)">
       <use xlink:href="#DejaVuSans-30"/>
       <use xlink:href="#DejaVuSans-2e" x="63.623047"/>
       <use xlink:href="#DejaVuSans-36" x="95.410156"/>
      </g>
     </g>
    </g>
    <g id="ytick_5">
     <g id="line2d_11">
      <g>
       <use xlink:href="#m6136e622a7" x="103.104" y="101.952" style="stroke: #000000; stroke-width: 0.8"/>
      </g>
     </g>
     <g id="text_12">
      <!-- 0.8 -->
      <g transform="translate(80.200875 105.751219)scale(0.1 -0.1)">
       <use xlink:href="#DejaVuSans-30"/>
       <use xlink:href="#DejaVuSans-2e" x="63.623047"/>
       <use xlink:href="#DejaVuSans-38" x="95.410156"/>
      </g>
     </g>
    </g>
    <g id="ytick_6">
     <g id="line2d_12">
      <g>
       <use xlink:href="#m6136e622a7" x="103.104" y="53.568" style="stroke: #000000; stroke-width: 0.8"/>
      </g>
     </g>
     <g id="text_13">
      <!-- 1.0 -->
      <g transform="translate(80.200875 57.367219)scale(0.1 -0.1)">
       <use xlink:href="#DejaVuSans-31"/>
       <use xlink:href="#DejaVuSans-2e" x="63.623047"/>
       <use xlink:href="#DejaVuSans-30" x="95.410156"/>
      </g>
     </g>
    </g>
    <g id="text_14">
     <!-- TPR -->
     <g transform="translate(74.121188 184.070969)rotate(-90)scale(0.1 -0.1)">
      <defs>
       <path id="DejaVuSans-54" d="M -19 4666 
L 3928 4666 
L 3928 4134 
L 2272 4134 
L 2272 0 
L 1638 0 
L 1638 4134 
L -19 4134 
L -19 4666 
z
" transform="scale(0.015625)"/>
      </defs>
      <use xlink:href="#DejaVuSans-54"/>
      <use xlink:href="#DejaVuSans-50" x="61.083984"/>
      <use xlink:href="#DejaVuSans-52" x="121.386719"/>
     </g>
    </g>
   </g>
   <g id="line2d_13">
    <path d="M 115.2 295.488 
L 115.949442 295.488 
L 115.949442 295.488 
L 115.949442 295.082774 
L 115.949442 295.082774 
L 116.099331 295.082774 
L 116.099331 287.788704 
L 116.249219 287.788704 
L 116.249219 278.063276 
L 116.399108 278.063276 
L 116.399108 278.063276 
L 116.399108 277.65805 
L 116.548996 277.65805 
L 116.548996 268.743075 
L 116.548996 268.743075 
L 116.698885 268.743075 
L 116.698885 268.743075 
L 116.698885 267.932623 
L 116.698885 267.932623 
L 116.848773 267.932623 
L 116.848773 265.09604 
L 116.998662 265.09604 
L 116.998662 265.09604 
L 116.998662 263.475136 
L 117.14855 263.475136 
L 117.14855 254.154935 
L 117.14855 254.154935 
L 117.298439 254.154935 
L 117.298439 245.23996 
L 117.448327 245.23996 
L 117.448327 240.782472 
L 117.598216 240.782472 
L 117.598216 240.782472 
L 117.598216 239.97202 
L 117.748104 239.97202 
L 117.748104 235.919759 
L 117.897993 235.919759 
L 117.897993 235.919759 
L 117.897993 235.109307 
L 118.047881 235.109307 
L 118.047881 233.488402 
L 118.047881 233.488402 
L 118.19777 233.488402 
L 118.19777 233.488402 
L 118.19777 230.651819 
L 118.497546 230.651819 
L 118.497546 227.815236 
L 118.497546 227.815236 
L 118.647435 227.815236 
L 118.647435 222.547296 
L 118.647435 222.547296 
L 118.797323 222.547296 
L 118.797323 219.305487 
L 118.797323 219.305487 
L 118.947212 219.305487 
L 118.947212 216.468905 
L 119.0971 216.468905 
L 119.0971 215.253226 
L 119.246989 215.253226 
L 119.246989 215.253226 
L 119.246989 212.821869 
L 119.246989 212.821869 
L 119.396877 212.821869 
L 119.396877 212.821869 
L 119.396877 212.011417 
L 119.396877 212.011417 
L 119.546766 212.011417 
L 119.546766 210.390513 
L 119.546766 210.390513 
L 119.696654 210.390513 
L 119.696654 205.933025 
L 119.846543 205.933025 
L 119.846543 205.933025 
L 119.846543 205.527799 
L 119.996431 205.527799 
L 119.996431 203.096442 
L 120.14632 203.096442 
L 120.14632 203.096442 
L 120.14632 202.28599 
L 120.446097 202.28599 
L 120.446097 201.070312 
L 120.595985 201.070312 
L 120.595985 201.070312 
L 120.595985 199.044181 
L 120.595985 199.044181 
L 121.195539 199.044181 
L 121.195539 199.044181 
L 121.195539 196.207598 
L 121.195539 196.207598 
L 121.345428 196.207598 
L 121.345428 195.397146 
L 121.495316 195.397146 
L 121.495316 194.99192 
L 121.645204 194.99192 
L 121.645204 191.750111 
L 121.645204 191.750111 
L 121.795093 191.750111 
L 121.795093 190.939658 
L 122.09487 190.939658 
L 122.09487 190.939658 
L 122.09487 190.129206 
L 122.244758 190.129206 
L 122.244758 189.72398 
L 122.394647 189.72398 
L 122.394647 189.72398 
L 122.394647 188.913528 
L 122.394647 188.913528 
L 122.544535 188.913528 
L 122.544535 188.508302 
L 122.544535 188.508302 
L 122.694424 188.508302 
L 122.694424 188.508302 
L 122.694424 186.482171 
L 122.694424 186.482171 
L 122.844312 186.482171 
L 122.844312 186.482171 
L 122.844312 185.266492 
L 122.994201 185.266492 
L 122.994201 185.266492 
L 122.994201 184.45604 
L 123.293978 184.45604 
L 123.293978 183.645588 
L 123.593755 183.645588 
L 123.593755 182.835136 
L 123.893532 182.835136 
L 123.893532 182.835136 
L 123.893532 182.024683 
L 124.04342 182.024683 
L 124.04342 181.214231 
L 124.343197 181.214231 
L 124.343197 179.188101 
L 124.493086 179.188101 
L 124.493086 179.188101 
L 124.493086 176.351518 
L 124.642974 176.351518 
L 124.642974 176.351518 
L 124.642974 174.730613 
L 124.642974 174.730613 
L 125.092639 174.730613 
L 125.092639 173.514935 
L 125.242528 173.514935 
L 125.242528 172.299256 
L 125.392416 172.299256 
L 125.392416 171.083578 
L 125.542305 171.083578 
L 125.542305 171.083578 
L 125.542305 170.678352 
L 125.542305 170.678352 
L 125.692193 170.678352 
L 125.692193 170.678352 
L 125.692193 169.867899 
L 125.99197 169.867899 
L 125.99197 168.652221 
L 126.141859 168.652221 
L 126.141859 168.652221 
L 126.141859 167.841769 
L 126.291747 167.841769 
L 126.291747 165.815638 
L 126.291747 165.815638 
L 126.591524 165.815638 
L 126.591524 165.005186 
L 126.591524 165.005186 
L 126.891301 165.005186 
L 126.891301 164.194734 
L 127.04119 164.194734 
L 127.04119 164.194734 
L 127.04119 163.384281 
L 127.04119 163.384281 
L 127.340967 163.384281 
L 127.340967 163.384281 
L 127.340967 162.573829 
L 127.340967 162.573829 
L 127.490855 162.573829 
L 127.490855 162.573829 
L 127.490855 161.763377 
L 127.790632 161.763377 
L 127.790632 161.763377 
L 127.790632 161.358151 
L 128.090409 161.358151 
L 128.090409 160.952925 
L 128.090409 160.952925 
L 128.240297 160.952925 
L 128.240297 158.521568 
L 128.390186 158.521568 
L 128.390186 158.521568 
L 128.390186 158.116342 
L 128.540074 158.116342 
L 128.540074 158.116342 
L 128.540074 157.305889 
L 128.98974 157.305889 
L 128.98974 156.090211 
L 128.98974 156.090211 
L 129.289517 156.090211 
L 129.289517 153.658854 
L 129.739182 153.658854 
L 129.739182 153.658854 
L 129.739182 153.253628 
L 129.889071 153.253628 
L 129.889071 153.253628 
L 129.889071 151.632724 
L 129.889071 151.632724 
L 130.488625 151.632724 
L 130.488625 151.227497 
L 130.788401 151.227497 
L 130.788401 150.822271 
L 130.93829 150.822271 
L 130.93829 150.822271 
L 130.93829 150.417045 
L 131.238067 150.417045 
L 131.238067 150.417045 
L 131.238067 149.201367 
L 131.387955 149.201367 
L 131.387955 147.580462 
L 131.687732 147.580462 
L 131.687732 146.77001 
L 131.837621 146.77001 
L 131.837621 146.77001 
L 131.837621 146.364784 
L 131.987509 146.364784 
L 131.987509 145.959558 
L 132.437175 145.959558 
L 132.437175 145.959558 
L 132.437175 145.554332 
L 132.88684 145.554332 
L 132.88684 145.554332 
L 132.88684 144.338653 
L 133.186617 144.338653 
L 133.186617 144.338653 
L 133.186617 143.933427 
L 133.486394 143.933427 
L 133.486394 143.933427 
L 133.486394 142.717749 
L 133.486394 142.717749 
L 134.085948 142.717749 
L 134.085948 142.312523 
L 134.235836 142.312523 
L 134.235836 142.312523 
L 134.235836 141.096844 
L 134.535613 141.096844 
L 134.535613 141.096844 
L 134.535613 140.691618 
L 134.985279 140.691618 
L 134.985279 139.881166 
L 136.334275 139.881166 
L 136.334275 139.881166 
L 136.334275 138.665487 
L 136.334275 138.665487 
L 136.933829 138.665487 
L 136.933829 138.665487 
L 136.933829 137.855035 
L 137.083717 137.855035 
L 137.083717 137.044583 
L 137.983048 137.044583 
L 137.983048 136.639357 
L 138.132937 136.639357 
L 138.132937 136.639357 
L 138.132937 136.234131 
L 138.432714 136.234131 
L 138.432714 136.234131 
L 138.432714 135.828905 
L 138.582602 135.828905 
L 138.582602 135.828905 
L 138.582602 135.423678 
L 139.631822 135.423678 
L 139.631822 135.423678 
L 139.631822 135.018452 
L 139.631822 135.018452 
L 140.081487 135.018452 
L 140.081487 135.018452 
L 140.081487 134.613226 
L 140.231375 134.613226 
L 140.231375 134.208 
L 140.830929 134.208 
L 140.830929 134.208 
L 140.830929 133.397548 
L 141.280595 133.397548 
L 141.280595 132.992322 
L 141.280595 132.992322 
L 141.73026 132.992322 
L 141.73026 131.776643 
L 142.179926 131.776643 
L 142.179926 131.776643 
L 142.179926 131.371417 
L 143.978587 131.371417 
L 143.978587 130.966191 
L 144.877918 130.966191 
L 144.877918 130.560965 
L 145.327584 130.560965 
L 145.327584 130.155739 
L 145.477472 130.155739 
L 145.477472 129.750513 
L 145.477472 129.750513 
L 145.627361 129.750513 
L 145.627361 129.750513 
L 145.627361 129.345286 
L 145.777249 129.345286 
L 145.777249 128.129608 
L 146.077026 128.129608 
L 146.077026 127.724382 
L 146.526691 127.724382 
L 146.526691 126.91393 
L 146.67658 126.91393 
L 146.67658 126.91393 
L 146.67658 126.508704 
L 146.976357 126.508704 
L 146.976357 126.103477 
L 146.976357 126.103477 
L 147.126245 126.103477 
L 147.126245 124.482573 
L 147.725799 124.482573 
L 147.725799 124.077347 
L 147.875688 124.077347 
L 147.875688 124.077347 
L 147.875688 123.672121 
L 148.025576 123.672121 
L 148.025576 122.861668 
L 148.025576 122.861668 
L 148.325353 122.861668 
L 148.325353 122.456442 
L 149.074796 122.456442 
L 149.074796 121.64599 
L 151.173234 121.64599 
L 151.173234 121.240764 
L 151.173234 121.240764 
L 152.372342 121.240764 
L 152.372342 121.240764 
L 152.372342 120.835538 
L 152.822007 120.835538 
L 152.822007 120.430312 
L 153.871227 120.430312 
L 153.871227 120.025085 
L 154.021115 120.025085 
L 154.021115 120.025085 
L 154.021115 119.619859 
L 155.070335 119.619859 
L 155.070335 119.214633 
L 156.119554 119.214633 
L 156.119554 119.214633 
L 156.119554 118.809407 
L 156.119554 118.809407 
L 156.569219 118.809407 
L 156.569219 118.809407 
L 156.569219 118.404181 
L 158.068104 118.404181 
L 158.068104 117.998955 
L 159.267212 117.998955 
L 159.267212 117.998955 
L 159.267212 117.593729 
L 159.866766 117.593729 
L 159.866766 117.188503 
L 160.166543 117.188503 
L 160.166543 116.783276 
L 160.166543 116.783276 
L 162.115093 116.783276 
L 162.115093 116.37805 
L 162.264981 116.37805 
L 162.264981 115.972824 
L 162.264981 115.972824 
L 166.461859 115.972824 
L 166.461859 115.972824 
L 166.461859 115.567598 
L 166.911524 115.567598 
L 166.911524 115.567598 
L 166.911524 115.162372 
L 167.211301 115.162372 
L 167.211301 114.757146 
L 168.26052 114.757146 
L 168.26052 114.757146 
L 168.26052 113.946693 
L 169.30974 113.946693 
L 169.30974 113.946693 
L 169.30974 113.136241 
L 169.30974 113.136241 
L 169.609517 113.136241 
L 169.609517 112.731015 
L 169.609517 112.731015 
L 171.558067 112.731015 
L 171.558067 112.325789 
L 171.707955 112.325789 
L 171.707955 112.325789 
L 171.707955 111.920563 
L 171.707955 111.920563 
L 171.857844 111.920563 
L 171.857844 111.515337 
L 173.056952 111.515337 
L 173.056952 111.515337 
L 173.056952 111.110111 
L 173.20684 111.110111 
L 173.20684 110.704884 
L 174.705725 110.704884 
L 174.705725 110.704884 
L 174.705725 109.894432 
L 174.705725 109.894432 
L 178.602825 109.894432 
L 178.602825 109.08398 
L 180.10171 109.08398 
L 180.10171 108.273528 
L 180.10171 108.273528 
L 180.851152 108.273528 
L 180.851152 107.868302 
L 180.851152 107.868302 
L 182.05026 107.868302 
L 182.05026 107.868302 
L 182.05026 107.463075 
L 183.549145 107.463075 
L 183.549145 107.057849 
L 183.99881 107.057849 
L 183.99881 107.057849 
L 183.99881 106.652623 
L 183.99881 106.652623 
L 184.298587 106.652623 
L 184.298587 106.652623 
L 184.298587 105.842171 
L 184.748253 105.842171 
L 184.748253 105.842171 
L 184.748253 105.436945 
L 184.748253 105.436945 
L 188.495465 105.436945 
L 188.495465 105.436945 
L 188.495465 104.626492 
L 188.495465 104.626492 
L 190.89368 104.626492 
L 190.89368 104.221266 
L 190.89368 104.221266 
L 192.542454 104.221266 
L 192.542454 104.221266 
L 192.542454 103.81604 
L 192.84223 103.81604 
L 192.84223 103.81604 
L 192.84223 103.410814 
L 194.341115 103.410814 
L 194.341115 103.005588 
L 194.341115 103.005588 
L 198.687881 103.005588 
L 198.687881 102.600362 
L 201.535762 102.600362 
L 201.535762 102.195136 
L 202.135316 102.195136 
L 202.135316 102.195136 
L 202.135316 101.78991 
L 202.135316 101.78991 
L 204.983197 101.78991 
L 204.983197 101.78991 
L 204.983197 101.384683 
L 205.732639 101.384683 
L 205.732639 101.384683 
L 205.732639 100.979457 
L 206.332193 100.979457 
L 206.332193 100.574231 
L 207.081636 100.574231 
L 207.081636 100.574231 
L 207.081636 100.169005 
L 209.180074 100.169005 
L 209.180074 99.763779 
L 209.479851 99.763779 
L 209.479851 98.953327 
L 209.479851 98.953327 
L 211.128625 98.953327 
L 211.128625 98.548101 
L 214.725948 98.548101 
L 214.725948 97.737648 
L 215.025725 97.737648 
L 215.025725 97.332422 
L 215.025725 97.332422 
L 216.674498 97.332422 
L 216.674498 97.332422 
L 216.674498 96.927196 
L 217.873606 96.927196 
L 217.873606 96.52197 
L 218.173383 96.52197 
L 218.173383 96.52197 
L 218.173383 96.116744 
L 218.323271 96.116744 
L 218.323271 96.116744 
L 218.323271 95.306291 
L 218.323271 95.306291 
L 218.922825 95.306291 
L 218.922825 95.306291 
L 218.922825 94.901065 
L 219.522379 94.901065 
L 219.522379 94.495839 
L 219.672268 94.495839 
L 219.672268 94.090613 
L 220.42171 94.090613 
L 220.42171 94.090613 
L 220.42171 93.685387 
L 221.920595 93.685387 
L 221.920595 93.685387 
L 221.920595 93.280161 
L 222.220372 93.280161 
L 222.220372 92.874935 
L 225.967584 92.874935 
L 225.967584 92.874935 
L 225.967584 92.469709 
L 226.567138 92.469709 
L 226.567138 91.659256 
L 226.717026 91.659256 
L 226.717026 91.659256 
L 226.717026 91.25403 
L 227.016803 91.25403 
L 227.016803 91.25403 
L 227.016803 90.848804 
L 227.016803 90.848804 
L 227.916134 90.848804 
L 227.916134 90.443578 
L 228.965353 90.443578 
L 228.965353 90.038352 
L 228.965353 90.038352 
L 229.864684 90.038352 
L 229.864684 89.633126 
L 232.412788 89.633126 
L 232.412788 89.227899 
L 233.16223 89.227899 
L 233.16223 89.227899 
L 233.16223 88.822673 
L 233.16223 88.822673 
L 237.508996 88.822673 
L 237.508996 88.822673 
L 237.508996 88.417447 
L 238.10855 88.417447 
L 238.10855 88.417447 
L 238.10855 88.012221 
L 238.708104 88.012221 
L 238.708104 87.606995 
L 239.757323 87.606995 
L 239.757323 87.606995 
L 239.757323 87.201769 
L 240.0571 87.201769 
L 240.0571 86.796543 
L 240.0571 86.796543 
L 240.206989 86.796543 
L 240.206989 86.796543 
L 240.206989 86.391317 
L 241.855762 86.391317 
L 241.855762 85.98609 
L 242.904981 85.98609 
L 242.904981 85.580864 
L 247.101859 85.580864 
L 247.101859 85.175638 
L 249.200297 85.175638 
L 249.200297 84.365186 
L 249.200297 84.365186 
L 249.350186 84.365186 
L 249.350186 83.95996 
L 249.350186 83.95996 
L 250.099628 83.95996 
L 250.099628 83.95996 
L 250.099628 83.554734 
L 252.048178 83.554734 
L 252.048178 83.149508 
L 252.797621 83.149508 
L 252.797621 82.744281 
L 261.041487 82.744281 
L 261.041487 82.339055 
L 262.390483 82.339055 
L 262.390483 82.339055 
L 262.390483 81.933829 
L 262.540372 81.933829 
L 262.540372 81.123377 
L 264.339033 81.123377 
L 264.339033 81.123377 
L 264.339033 80.312925 
L 264.339033 80.312925 
L 267.336803 80.312925 
L 267.336803 79.907698 
L 268.386022 79.907698 
L 268.386022 79.907698 
L 268.386022 79.502472 
L 271.233903 79.502472 
L 271.233903 79.097246 
L 271.383792 79.097246 
L 271.383792 79.097246 
L 271.383792 78.69202 
L 271.383792 78.69202 
L 272.133234 78.69202 
L 272.133234 78.69202 
L 272.133234 78.286794 
L 276.629888 78.286794 
L 276.629888 78.286794 
L 276.629888 77.881568 
L 277.079554 77.881568 
L 277.079554 77.881568 
L 277.079554 77.476342 
L 278.42855 77.476342 
L 278.42855 77.476342 
L 278.42855 77.071116 
L 279.627658 77.071116 
L 279.627658 77.071116 
L 279.627658 76.665889 
L 279.627658 76.665889 
L 280.676877 76.665889 
L 280.676877 76.665889 
L 280.676877 76.260663 
L 282.025874 76.260663 
L 282.025874 75.855437 
L 282.025874 75.855437 
L 284.124312 75.855437 
L 284.124312 75.855437 
L 284.124312 75.450211 
L 284.124312 75.450211 
L 286.072862 75.450211 
L 286.072862 75.450211 
L 286.072862 75.044985 
L 286.072862 75.044985 
L 291.318959 75.044985 
L 291.318959 74.639759 
L 291.318959 74.639759 
L 291.468848 74.639759 
L 291.468848 74.234533 
L 292.518067 74.234533 
L 292.518067 73.829307 
L 293.117621 73.829307 
L 293.117621 73.42408 
L 293.717175 73.42408 
L 293.717175 72.613628 
L 294.016952 72.613628 
L 294.016952 72.208402 
L 294.16684 72.208402 
L 294.16684 71.803176 
L 297.614275 71.803176 
L 297.614275 71.803176 
L 297.614275 71.39795 
L 297.914052 71.39795 
L 297.914052 71.39795 
L 297.914052 70.992724 
L 298.063941 70.992724 
L 298.063941 70.992724 
L 298.063941 70.182271 
L 300.162379 70.182271 
L 300.162379 69.777045 
L 300.162379 69.777045 
L 300.462156 69.777045 
L 300.462156 69.777045 
L 300.462156 69.371819 
L 301.511375 69.371819 
L 301.511375 68.966593 
L 302.410706 68.966593 
L 302.410706 68.561367 
L 302.410706 68.561367 
L 307.806691 68.561367 
L 307.806691 68.561367 
L 307.806691 68.156141 
L 312.153457 68.156141 
L 312.153457 68.156141 
L 312.153457 67.750915 
L 312.303346 67.750915 
L 312.303346 67.750915 
L 312.303346 67.345688 
L 312.603123 67.345688 
L 312.603123 67.345688 
L 312.603123 66.940462 
L 312.603123 66.940462 
L 312.9029 66.940462 
L 312.9029 66.940462 
L 312.9029 66.535236 
L 314.701561 66.535236 
L 314.701561 66.13001 
L 314.701561 66.13001 
L 316.650112 66.13001 
L 316.650112 66.13001 
L 316.650112 65.724784 
L 323.994647 65.724784 
L 323.994647 65.319558 
L 324.294424 65.319558 
L 324.294424 65.319558 
L 324.294424 64.914332 
L 325.343643 64.914332 
L 325.343643 64.914332 
L 325.343643 64.509106 
L 328.341413 64.509106 
L 328.341413 64.509106 
L 328.341413 63.698653 
L 328.341413 63.698653 
L 331.039405 63.698653 
L 331.039405 62.888201 
L 331.489071 62.888201 
L 331.489071 62.888201 
L 331.489071 62.482975 
L 333.737398 62.482975 
L 333.737398 62.482975 
L 333.737398 62.077749 
L 334.786617 62.077749 
L 334.786617 62.077749 
L 334.786617 61.672523 
L 336.285502 61.672523 
L 336.285502 61.672523 
L 336.285502 61.267296 
L 338.983494 61.267296 
L 338.983494 60.86207 
L 339.732937 60.86207 
L 339.732937 60.86207 
L 339.732937 60.456844 
L 339.882825 60.456844 
L 339.882825 60.051618 
L 339.882825 60.051618 
L 342.730706 60.051618 
L 342.730706 60.051618 
L 342.730706 59.646392 
L 343.779926 59.646392 
L 343.779926 59.646392 
L 343.779926 59.241166 
L 343.929814 59.241166 
L 343.929814 59.241166 
L 343.929814 58.83594 
L 344.979033 58.83594 
L 344.979033 58.83594 
L 344.979033 58.025487 
L 345.578587 58.025487 
L 345.578587 58.025487 
L 345.578587 57.620261 
L 345.578587 57.620261 
L 345.878364 57.620261 
L 345.878364 57.620261 
L 345.878364 57.215035 
L 347.677026 57.215035 
L 347.677026 56.809809 
L 347.677026 56.809809 
L 348.126691 56.809809 
L 348.126691 55.999357 
L 349.026022 55.999357 
L 349.026022 55.999357 
L 349.026022 55.594131 
L 353.073011 55.594131 
L 353.073011 55.594131 
L 353.073011 55.188905 
L 353.2229 55.188905 
L 353.2229 54.783678 
L 353.372788 54.783678 
L 353.372788 54.783678 
L 353.372788 53.973226 
L 353.372788 53.973226 
L 354.871673 53.973226 
L 354.871673 53.973226 
L 354.871673 53.568 
L 357.12 53.568 
L 357.12 53.568 
" clip-path="url(#p4bdaa31041)" style="fill: none; stroke: #1f77b4; stroke-width: 1.5; stroke-linecap: square"/>
   </g>
   <g id="line2d_14">
    <path d="M 149.074796 121.64599 
" clip-path="url(#p4bdaa31041)" style="fill: none; stroke: #ff0000; stroke-width: 1.5; stroke-linecap: square"/>
    <defs>
     <path id="mfab853eb32" d="M 0 3 
C 0.795609 3 1.55874 2.683901 2.12132 2.12132 
C 2.683901 1.55874 3 0.795609 3 0 
C 3 -0.795609 2.683901 -1.55874 2.12132 -2.12132 
C 1.55874 -2.683901 0.795609 -3 0 -3 
C -0.795609 -3 -1.55874 -2.683901 -2.12132 -2.12132 
C -2.683901 -1.55874 -3 -0.795609 -3 0 
C -3 0.795609 -2.683901 1.55874 -2.12132 2.12132 
C -1.55874 2.683901 -0.795609 3 0 3 
z
" style="stroke: #ff0000"/>
    </defs>
    <g clip-path="url(#p4bdaa31041)">
     <use xlink:href="#mfab853eb32" x="149.074796" y="121.64599" style="fill: #ff0000; stroke: #ff0000"/>
    </g>
   </g>
   <g id="patch_3">
    <path d="M 103.104 307.584 
L 103.104 41.472 
" style="fill: none; stroke: #000000; stroke-width: 0.8; stroke-linejoin: miter; stroke-linecap: square"/>
   </g>
   <g id="patch_4">
    <path d="M 369.216 307.584 
L 369.216 41.472 
" style="fill: none; stroke: #000000; stroke-width: 0.8; stroke-linejoin: miter; stroke-linecap: square"/>
   </g>
   <g id="patch_5">
    <path d="M 103.104 307.584 
L 369.216 307.584 
" style="fill: none; stroke: #000000; stroke-width: 0.8; stroke-linejoin: miter; stroke-linecap: square"/>
   </g>
   <g id="patch_6">
    <path d="M 103.104 41.472 
L 369.216 41.472 
" style="fill: none; stroke: #000000; stroke-width: 0.8; stroke-linejoin: miter; stroke-linecap: square"/>
   </g>
   <g id="text_15">
    <!-- AUC = 0.82 -->
    <g transform="translate(115.2 77.76)scale(0.1 -0.1)">
     <defs>
      <path id="DejaVuSans-41" d="M 2188 4044 
L 1331 1722 
L 3047 1722 
L 2188 4044 
z
M 1831 4666 
L 2547 4666 
L 4325 0 
L 3669 0 
L 3244 1197 
L 1141 1197 
L 716 0 
L 50 0 
L 1831 4666 
z
" transform="scale(0.015625)"/>
      <path id="DejaVuSans-55" d="M 556 4666 
L 1191 4666 
L 1191 1831 
Q 1191 1081 1462 751 
Q 1734 422 2344 422 
Q 2950 422 3222 751 
Q 3494 1081 3494 1831 
L 3494 4666 
L 4128 4666 
L 4128 1753 
Q 4128 841 3676 375 
Q 3225 -91 2344 -91 
Q 1459 -91 1007 375 
Q 556 841 556 1753 
L 556 4666 
z
" transform="scale(0.015625)"/>
      <path id="DejaVuSans-43" d="M 4122 4306 
L 4122 3641 
Q 3803 3938 3442 4084 
Q 3081 4231 2675 4231 
Q 1875 4231 1450 3742 
Q 1025 3253 1025 2328 
Q 1025 1406 1450 917 
Q 1875 428 2675 428 
Q 3081 428 3442 575 
Q 3803 722 4122 1019 
L 4122 359 
Q 3791 134 3420 21 
Q 3050 -91 2638 -91 
Q 1578 -91 968 557 
Q 359 1206 359 2328 
Q 359 3453 968 4101 
Q 1578 4750 2638 4750 
Q 3056 4750 3426 4639 
Q 3797 4528 4122 4306 
z
" transform="scale(0.015625)"/>
      <path id="DejaVuSans-20" transform="scale(0.015625)"/>
      <path id="DejaVuSans-3d" d="M 678 2906 
L 4684 2906 
L 4684 2381 
L 678 2381 
L 678 2906 
z
M 678 1631 
L 4684 1631 
L 4684 1100 
L 678 1100 
L 678 1631 
z
" transform="scale(0.015625)"/>
     </defs>
     <use xlink:href="#DejaVuSans-41"/>
     <use xlink:href="#DejaVuSans-55" x="68.408203"/>
     <use xlink:href="#DejaVuSans-43" x="141.601562"/>
     <use xlink:href="#DejaVuSans-20" x="211.425781"/>
     <use xlink:href="#DejaVuSans-3d" x="243.212891"/>
     <use xlink:href="#DejaVuSans-20" x="327.001953"/>
     <use xlink:href="#DejaVuSans-30" x="358.789062"/>
     <use xlink:href="#DejaVuSans-2e" x="422.412109"/>
     <use xlink:href="#DejaVuSans-38" x="454.199219"/>
     <use xlink:href="#DejaVuSans-32" x="517.822266"/>
    </g>
   </g>
   <g id="text_16">
    <!-- Cut-off Point -->
    <g transform="translate(161.170796 135.538365)scale(0.1 -0.1)">
     <defs>
      <path id="DejaVuSans-75" d="M 544 1381 
L 544 3500 
L 1119 3500 
L 1119 1403 
Q 1119 906 1312 657 
Q 1506 409 1894 409 
Q 2359 409 2629 706 
Q 2900 1003 2900 1516 
L 2900 3500 
L 3475 3500 
L 3475 0 
L 2900 0 
L 2900 538 
Q 2691 219 2414 64 
Q 2138 -91 1772 -91 
Q 1169 -91 856 284 
Q 544 659 544 1381 
z
M 1991 3584 
L 1991 3584 
z
" transform="scale(0.015625)"/>
      <path id="DejaVuSans-74" d="M 1172 4494 
L 1172 3500 
L 2356 3500 
L 2356 3053 
L 1172 3053 
L 1172 1153 
Q 1172 725 1289 603 
Q 1406 481 1766 481 
L 2356 481 
L 2356 0 
L 1766 0 
Q 1100 0 847 248 
Q 594 497 594 1153 
L 594 3053 
L 172 3053 
L 172 3500 
L 594 3500 
L 594 4494 
L 1172 4494 
z
" transform="scale(0.015625)"/>
      <path id="DejaVuSans-2d" d="M 313 2009 
L 1997 2009 
L 1997 1497 
L 313 1497 
L 313 2009 
z
" transform="scale(0.015625)"/>
      <path id="DejaVuSans-6f" d="M 1959 3097 
Q 1497 3097 1228 2736 
Q 959 2375 959 1747 
Q 959 1119 1226 758 
Q 1494 397 1959 397 
Q 2419 397 2687 759 
Q 2956 1122 2956 1747 
Q 2956 2369 2687 2733 
Q 2419 3097 1959 3097 
z
M 1959 3584 
Q 2709 3584 3137 3096 
Q 3566 2609 3566 1747 
Q 3566 888 3137 398 
Q 2709 -91 1959 -91 
Q 1206 -91 779 398 
Q 353 888 353 1747 
Q 353 2609 779 3096 
Q 1206 3584 1959 3584 
z
" transform="scale(0.015625)"/>
      <path id="DejaVuSans-66" d="M 2375 4863 
L 2375 4384 
L 1825 4384 
Q 1516 4384 1395 4259 
Q 1275 4134 1275 3809 
L 1275 3500 
L 2222 3500 
L 2222 3053 
L 1275 3053 
L 1275 0 
L 697 0 
L 697 3053 
L 147 3053 
L 147 3500 
L 697 3500 
L 697 3744 
Q 697 4328 969 4595 
Q 1241 4863 1831 4863 
L 2375 4863 
z
" transform="scale(0.015625)"/>
      <path id="DejaVuSans-69" d="M 603 3500 
L 1178 3500 
L 1178 0 
L 603 0 
L 603 3500 
z
M 603 4863 
L 1178 4863 
L 1178 4134 
L 603 4134 
L 603 4863 
z
" transform="scale(0.015625)"/>
      <path id="DejaVuSans-6e" d="M 3513 2113 
L 3513 0 
L 2938 0 
L 2938 2094 
Q 2938 2591 2744 2837 
Q 2550 3084 2163 3084 
Q 1697 3084 1428 2787 
Q 1159 2491 1159 1978 
L 1159 0 
L 581 0 
L 581 3500 
L 1159 3500 
L 1159 2956 
Q 1366 3272 1645 3428 
Q 1925 3584 2291 3584 
Q 2894 3584 3203 3211 
Q 3513 2838 3513 2113 
z
" transform="scale(0.015625)"/>
     </defs>
     <use xlink:href="#DejaVuSans-43"/>
     <use xlink:href="#DejaVuSans-75" x="69.824219"/>
     <use xlink:href="#DejaVuSans-74" x="133.203125"/>
     <use xlink:href="#DejaVuSans-2d" x="172.412109"/>
     <use xlink:href="#DejaVuSans-6f" x="210.371094"/>
     <use xlink:href="#DejaVuSans-66" x="271.552734"/>
     <use xlink:href="#DejaVuSans-66" x="306.757812"/>
     <use xlink:href="#DejaVuSans-20" x="341.962891"/>
     <use xlink:href="#DejaVuSans-50" x="373.75"/>
     <use xlink:href="#DejaVuSans-6f" x="430.427734"/>
     <use xlink:href="#DejaVuSans-69" x="491.609375"/>
     <use xlink:href="#DejaVuSans-6e" x="519.392578"/>
     <use xlink:href="#DejaVuSans-74" x="582.771484"/>
    </g>
    <!-- FPR=0.14 -->
    <g transform="translate(161.170796 146.736177)scale(0.1 -0.1)">
     <use xlink:href="#DejaVuSans-46"/>
     <use xlink:href="#DejaVuSans-50" x="57.519531"/>
     <use xlink:href="#DejaVuSans-52" x="117.822266"/>
     <use xlink:href="#DejaVuSans-3d" x="187.304688"/>
     <use xlink:href="#DejaVuSans-30" x="271.09375"/>
     <use xlink:href="#DejaVuSans-2e" x="334.716797"/>
     <use xlink:href="#DejaVuSans-31" x="366.503906"/>
     <use xlink:href="#DejaVuSans-34" x="430.126953"/>
    </g>
    <!-- TPR=0.719 -->
    <g transform="translate(161.170796 157.93399)scale(0.1 -0.1)">
     <defs>
      <path id="DejaVuSans-37" d="M 525 4666 
L 3525 4666 
L 3525 4397 
L 1831 0 
L 1172 0 
L 2766 4134 
L 525 4134 
L 525 4666 
z
" transform="scale(0.015625)"/>
      <path id="DejaVuSans-39" d="M 703 97 
L 703 672 
Q 941 559 1184 500 
Q 1428 441 1663 441 
Q 2288 441 2617 861 
Q 2947 1281 2994 2138 
Q 2813 1869 2534 1725 
Q 2256 1581 1919 1581 
Q 1219 1581 811 2004 
Q 403 2428 403 3163 
Q 403 3881 828 4315 
Q 1253 4750 1959 4750 
Q 2769 4750 3195 4129 
Q 3622 3509 3622 2328 
Q 3622 1225 3098 567 
Q 2575 -91 1691 -91 
Q 1453 -91 1209 -44 
Q 966 3 703 97 
z
M 1959 2075 
Q 2384 2075 2632 2365 
Q 2881 2656 2881 3163 
Q 2881 3666 2632 3958 
Q 2384 4250 1959 4250 
Q 1534 4250 1286 3958 
Q 1038 3666 1038 3163 
Q 1038 2656 1286 2365 
Q 1534 2075 1959 2075 
z
" transform="scale(0.015625)"/>
     </defs>
     <use xlink:href="#DejaVuSans-54"/>
     <use xlink:href="#DejaVuSans-50" x="61.083984"/>
     <use xlink:href="#DejaVuSans-52" x="121.386719"/>
     <use xlink:href="#DejaVuSans-3d" x="190.869141"/>
     <use xlink:href="#DejaVuSans-30" x="274.658203"/>
     <use xlink:href="#DejaVuSans-2e" x="338.28125"/>
     <use xlink:href="#DejaVuSans-37" x="370.068359"/>
     <use xlink:href="#DejaVuSans-31" x="433.691406"/>
     <use xlink:href="#DejaVuSans-39" x="497.314453"/>
    </g>
   </g>
   <g id="text_17">
    <!-- ROC_Ratio_129C_129N -->
    <g transform="translate(167.093438 35.472)scale(0.12 -0.12)">
     <defs>
      <path id="DejaVuSans-4f" d="M 2522 4238 
Q 1834 4238 1429 3725 
Q 1025 3213 1025 2328 
Q 1025 1447 1429 934 
Q 1834 422 2522 422 
Q 3209 422 3611 934 
Q 4013 1447 4013 2328 
Q 4013 3213 3611 3725 
Q 3209 4238 2522 4238 
z
M 2522 4750 
Q 3503 4750 4090 4092 
Q 4678 3434 4678 2328 
Q 4678 1225 4090 567 
Q 3503 -91 2522 -91 
Q 1538 -91 948 565 
Q 359 1222 359 2328 
Q 359 3434 948 4092 
Q 1538 4750 2522 4750 
z
" transform="scale(0.015625)"/>
      <path id="DejaVuSans-5f" d="M 3263 -1063 
L 3263 -1509 
L -63 -1509 
L -63 -1063 
L 3263 -1063 
z
" transform="scale(0.015625)"/>
      <path id="DejaVuSans-61" d="M 2194 1759 
Q 1497 1759 1228 1600 
Q 959 1441 959 1056 
Q 959 750 1161 570 
Q 1363 391 1709 391 
Q 2188 391 2477 730 
Q 2766 1069 2766 1631 
L 2766 1759 
L 2194 1759 
z
M 3341 1997 
L 3341 0 
L 2766 0 
L 2766 531 
Q 2569 213 2275 61 
Q 1981 -91 1556 -91 
Q 1019 -91 701 211 
Q 384 513 384 1019 
Q 384 1609 779 1909 
Q 1175 2209 1959 2209 
L 2766 2209 
L 2766 2266 
Q 2766 2663 2505 2880 
Q 2244 3097 1772 3097 
Q 1472 3097 1187 3025 
Q 903 2953 641 2809 
L 641 3341 
Q 956 3463 1253 3523 
Q 1550 3584 1831 3584 
Q 2591 3584 2966 3190 
Q 3341 2797 3341 1997 
z
" transform="scale(0.015625)"/>
      <path id="DejaVuSans-4e" d="M 628 4666 
L 1478 4666 
L 3547 763 
L 3547 4666 
L 4159 4666 
L 4159 0 
L 3309 0 
L 1241 3903 
L 1241 0 
L 628 0 
L 628 4666 
z
" transform="scale(0.015625)"/>
     </defs>
     <use xlink:href="#DejaVuSans-52"/>
     <use xlink:href="#DejaVuSans-4f" x="69.482422"/>
     <use xlink:href="#DejaVuSans-43" x="148.193359"/>
     <use xlink:href="#DejaVuSans-5f" x="218.017578"/>
     <use xlink:href="#DejaVuSans-52" x="268.017578"/>
     <use xlink:href="#DejaVuSans-61" x="335.25"/>
     <use xlink:href="#DejaVuSans-74" x="396.529297"/>
     <use xlink:href="#DejaVuSans-69" x="435.738281"/>
     <use xlink:href="#DejaVuSans-6f" x="463.521484"/>
     <use xlink:href="#DejaVuSans-5f" x="524.703125"/>
     <use xlink:href="#DejaVuSans-31" x="574.703125"/>
     <use xlink:href="#DejaVuSans-32" x="638.326172"/>
     <use xlink:href="#DejaVuSans-39" x="701.949219"/>
     <use xlink:href="#DejaVuSans-43" x="765.572266"/>
     <use xlink:href="#DejaVuSans-5f" x="835.396484"/>
     <use xlink:href="#DejaVuSans-31" x="885.396484"/>
     <use xlink:href="#DejaVuSans-32" x="949.019531"/>
     <use xlink:href="#DejaVuSans-39" x="1012.642578"/>
     <use xlink:href="#DejaVuSans-4e" x="1076.265625"/>
    </g>
   </g>
  </g>
 </g>
 <defs>
  <clipPath id="p4bdaa31041">
   <rect x="103.104" y="41.472" width="266.112" height="266.112"/>
  </clipPath>
 </defs>
</svg>
