<?xml version="1.0" encoding="utf-8" standalone="no"?>
<!DOCTYPE svg PUBLIC "-//W3C//DTD SVG 1.1//EN"
  "http://www.w3.org/Graphics/SVG/1.1/DTD/svg11.dtd">
<svg xmlns:xlink="http://www.w3.org/1999/xlink" width="460.8pt" height="345.6pt" viewBox="0 0 460.8 345.6" xmlns="http://www.w3.org/2000/svg" version="1.1">
 <metadata>
  <rdf:RDF xmlns:dc="http://purl.org/dc/elements/1.1/" xmlns:cc="http://creativecommons.org/ns#" xmlns:rdf="http://www.w3.org/1999/02/22-rdf-syntax-ns#">
   <cc:Work>
    <dc:type rdf:resource="http://purl.org/dc/dcmitype/StillImage"/>
    <dc:date>2022-11-16T18:28:46.290245</dc:date>
    <dc:format>image/svg+xml</dc:format>
    <dc:creator>
     <cc:Agent>
      <dc:title>Matplotlib v3.5.1, https://matplotlib.org/</dc:title>
     </cc:Agent>
    </dc:creator>
   </cc:Work>
  </rdf:RDF>
 </metadata>
 <defs>
  <style type="text/css">*{stroke-linejoin: round; stroke-linecap: butt}</style>
 </defs>
 <g id="figure_1">
  <g id="patch_1">
   <path d="M 0 345.6 
L 460.8 345.6 
L 460.8 0 
L 0 0 
z
" style="fill: #ffffff"/>
  </g>
  <g id="axes_1">
   <g id="patch_2">
    <path d="M 102.880752 307.584 
L 369.439248 307.584 
L 369.439248 41.472 
L 102.880752 41.472 
z
" style="fill: #ffffff"/>
   </g>
   <g id="matplotlib.axis_1">
    <g id="xtick_1">
     <g id="line2d_1">
      <defs>
       <path id="m52f80f90ec" d="M 0 0 
L 0 3.5 
" style="stroke: #000000; stroke-width: 0.8"/>
      </defs>
      <g>
       <use xlink:href="#m52f80f90ec" x="114.997047" y="307.584" style="stroke: #000000; stroke-width: 0.8"/>
      </g>
     </g>
     <g id="text_1">
      <!-- 0.0 -->
      <g transform="translate(107.045484 322.182437)scale(0.1 -0.1)">
       <defs>
        <path id="DejaVuSans-30" d="M 2034 4250 
Q 1547 4250 1301 3770 
Q 1056 3291 1056 2328 
Q 1056 1369 1301 889 
Q 1547 409 2034 409 
Q 2525 409 2770 889 
Q 3016 1369 3016 2328 
Q 3016 3291 2770 3770 
Q 2525 4250 2034 4250 
z
M 2034 4750 
Q 2819 4750 3233 4129 
Q 3647 3509 3647 2328 
Q 3647 1150 3233 529 
Q 2819 -91 2034 -91 
Q 1250 -91 836 529 
Q 422 1150 422 2328 
Q 422 3509 836 4129 
Q 1250 4750 2034 4750 
z
" transform="scale(0.015625)"/>
        <path id="DejaVuSans-2e" d="M 684 794 
L 1344 794 
L 1344 0 
L 684 0 
L 684 794 
z
" transform="scale(0.015625)"/>
       </defs>
       <use xlink:href="#DejaVuSans-30"/>
       <use xlink:href="#DejaVuSans-2e" x="63.623047"/>
       <use xlink:href="#DejaVuSans-30" x="95.410156"/>
      </g>
     </g>
    </g>
    <g id="xtick_2">
     <g id="line2d_2">
      <g>
       <use xlink:href="#m52f80f90ec" x="163.462228" y="307.584" style="stroke: #000000; stroke-width: 0.8"/>
      </g>
     </g>
     <g id="text_2">
      <!-- 0.2 -->
      <g transform="translate(155.510666 322.182437)scale(0.1 -0.1)">
       <defs>
        <path id="DejaVuSans-32" d="M 1228 531 
L 3431 531 
L 3431 0 
L 469 0 
L 469 531 
Q 828 903 1448 1529 
Q 2069 2156 2228 2338 
Q 2531 2678 2651 2914 
Q 2772 3150 2772 3378 
Q 2772 3750 2511 3984 
Q 2250 4219 1831 4219 
Q 1534 4219 1204 4116 
Q 875 4013 500 3803 
L 500 4441 
Q 881 4594 1212 4672 
Q 1544 4750 1819 4750 
Q 2544 4750 2975 4387 
Q 3406 4025 3406 3419 
Q 3406 3131 3298 2873 
Q 3191 2616 2906 2266 
Q 2828 2175 2409 1742 
Q 1991 1309 1228 531 
z
" transform="scale(0.015625)"/>
       </defs>
       <use xlink:href="#DejaVuSans-30"/>
       <use xlink:href="#DejaVuSans-2e" x="63.623047"/>
       <use xlink:href="#DejaVuSans-32" x="95.410156"/>
      </g>
     </g>
    </g>
    <g id="xtick_3">
     <g id="line2d_3">
      <g>
       <use xlink:href="#m52f80f90ec" x="211.927409" y="307.584" style="stroke: #000000; stroke-width: 0.8"/>
      </g>
     </g>
     <g id="text_3">
      <!-- 0.4 -->
      <g transform="translate(203.975847 322.182437)scale(0.1 -0.1)">
       <defs>
        <path id="DejaVuSans-34" d="M 2419 4116 
L 825 1625 
L 2419 1625 
L 2419 4116 
z
M 2253 4666 
L 3047 4666 
L 3047 1625 
L 3713 1625 
L 3713 1100 
L 3047 1100 
L 3047 0 
L 2419 0 
L 2419 1100 
L 313 1100 
L 313 1709 
L 2253 4666 
z
" transform="scale(0.015625)"/>
       </defs>
       <use xlink:href="#DejaVuSans-30"/>
       <use xlink:href="#DejaVuSans-2e" x="63.623047"/>
       <use xlink:href="#DejaVuSans-34" x="95.410156"/>
      </g>
     </g>
    </g>
    <g id="xtick_4">
     <g id="line2d_4">
      <g>
       <use xlink:href="#m52f80f90ec" x="260.392591" y="307.584" style="stroke: #000000; stroke-width: 0.8"/>
      </g>
     </g>
     <g id="text_4">
      <!-- 0.6 -->
      <g transform="translate(252.441028 322.182437)scale(0.1 -0.1)">
       <defs>
        <path id="DejaVuSans-36" d="M 2113 2584 
Q 1688 2584 1439 2293 
Q 1191 2003 1191 1497 
Q 1191 994 1439 701 
Q 1688 409 2113 409 
Q 2538 409 2786 701 
Q 3034 994 3034 1497 
Q 3034 2003 2786 2293 
Q 2538 2584 2113 2584 
z
M 3366 4563 
L 3366 3988 
Q 3128 4100 2886 4159 
Q 2644 4219 2406 4219 
Q 1781 4219 1451 3797 
Q 1122 3375 1075 2522 
Q 1259 2794 1537 2939 
Q 1816 3084 2150 3084 
Q 2853 3084 3261 2657 
Q 3669 2231 3669 1497 
Q 3669 778 3244 343 
Q 2819 -91 2113 -91 
Q 1303 -91 875 529 
Q 447 1150 447 2328 
Q 447 3434 972 4092 
Q 1497 4750 2381 4750 
Q 2619 4750 2861 4703 
Q 3103 4656 3366 4563 
z
" transform="scale(0.015625)"/>
       </defs>
       <use xlink:href="#DejaVuSans-30"/>
       <use xlink:href="#DejaVuSans-2e" x="63.623047"/>
       <use xlink:href="#DejaVuSans-36" x="95.410156"/>
      </g>
     </g>
    </g>
    <g id="xtick_5">
     <g id="line2d_5">
      <g>
       <use xlink:href="#m52f80f90ec" x="308.857772" y="307.584" style="stroke: #000000; stroke-width: 0.8"/>
      </g>
     </g>
     <g id="text_5">
      <!-- 0.8 -->
      <g transform="translate(300.906209 322.182437)scale(0.1 -0.1)">
       <defs>
        <path id="DejaVuSans-38" d="M 2034 2216 
Q 1584 2216 1326 1975 
Q 1069 1734 1069 1313 
Q 1069 891 1326 650 
Q 1584 409 2034 409 
Q 2484 409 2743 651 
Q 3003 894 3003 1313 
Q 3003 1734 2745 1975 
Q 2488 2216 2034 2216 
z
M 1403 2484 
Q 997 2584 770 2862 
Q 544 3141 544 3541 
Q 544 4100 942 4425 
Q 1341 4750 2034 4750 
Q 2731 4750 3128 4425 
Q 3525 4100 3525 3541 
Q 3525 3141 3298 2862 
Q 3072 2584 2669 2484 
Q 3125 2378 3379 2068 
Q 3634 1759 3634 1313 
Q 3634 634 3220 271 
Q 2806 -91 2034 -91 
Q 1263 -91 848 271 
Q 434 634 434 1313 
Q 434 1759 690 2068 
Q 947 2378 1403 2484 
z
M 1172 3481 
Q 1172 3119 1398 2916 
Q 1625 2713 2034 2713 
Q 2441 2713 2670 2916 
Q 2900 3119 2900 3481 
Q 2900 3844 2670 4047 
Q 2441 4250 2034 4250 
Q 1625 4250 1398 4047 
Q 1172 3844 1172 3481 
z
" transform="scale(0.015625)"/>
       </defs>
       <use xlink:href="#DejaVuSans-30"/>
       <use xlink:href="#DejaVuSans-2e" x="63.623047"/>
       <use xlink:href="#DejaVuSans-38" x="95.410156"/>
      </g>
     </g>
    </g>
    <g id="xtick_6">
     <g id="line2d_6">
      <g>
       <use xlink:href="#m52f80f90ec" x="357.322953" y="307.584" style="stroke: #000000; stroke-width: 0.8"/>
      </g>
     </g>
     <g id="text_6">
      <!-- 1.0 -->
      <g transform="translate(349.371391 322.182437)scale(0.1 -0.1)">
       <defs>
        <path id="DejaVuSans-31" d="M 794 531 
L 1825 531 
L 1825 4091 
L 703 3866 
L 703 4441 
L 1819 4666 
L 2450 4666 
L 2450 531 
L 3481 531 
L 3481 0 
L 794 0 
L 794 531 
z
" transform="scale(0.015625)"/>
       </defs>
       <use xlink:href="#DejaVuSans-31"/>
       <use xlink:href="#DejaVuSans-2e" x="63.623047"/>
       <use xlink:href="#DejaVuSans-30" x="95.410156"/>
      </g>
     </g>
    </g>
    <g id="text_7">
     <!-- FPR -->
     <g transform="translate(226.795156 335.860562)scale(0.1 -0.1)">
      <defs>
       <path id="DejaVuSans-46" d="M 628 4666 
L 3309 4666 
L 3309 4134 
L 1259 4134 
L 1259 2759 
L 3109 2759 
L 3109 2228 
L 1259 2228 
L 1259 0 
L 628 0 
L 628 4666 
z
" transform="scale(0.015625)"/>
       <path id="DejaVuSans-50" d="M 1259 4147 
L 1259 2394 
L 2053 2394 
Q 2494 2394 2734 2622 
Q 2975 2850 2975 3272 
Q 2975 3691 2734 3919 
Q 2494 4147 2053 4147 
L 1259 4147 
z
M 628 4666 
L 2053 4666 
Q 2838 4666 3239 4311 
Q 3641 3956 3641 3272 
Q 3641 2581 3239 2228 
Q 2838 1875 2053 1875 
L 1259 1875 
L 1259 0 
L 628 0 
L 628 4666 
z
" transform="scale(0.015625)"/>
       <path id="DejaVuSans-52" d="M 2841 2188 
Q 3044 2119 3236 1894 
Q 3428 1669 3622 1275 
L 4263 0 
L 3584 0 
L 2988 1197 
Q 2756 1666 2539 1819 
Q 2322 1972 1947 1972 
L 1259 1972 
L 1259 0 
L 628 0 
L 628 4666 
L 2053 4666 
Q 2853 4666 3247 4331 
Q 3641 3997 3641 3322 
Q 3641 2881 3436 2590 
Q 3231 2300 2841 2188 
z
M 1259 4147 
L 1259 2491 
L 2053 2491 
Q 2509 2491 2742 2702 
Q 2975 2913 2975 3322 
Q 2975 3731 2742 3939 
Q 2509 4147 2053 4147 
L 1259 4147 
z
" transform="scale(0.015625)"/>
      </defs>
      <use xlink:href="#DejaVuSans-46"/>
      <use xlink:href="#DejaVuSans-50" x="57.519531"/>
      <use xlink:href="#DejaVuSans-52" x="117.822266"/>
     </g>
    </g>
   </g>
   <g id="matplotlib.axis_2">
    <g id="ytick_1">
     <g id="line2d_7">
      <defs>
       <path id="m27062c26db" d="M 0 0 
L -3.5 0 
" style="stroke: #000000; stroke-width: 0.8"/>
      </defs>
      <g>
       <use xlink:href="#m27062c26db" x="102.880752" y="295.893906" style="stroke: #000000; stroke-width: 0.8"/>
      </g>
     </g>
     <g id="text_8">
      <!-- 0.0 -->
      <g transform="translate(79.977627 299.693125)scale(0.1 -0.1)">
       <use xlink:href="#DejaVuSans-30"/>
       <use xlink:href="#DejaVuSans-2e" x="63.623047"/>
       <use xlink:href="#DejaVuSans-30" x="95.410156"/>
      </g>
     </g>
    </g>
    <g id="ytick_2">
     <g id="line2d_8">
      <g>
       <use xlink:href="#m27062c26db" x="102.880752" y="247.428725" style="stroke: #000000; stroke-width: 0.8"/>
      </g>
     </g>
     <g id="text_9">
      <!-- 0.2 -->
      <g transform="translate(79.977627 251.227944)scale(0.1 -0.1)">
       <use xlink:href="#DejaVuSans-30"/>
       <use xlink:href="#DejaVuSans-2e" x="63.623047"/>
       <use xlink:href="#DejaVuSans-32" x="95.410156"/>
      </g>
     </g>
    </g>
    <g id="ytick_3">
     <g id="line2d_9">
      <g>
       <use xlink:href="#m27062c26db" x="102.880752" y="198.963544" style="stroke: #000000; stroke-width: 0.8"/>
      </g>
     </g>
     <g id="text_10">
      <!-- 0.4 -->
      <g transform="translate(79.977627 202.762762)scale(0.1 -0.1)">
       <use xlink:href="#DejaVuSans-30"/>
       <use xlink:href="#DejaVuSans-2e" x="63.623047"/>
       <use xlink:href="#DejaVuSans-34" x="95.410156"/>
      </g>
     </g>
    </g>
    <g id="ytick_4">
     <g id="line2d_10">
      <g>
       <use xlink:href="#m27062c26db" x="102.880752" y="150.498362" style="stroke: #000000; stroke-width: 0.8"/>
      </g>
     </g>
     <g id="text_11">
      <!-- 0.6 -->
      <g transform="translate(79.977627 154.297581)scale(0.1 -0.1)">
       <use xlink:href="#DejaVuSans-30"/>
       <use xlink:href="#DejaVuSans-2e" x="63.623047"/>
       <use xlink:href="#DejaVuSans-36" x="95.410156"/>
      </g>
     </g>
    </g>
    <g id="ytick_5">
     <g id="line2d_11">
      <g>
       <use xlink:href="#m27062c26db" x="102.880752" y="102.033181" style="stroke: #000000; stroke-width: 0.8"/>
      </g>
     </g>
     <g id="text_12">
      <!-- 0.8 -->
      <g transform="translate(79.977627 105.8324)scale(0.1 -0.1)">
       <use xlink:href="#DejaVuSans-30"/>
       <use xlink:href="#DejaVuSans-2e" x="63.623047"/>
       <use xlink:href="#DejaVuSans-38" x="95.410156"/>
      </g>
     </g>
    </g>
    <g id="ytick_6">
     <g id="line2d_12">
      <g>
       <use xlink:href="#m27062c26db" x="102.880752" y="53.568" style="stroke: #000000; stroke-width: 0.8"/>
      </g>
     </g>
     <g id="text_13">
      <!-- 1.0 -->
      <g transform="translate(79.977627 57.367219)scale(0.1 -0.1)">
       <use xlink:href="#DejaVuSans-31"/>
       <use xlink:href="#DejaVuSans-2e" x="63.623047"/>
       <use xlink:href="#DejaVuSans-30" x="95.410156"/>
      </g>
     </g>
    </g>
    <g id="text_14">
     <!-- TPR -->
     <g transform="translate(73.897939 184.070969)rotate(-90)scale(0.1 -0.1)">
      <defs>
       <path id="DejaVuSans-54" d="M -19 4666 
L 3928 4666 
L 3928 4134 
L 2272 4134 
L 2272 0 
L 1638 0 
L 1638 4134 
L -19 4134 
L -19 4666 
z
" transform="scale(0.015625)"/>
      </defs>
      <use xlink:href="#DejaVuSans-54"/>
      <use xlink:href="#DejaVuSans-50" x="61.083984"/>
      <use xlink:href="#DejaVuSans-52" x="121.386719"/>
     </g>
    </g>
   </g>
   <g id="line2d_13">
    <path d="M 114.997047 295.488 
L 115.147187 295.488 
L 115.147187 294.676188 
L 115.147187 294.676188 
L 115.297327 294.676188 
L 115.297327 294.676188 
L 115.297327 293.052564 
L 115.597607 293.052564 
L 115.597607 292.240752 
L 115.747747 292.240752 
L 115.747747 292.240752 
L 115.747747 288.993503 
L 115.747747 288.993503 
L 115.897887 288.993503 
L 115.897887 284.934443 
L 116.048027 284.934443 
L 116.048027 284.528537 
L 116.198167 284.528537 
L 116.198167 284.528537 
L 116.198167 278.03404 
L 116.198167 278.03404 
L 116.348307 278.03404 
L 116.348307 277.222228 
L 116.348307 277.222228 
L 116.498447 277.222228 
L 116.498447 277.222228 
L 116.498447 276.410416 
L 116.648587 276.410416 
L 116.648587 274.380886 
L 116.798727 274.380886 
L 116.798727 270.321826 
L 116.798727 270.321826 
L 116.948867 270.321826 
L 116.948867 267.886389 
L 117.099007 267.886389 
L 117.099007 266.262765 
L 117.249146 266.262765 
L 117.249146 263.827329 
L 117.249146 263.827329 
L 117.399286 263.827329 
L 117.399286 261.797799 
L 117.399286 261.797799 
L 117.549426 261.797799 
L 117.549426 261.797799 
L 117.549426 260.174174 
L 117.549426 260.174174 
L 117.699566 260.174174 
L 117.699566 259.768268 
L 117.849706 259.768268 
L 117.849706 259.768268 
L 117.849706 258.144644 
L 117.999846 258.144644 
L 117.999846 258.144644 
L 117.999846 255.709208 
L 118.149986 255.709208 
L 118.149986 252.056054 
L 118.149986 252.056054 
L 118.300126 252.056054 
L 118.300126 252.056054 
L 118.300126 251.650148 
L 118.450266 251.650148 
L 118.450266 250.838336 
L 118.450266 250.838336 
L 118.600406 250.838336 
L 118.600406 250.838336 
L 118.600406 249.620617 
L 118.900686 249.620617 
L 118.900686 249.620617 
L 118.900686 245.967463 
L 119.050826 245.967463 
L 119.050826 244.749745 
L 119.050826 244.749745 
L 119.200966 244.749745 
L 119.200966 244.749745 
L 119.200966 243.937933 
L 119.200966 243.937933 
L 119.501246 243.937933 
L 119.501246 243.937933 
L 119.501246 241.908403 
L 119.501246 241.908403 
L 119.651386 241.908403 
L 119.651386 241.908403 
L 119.651386 240.690685 
L 120.101806 240.690685 
L 120.101806 239.472966 
L 120.402086 239.472966 
L 120.402086 236.631624 
L 120.402086 236.631624 
L 120.852506 236.631624 
L 120.852506 236.631624 
L 120.852506 235.008 
L 120.852506 235.008 
L 121.002646 235.008 
L 121.002646 234.196188 
L 121.453066 234.196188 
L 121.453066 231.760752 
L 121.603206 231.760752 
L 121.603206 231.760752 
L 121.603206 230.137128 
L 121.603206 230.137128 
L 121.753345 230.137128 
L 121.753345 229.731221 
L 122.053625 229.731221 
L 122.053625 228.919409 
L 122.053625 228.919409 
L 122.353905 228.919409 
L 122.353905 227.295785 
L 122.504045 227.295785 
L 122.504045 225.672161 
L 122.654185 225.672161 
L 122.654185 225.266255 
L 122.804325 225.266255 
L 122.804325 225.266255 
L 122.804325 222.424913 
L 123.404885 222.424913 
L 123.404885 222.424913 
L 123.404885 222.019007 
L 123.404885 222.019007 
L 123.555025 222.019007 
L 123.555025 222.019007 
L 123.555025 221.207195 
L 123.855305 221.207195 
L 123.855305 220.801289 
L 124.305725 220.801289 
L 124.305725 220.801289 
L 124.305725 220.395383 
L 124.305725 220.395383 
L 124.606005 220.395383 
L 124.606005 219.989477 
L 124.606005 219.989477 
L 125.056425 219.989477 
L 125.056425 218.771758 
L 125.206565 218.771758 
L 125.206565 217.55404 
L 125.206565 217.55404 
L 125.356705 217.55404 
L 125.356705 215.118604 
L 125.506845 215.118604 
L 125.506845 215.118604 
L 125.506845 214.712698 
L 125.656985 214.712698 
L 125.656985 213.089074 
L 125.957265 213.089074 
L 125.957265 213.089074 
L 125.957265 210.653638 
L 125.957265 210.653638 
L 126.107405 210.653638 
L 126.107405 210.653638 
L 126.107405 210.247732 
L 126.257544 210.247732 
L 126.257544 209.435919 
L 126.257544 209.435919 
L 126.707964 209.435919 
L 126.707964 209.435919 
L 126.707964 209.030013 
L 126.707964 209.030013 
L 127.158384 209.030013 
L 127.158384 206.594577 
L 127.158384 206.594577 
L 127.458664 206.594577 
L 127.458664 205.376859 
L 127.458664 205.376859 
L 127.608804 205.376859 
L 127.608804 205.376859 
L 127.608804 204.970953 
L 127.758944 204.970953 
L 127.758944 204.970953 
L 127.758944 203.753235 
L 127.758944 203.753235 
L 127.909084 203.753235 
L 127.909084 203.347329 
L 128.059224 203.347329 
L 128.059224 203.347329 
L 128.059224 202.535517 
L 128.209364 202.535517 
L 128.209364 202.129611 
L 128.359504 202.129611 
L 128.359504 202.129611 
L 128.359504 201.723705 
L 128.809924 201.723705 
L 128.809924 199.288268 
L 128.809924 199.288268 
L 128.960064 199.288268 
L 128.960064 198.07055 
L 129.110204 198.07055 
L 129.110204 196.446926 
L 129.260344 196.446926 
L 129.260344 196.446926 
L 129.260344 196.04102 
L 129.410484 196.04102 
L 129.410484 196.04102 
L 129.410484 195.229208 
L 129.410484 195.229208 
L 129.710764 195.229208 
L 129.710764 195.229208 
L 129.710764 193.199678 
L 130.311324 193.199678 
L 130.311324 191.576054 
L 130.611604 191.576054 
L 130.611604 190.764242 
L 132.263143 190.764242 
L 132.263143 189.546523 
L 132.413283 189.546523 
L 132.413283 189.546523 
L 132.413283 189.140617 
L 132.413283 189.140617 
L 133.163983 189.140617 
L 133.163983 188.734711 
L 133.314123 188.734711 
L 133.314123 188.734711 
L 133.314123 188.328805 
L 133.614403 188.328805 
L 133.614403 187.922899 
L 133.614403 187.922899 
L 133.914683 187.922899 
L 133.914683 187.922899 
L 133.914683 187.516993 
L 134.515243 187.516993 
L 134.515243 186.299275 
L 134.515243 186.299275 
L 134.665383 186.299275 
L 134.665383 186.299275 
L 134.665383 185.487463 
L 134.665383 185.487463 
L 135.265942 185.487463 
L 135.265942 185.081557 
L 135.566222 185.081557 
L 135.566222 184.675651 
L 136.316922 184.675651 
L 136.316922 184.269745 
L 136.316922 184.269745 
L 136.617202 184.269745 
L 136.617202 183.863839 
L 136.917482 183.863839 
L 136.917482 181.428403 
L 136.917482 181.428403 
L 137.518042 181.428403 
L 137.518042 181.428403 
L 137.518042 180.616591 
L 137.668182 180.616591 
L 137.668182 180.210685 
L 138.418882 180.210685 
L 138.418882 178.992966 
L 138.719162 178.992966 
L 138.719162 178.58706 
L 139.169582 178.58706 
L 139.169582 178.58706 
L 139.169582 177.775248 
L 139.469862 177.775248 
L 139.469862 177.775248 
L 139.469862 177.369342 
L 139.920281 177.369342 
L 139.920281 176.55753 
L 140.070421 176.55753 
L 140.070421 176.151624 
L 140.821121 176.151624 
L 140.821121 176.151624 
L 140.821121 175.745718 
L 141.421681 175.745718 
L 141.421681 175.745718 
L 141.421681 174.933906 
L 141.421681 174.933906 
L 141.571821 174.933906 
L 141.571821 174.528 
L 142.322521 174.528 
L 142.322521 174.528 
L 142.322521 174.122094 
L 142.923081 174.122094 
L 142.923081 173.716188 
L 143.073221 173.716188 
L 143.073221 173.716188 
L 143.073221 173.310282 
L 143.223361 173.310282 
L 143.223361 172.904376 
L 143.373501 172.904376 
L 143.373501 172.49847 
L 143.373501 172.49847 
L 143.523641 172.49847 
L 143.523641 171.280752 
L 143.523641 171.280752 
L 143.974061 171.280752 
L 143.974061 170.874846 
L 144.57462 170.874846 
L 144.57462 170.874846 
L 144.57462 170.46894 
L 144.8749 170.46894 
L 144.8749 169.251221 
L 145.17518 169.251221 
L 145.17518 169.251221 
L 145.17518 168.845315 
L 145.17518 168.845315 
L 145.32532 168.845315 
L 145.32532 168.033503 
L 145.47546 168.033503 
L 145.47546 167.627597 
L 145.92588 167.627597 
L 145.92588 166.815785 
L 146.3763 166.815785 
L 146.3763 166.815785 
L 146.3763 165.598067 
L 146.82672 165.598067 
L 146.82672 165.192161 
L 146.82672 165.192161 
L 147.42728 165.192161 
L 147.42728 164.786255 
L 147.42728 164.786255 
L 147.57742 164.786255 
L 147.57742 164.786255 
L 147.57742 163.974443 
L 148.02784 163.974443 
L 148.02784 163.974443 
L 148.02784 163.568537 
L 148.778539 163.568537 
L 148.778539 162.756725 
L 148.778539 162.756725 
L 148.928679 162.756725 
L 148.928679 162.350819 
L 149.078819 162.350819 
L 149.078819 162.350819 
L 149.078819 161.539007 
L 149.078819 161.539007 
L 149.529239 161.539007 
L 149.529239 159.509477 
L 149.829519 159.509477 
L 149.829519 159.509477 
L 149.829519 159.10357 
L 150.129799 159.10357 
L 150.129799 158.291758 
L 150.129799 158.291758 
L 150.430079 158.291758 
L 150.430079 157.885852 
L 150.730359 157.885852 
L 150.730359 157.885852 
L 150.730359 157.479946 
L 150.880499 157.479946 
L 150.880499 156.668134 
L 152.231759 156.668134 
L 152.231759 156.668134 
L 152.231759 155.856322 
L 152.231759 155.856322 
L 152.832319 155.856322 
L 152.832319 155.856322 
L 152.832319 155.450416 
L 153.282738 155.450416 
L 153.282738 155.450416 
L 153.282738 155.04451 
L 154.633998 155.04451 
L 154.633998 155.04451 
L 154.633998 154.232698 
L 155.384698 154.232698 
L 155.384698 153.826792 
L 156.435678 153.826792 
L 156.435678 153.420886 
L 157.786937 153.420886 
L 157.786937 153.01498 
L 157.786937 153.01498 
L 158.087217 153.01498 
L 158.087217 153.01498 
L 158.087217 152.609074 
L 158.237357 152.609074 
L 158.237357 152.203168 
L 158.687777 152.203168 
L 158.687777 151.797262 
L 158.988057 151.797262 
L 158.988057 151.391356 
L 158.988057 151.391356 
L 159.138197 151.391356 
L 159.138197 150.98545 
L 159.438477 150.98545 
L 159.438477 150.98545 
L 159.438477 150.579544 
L 160.189177 150.579544 
L 160.189177 150.579544 
L 160.189177 149.361826 
L 160.489457 149.361826 
L 160.489457 149.361826 
L 160.489457 148.550013 
L 160.489457 148.550013 
L 160.939877 148.550013 
L 160.939877 147.738201 
L 162.140996 147.738201 
L 162.140996 147.332295 
L 163.792536 147.332295 
L 163.792536 146.926389 
L 163.792536 146.926389 
L 164.092816 146.926389 
L 164.092816 146.520483 
L 164.543236 146.520483 
L 164.543236 146.114577 
L 165.744356 146.114577 
L 165.744356 146.114577 
L 165.744356 145.302765 
L 165.744356 145.302765 
L 166.495056 145.302765 
L 166.495056 142.461423 
L 167.395895 142.461423 
L 167.395895 142.055517 
L 168.296735 142.055517 
L 168.296735 141.649611 
L 168.747155 141.649611 
L 168.747155 141.243705 
L 168.897295 141.243705 
L 168.897295 140.837799 
L 168.897295 140.837799 
L 169.347715 140.837799 
L 169.347715 140.431893 
L 169.347715 140.431893 
L 169.798135 140.431893 
L 169.798135 140.025987 
L 169.798135 140.025987 
L 170.548835 140.025987 
L 170.548835 140.025987 
L 170.548835 139.214174 
L 172.200374 139.214174 
L 172.200374 139.214174 
L 172.200374 138.808268 
L 172.200374 138.808268 
L 172.650794 138.808268 
L 172.650794 138.402362 
L 173.101214 138.402362 
L 173.101214 138.402362 
L 173.101214 137.996456 
L 173.101214 137.996456 
L 173.851914 137.996456 
L 173.851914 136.778738 
L 173.851914 136.778738 
L 174.452474 136.778738 
L 174.452474 136.372832 
L 175.203174 136.372832 
L 175.203174 135.56102 
L 175.203174 135.56102 
L 175.653593 135.56102 
L 175.653593 135.56102 
L 175.653593 135.155114 
L 175.653593 135.155114 
L 176.704573 135.155114 
L 176.704573 135.155114 
L 176.704573 134.749208 
L 176.854713 134.749208 
L 176.854713 134.343302 
L 177.905693 134.343302 
L 177.905693 134.343302 
L 177.905693 133.937396 
L 177.905693 133.937396 
L 178.205973 133.937396 
L 178.205973 133.53149 
L 178.656393 133.53149 
L 178.656393 133.125584 
L 178.806533 133.125584 
L 178.806533 132.719678 
L 179.256953 132.719678 
L 179.256953 132.313772 
L 179.707373 132.313772 
L 179.707373 132.313772 
L 179.707373 131.907866 
L 180.458072 131.907866 
L 180.458072 131.907866 
L 180.458072 131.096054 
L 180.458072 131.096054 
L 181.659192 131.096054 
L 181.659192 131.096054 
L 181.659192 130.690148 
L 181.809332 130.690148 
L 181.809332 130.284242 
L 182.560032 130.284242 
L 182.560032 129.878336 
L 182.560032 129.878336 
L 182.710172 129.878336 
L 182.710172 129.878336 
L 182.710172 129.066523 
L 182.710172 129.066523 
L 184.061432 129.066523 
L 184.061432 128.660617 
L 184.661991 128.660617 
L 184.661991 128.254711 
L 184.962271 128.254711 
L 184.962271 128.254711 
L 184.962271 127.848805 
L 185.712971 127.848805 
L 185.712971 127.036993 
L 186.463671 127.036993 
L 186.463671 127.036993 
L 186.463671 126.631087 
L 186.463671 126.631087 
L 186.763951 126.631087 
L 186.763951 126.631087 
L 186.763951 126.225181 
L 187.214371 126.225181 
L 187.214371 125.819275 
L 188.565631 125.819275 
L 188.565631 125.819275 
L 188.565631 125.413369 
L 188.715771 125.413369 
L 188.715771 125.413369 
L 188.715771 124.601557 
L 188.715771 124.601557 
L 189.91689 124.601557 
L 189.91689 123.789745 
L 190.06703 123.789745 
L 190.06703 123.383839 
L 191.41829 123.383839 
L 191.41829 123.383839 
L 191.41829 122.572027 
L 191.56843 122.572027 
L 191.56843 122.572027 
L 191.56843 122.166121 
L 191.71857 122.166121 
L 191.71857 121.760215 
L 191.86871 121.760215 
L 191.86871 121.354309 
L 192.16899 121.354309 
L 192.16899 120.948403 
L 192.16899 120.948403 
L 192.61941 120.948403 
L 192.61941 120.948403 
L 192.61941 120.542497 
L 193.06983 120.542497 
L 193.06983 120.136591 
L 194.120809 120.136591 
L 194.120809 119.730685 
L 194.270949 119.730685 
L 194.270949 119.324779 
L 194.721369 119.324779 
L 194.721369 118.918872 
L 195.472069 118.918872 
L 195.472069 118.512966 
L 197.123609 118.512966 
L 197.123609 118.10706 
L 197.273749 118.10706 
L 197.273749 117.701154 
L 197.724169 117.701154 
L 197.724169 117.295248 
L 198.625008 117.295248 
L 198.625008 117.295248 
L 198.625008 116.889342 
L 198.925288 116.889342 
L 198.925288 116.889342 
L 198.925288 116.483436 
L 200.877108 116.483436 
L 200.877108 116.483436 
L 200.877108 115.265718 
L 201.027248 115.265718 
L 201.027248 115.265718 
L 201.027248 114.859812 
L 201.027248 114.859812 
L 201.627808 114.859812 
L 201.627808 114.453906 
L 202.228368 114.453906 
L 202.228368 114.453906 
L 202.228368 113.236188 
L 202.228368 113.236188 
L 204.630607 113.236188 
L 204.630607 113.236188 
L 204.630607 112.830282 
L 204.930887 112.830282 
L 204.930887 112.830282 
L 204.930887 112.424376 
L 204.930887 112.424376 
L 206.282147 112.424376 
L 206.282147 112.424376 
L 206.282147 112.01847 
L 206.282147 112.01847 
L 206.732567 112.01847 
L 206.732567 112.01847 
L 206.732567 111.206658 
L 206.732567 111.206658 
L 207.783546 111.206658 
L 207.783546 110.800752 
L 208.233966 110.800752 
L 208.233966 110.394846 
L 208.233966 110.394846 
L 208.984666 110.394846 
L 208.984666 110.394846 
L 208.984666 109.583034 
L 208.984666 109.583034 
L 209.134806 109.583034 
L 209.134806 109.583034 
L 209.134806 109.177128 
L 209.134806 109.177128 
L 209.435086 109.177128 
L 209.435086 108.771221 
L 211.386906 108.771221 
L 211.386906 108.365315 
L 211.386906 108.365315 
L 214.990265 108.365315 
L 214.990265 107.959409 
L 215.440685 107.959409 
L 215.440685 107.553503 
L 216.341524 107.553503 
L 216.341524 107.553503 
L 216.341524 107.147597 
L 216.341524 107.147597 
L 216.491664 107.147597 
L 216.491664 106.741691 
L 216.491664 106.741691 
L 216.942084 106.741691 
L 216.942084 106.741691 
L 216.942084 106.335785 
L 216.942084 106.335785 
L 217.542644 106.335785 
L 217.542644 106.335785 
L 217.542644 105.929879 
L 217.542644 105.929879 
L 217.993064 105.929879 
L 217.993064 105.929879 
L 217.993064 105.523973 
L 217.993064 105.523973 
L 218.743764 105.523973 
L 218.743764 105.523973 
L 218.743764 105.118067 
L 218.743764 105.118067 
L 218.893904 105.118067 
L 218.893904 105.118067 
L 218.893904 104.712161 
L 219.194184 104.712161 
L 219.194184 104.306255 
L 220.245164 104.306255 
L 220.245164 103.900349 
L 220.545443 103.900349 
L 220.545443 103.494443 
L 220.995863 103.494443 
L 220.995863 103.088537 
L 222.797543 103.088537 
L 222.797543 103.088537 
L 222.797543 102.682631 
L 222.797543 102.682631 
L 225.199782 102.682631 
L 225.199782 102.276725 
L 225.199782 102.276725 
L 225.500062 102.276725 
L 225.500062 102.276725 
L 225.500062 101.870819 
L 225.800342 101.870819 
L 225.800342 101.464913 
L 225.950482 101.464913 
L 225.950482 100.653101 
L 227.151602 100.653101 
L 227.151602 100.653101 
L 227.151602 99.841289 
L 228.803142 99.841289 
L 228.803142 99.435383 
L 229.553841 99.435383 
L 229.553841 99.435383 
L 229.553841 99.029477 
L 229.553841 99.029477 
L 230.154401 99.029477 
L 230.154401 98.217664 
L 230.454681 98.217664 
L 230.454681 98.217664 
L 230.454681 97.405852 
L 231.805941 97.405852 
L 231.805941 97.405852 
L 231.805941 96.999946 
L 231.805941 96.999946 
L 232.106221 96.999946 
L 232.106221 96.999946 
L 232.106221 96.59404 
L 232.406501 96.59404 
L 232.406501 96.59404 
L 232.406501 96.188134 
L 232.706781 96.188134 
L 232.706781 96.188134 
L 232.706781 95.782228 
L 232.856921 95.782228 
L 232.856921 95.376322 
L 233.307341 95.376322 
L 233.307341 95.376322 
L 233.307341 94.970416 
L 235.70958 94.970416 
L 235.70958 94.970416 
L 235.70958 94.56451 
L 237.21098 94.56451 
L 237.21098 94.56451 
L 237.21098 94.158604 
L 242.766159 94.158604 
L 242.766159 93.752698 
L 243.366718 93.752698 
L 243.366718 93.346792 
L 243.366718 93.346792 
L 243.817138 93.346792 
L 243.817138 92.53498 
L 244.117418 92.53498 
L 244.117418 92.53498 
L 244.117418 92.129074 
L 246.069238 92.129074 
L 246.069238 92.129074 
L 246.069238 91.317262 
L 246.069238 91.317262 
L 246.369518 91.317262 
L 246.369518 91.317262 
L 246.369518 90.911356 
L 247.270358 90.911356 
L 247.270358 90.911356 
L 247.270358 90.50545 
L 247.270358 90.50545 
L 247.420497 90.50545 
L 247.420497 90.099544 
L 247.420497 90.099544 
L 249.372317 90.099544 
L 249.372317 90.099544 
L 249.372317 89.693638 
L 250.273157 89.693638 
L 250.273157 89.693638 
L 250.273157 89.287732 
L 250.423297 89.287732 
L 250.423297 89.287732 
L 250.423297 88.881826 
L 250.423297 88.881826 
L 250.723577 88.881826 
L 250.723577 88.475919 
L 251.624417 88.475919 
L 251.624417 88.475919 
L 251.624417 88.070013 
L 252.074836 88.070013 
L 252.074836 87.664107 
L 252.375116 87.664107 
L 252.375116 87.258201 
L 253.125816 87.258201 
L 253.125816 86.852295 
L 253.125816 86.852295 
L 254.927496 86.852295 
L 254.927496 86.852295 
L 254.927496 86.446389 
L 255.528056 86.446389 
L 255.528056 86.446389 
L 255.528056 86.040483 
L 255.528056 86.040483 
L 256.729175 86.040483 
L 256.729175 86.040483 
L 256.729175 85.634577 
L 258.981275 85.634577 
L 258.981275 85.228671 
L 258.981275 85.228671 
L 260.032255 85.228671 
L 260.032255 85.228671 
L 260.032255 84.822765 
L 263.785754 84.822765 
L 263.785754 84.822765 
L 263.785754 84.416859 
L 263.935894 84.416859 
L 263.935894 84.416859 
L 263.935894 83.605047 
L 263.935894 83.605047 
L 264.536454 83.605047 
L 264.536454 83.199141 
L 264.986874 83.199141 
L 264.986874 83.199141 
L 264.986874 82.793235 
L 264.986874 82.793235 
L 267.689393 82.793235 
L 267.689393 82.387329 
L 268.289953 82.387329 
L 268.289953 82.387329 
L 268.289953 81.981423 
L 269.040653 81.981423 
L 269.040653 81.575517 
L 269.040653 81.575517 
L 270.992472 81.575517 
L 270.992472 81.575517 
L 270.992472 81.169611 
L 271.292752 81.169611 
L 271.292752 80.763705 
L 272.794152 80.763705 
L 272.794152 80.763705 
L 272.794152 80.357799 
L 272.794152 80.357799 
L 273.544852 80.357799 
L 273.544852 80.357799 
L 273.544852 79.951893 
L 273.544852 79.951893 
L 275.646811 79.951893 
L 275.646811 79.545987 
L 275.947091 79.545987 
L 275.947091 79.140081 
L 278.799751 79.140081 
L 278.799751 78.734174 
L 279.10003 78.734174 
L 279.10003 78.734174 
L 279.10003 78.328268 
L 285.105629 78.328268 
L 285.105629 77.516456 
L 285.105629 77.516456 
L 285.405909 77.516456 
L 285.405909 77.11055 
L 287.658009 77.11055 
L 287.658009 76.704644 
L 289.609828 76.704644 
L 289.609828 76.704644 
L 289.609828 76.298738 
L 290.660808 76.298738 
L 290.660808 76.298738 
L 290.660808 75.892832 
L 290.660808 75.892832 
L 291.261368 75.892832 
L 291.261368 75.486926 
L 291.261368 75.486926 
L 292.012068 75.486926 
L 292.012068 75.486926 
L 292.012068 74.675114 
L 292.012068 74.675114 
L 293.813747 74.675114 
L 293.813747 74.675114 
L 293.813747 74.269208 
L 294.264167 74.269208 
L 294.264167 73.863302 
L 294.264167 73.863302 
L 296.816546 73.863302 
L 296.816546 73.863302 
L 296.816546 73.457396 
L 296.816546 73.457396 
L 297.417106 73.457396 
L 297.417106 73.05149 
L 297.567246 73.05149 
L 297.567246 72.645584 
L 297.567246 72.645584 
L 301.470885 72.645584 
L 301.470885 72.645584 
L 301.470885 72.239678 
L 302.071445 72.239678 
L 302.071445 71.833772 
L 302.521865 71.833772 
L 302.521865 71.427866 
L 305.224385 71.427866 
L 305.224385 71.02196 
L 306.125224 71.02196 
L 306.125224 70.616054 
L 309.878724 70.616054 
L 309.878724 70.210148 
L 311.530263 70.210148 
L 311.530263 69.804242 
L 311.830543 69.804242 
L 311.830543 69.804242 
L 311.830543 69.398336 
L 313.031663 69.398336 
L 313.031663 69.398336 
L 313.031663 68.586523 
L 313.031663 68.586523 
L 314.082643 68.586523 
L 314.082643 68.180617 
L 314.833342 68.180617 
L 314.833342 67.774711 
L 316.034462 67.774711 
L 316.034462 67.774711 
L 316.034462 67.368805 
L 320.088241 67.368805 
L 320.088241 67.368805 
L 320.088241 66.962899 
L 320.238381 66.962899 
L 320.238381 66.962899 
L 320.238381 66.556993 
L 320.688801 66.556993 
L 320.688801 66.151087 
L 322.640621 66.151087 
L 322.640621 66.151087 
L 322.640621 65.745181 
L 323.241181 65.745181 
L 323.241181 65.745181 
L 323.241181 65.339275 
L 326.6944 65.339275 
L 326.6944 65.339275 
L 326.6944 64.933369 
L 327.89552 64.933369 
L 327.89552 64.527463 
L 327.89552 64.527463 
L 330.147619 64.527463 
L 330.147619 64.121557 
L 331.498879 64.121557 
L 331.498879 64.121557 
L 331.498879 63.715651 
L 332.549859 63.715651 
L 332.549859 63.309745 
L 334.051258 63.309745 
L 334.051258 63.309745 
L 334.051258 62.903839 
L 334.201398 62.903839 
L 334.201398 61.686121 
L 338.105037 61.686121 
L 338.105037 61.280215 
L 338.105037 61.280215 
L 338.705597 61.280215 
L 338.705597 61.280215 
L 338.705597 60.874309 
L 339.606437 60.874309 
L 339.606437 60.468403 
L 340.507277 60.468403 
L 340.507277 60.468403 
L 340.507277 60.062497 
L 340.957697 60.062497 
L 340.957697 59.656591 
L 341.257977 59.656591 
L 341.257977 59.656591 
L 341.257977 59.250685 
L 343.059656 59.250685 
L 343.059656 58.844779 
L 343.810356 58.844779 
L 343.810356 58.438872 
L 345.161616 58.438872 
L 345.161616 58.032966 
L 346.062456 58.032966 
L 346.062456 57.62706 
L 346.062456 57.62706 
L 347.113435 57.62706 
L 347.113435 57.221154 
L 348.314555 57.221154 
L 348.314555 56.815248 
L 348.314555 56.815248 
L 349.065255 56.815248 
L 349.065255 56.409342 
L 349.065255 56.409342 
L 349.665815 56.409342 
L 349.665815 56.409342 
L 349.665815 56.003436 
L 349.665815 56.003436 
L 350.116235 56.003436 
L 350.116235 55.59753 
L 350.116235 55.59753 
L 354.019874 55.59753 
L 354.019874 55.59753 
L 354.019874 55.191624 
L 355.220993 55.191624 
L 355.220993 55.191624 
L 355.220993 54.379812 
L 355.371133 54.379812 
L 355.371133 54.379812 
L 355.371133 53.973906 
L 355.821553 53.973906 
L 355.821553 53.568 
L 357.322953 53.568 
L 357.322953 53.568 
" clip-path="url(#p9bfa351978)" style="fill: none; stroke: #1f77b4; stroke-width: 1.5; stroke-linecap: square"/>
   </g>
   <g id="line2d_14">
    <path d="M 150.880499 156.668134 
" clip-path="url(#p9bfa351978)" style="fill: none; stroke: #ff0000; stroke-width: 1.5; stroke-linecap: square"/>
    <defs>
     <path id="mb85e233a66" d="M 0 3 
C 0.795609 3 1.55874 2.683901 2.12132 2.12132 
C 2.683901 1.55874 3 0.795609 3 0 
C 3 -0.795609 2.683901 -1.55874 2.12132 -2.12132 
C 1.55874 -2.683901 0.795609 -3 0 -3 
C -0.795609 -3 -1.55874 -2.683901 -2.12132 -2.12132 
C -2.683901 -1.55874 -3 -0.795609 -3 0 
C -3 0.795609 -2.683901 1.55874 -2.12132 2.12132 
C -1.55874 2.683901 -0.795609 3 0 3 
z
" style="stroke: #ff0000"/>
    </defs>
    <g clip-path="url(#p9bfa351978)">
     <use xlink:href="#mb85e233a66" x="150.880499" y="156.668134" style="fill: #ff0000; stroke: #ff0000"/>
    </g>
   </g>
   <g id="patch_3">
    <path d="M 102.880752 307.584 
L 102.880752 41.472 
" style="fill: none; stroke: #000000; stroke-width: 0.8; stroke-linejoin: miter; stroke-linecap: square"/>
   </g>
   <g id="patch_4">
    <path d="M 369.439248 307.584 
L 369.439248 41.472 
" style="fill: none; stroke: #000000; stroke-width: 0.8; stroke-linejoin: miter; stroke-linecap: square"/>
   </g>
   <g id="patch_5">
    <path d="M 102.880752 307.584 
L 369.439248 307.584 
" style="fill: none; stroke: #000000; stroke-width: 0.8; stroke-linejoin: miter; stroke-linecap: square"/>
   </g>
   <g id="patch_6">
    <path d="M 102.880752 41.472 
L 369.439248 41.472 
" style="fill: none; stroke: #000000; stroke-width: 0.8; stroke-linejoin: miter; stroke-linecap: square"/>
   </g>
   <g id="text_15">
    <!-- AUC = 0.77 -->
    <g transform="translate(114.997047 77.800591)scale(0.1 -0.1)">
     <defs>
      <path id="DejaVuSans-41" d="M 2188 4044 
L 1331 1722 
L 3047 1722 
L 2188 4044 
z
M 1831 4666 
L 2547 4666 
L 4325 0 
L 3669 0 
L 3244 1197 
L 1141 1197 
L 716 0 
L 50 0 
L 1831 4666 
z
" transform="scale(0.015625)"/>
      <path id="DejaVuSans-55" d="M 556 4666 
L 1191 4666 
L 1191 1831 
Q 1191 1081 1462 751 
Q 1734 422 2344 422 
Q 2950 422 3222 751 
Q 3494 1081 3494 1831 
L 3494 4666 
L 4128 4666 
L 4128 1753 
Q 4128 841 3676 375 
Q 3225 -91 2344 -91 
Q 1459 -91 1007 375 
Q 556 841 556 1753 
L 556 4666 
z
" transform="scale(0.015625)"/>
      <path id="DejaVuSans-43" d="M 4122 4306 
L 4122 3641 
Q 3803 3938 3442 4084 
Q 3081 4231 2675 4231 
Q 1875 4231 1450 3742 
Q 1025 3253 1025 2328 
Q 1025 1406 1450 917 
Q 1875 428 2675 428 
Q 3081 428 3442 575 
Q 3803 722 4122 1019 
L 4122 359 
Q 3791 134 3420 21 
Q 3050 -91 2638 -91 
Q 1578 -91 968 557 
Q 359 1206 359 2328 
Q 359 3453 968 4101 
Q 1578 4750 2638 4750 
Q 3056 4750 3426 4639 
Q 3797 4528 4122 4306 
z
" transform="scale(0.015625)"/>
      <path id="DejaVuSans-20" transform="scale(0.015625)"/>
      <path id="DejaVuSans-3d" d="M 678 2906 
L 4684 2906 
L 4684 2381 
L 678 2381 
L 678 2906 
z
M 678 1631 
L 4684 1631 
L 4684 1100 
L 678 1100 
L 678 1631 
z
" transform="scale(0.015625)"/>
      <path id="DejaVuSans-37" d="M 525 4666 
L 3525 4666 
L 3525 4397 
L 1831 0 
L 1172 0 
L 2766 4134 
L 525 4134 
L 525 4666 
z
" transform="scale(0.015625)"/>
     </defs>
     <use xlink:href="#DejaVuSans-41"/>
     <use xlink:href="#DejaVuSans-55" x="68.408203"/>
     <use xlink:href="#DejaVuSans-43" x="141.601562"/>
     <use xlink:href="#DejaVuSans-20" x="211.425781"/>
     <use xlink:href="#DejaVuSans-3d" x="243.212891"/>
     <use xlink:href="#DejaVuSans-20" x="327.001953"/>
     <use xlink:href="#DejaVuSans-30" x="358.789062"/>
     <use xlink:href="#DejaVuSans-2e" x="422.412109"/>
     <use xlink:href="#DejaVuSans-37" x="454.199219"/>
     <use xlink:href="#DejaVuSans-37" x="517.822266"/>
    </g>
   </g>
   <g id="text_16">
    <!-- Cut-off Point -->
    <g transform="translate(162.996794 170.621395)scale(0.1 -0.1)">
     <defs>
      <path id="DejaVuSans-75" d="M 544 1381 
L 544 3500 
L 1119 3500 
L 1119 1403 
Q 1119 906 1312 657 
Q 1506 409 1894 409 
Q 2359 409 2629 706 
Q 2900 1003 2900 1516 
L 2900 3500 
L 3475 3500 
L 3475 0 
L 2900 0 
L 2900 538 
Q 2691 219 2414 64 
Q 2138 -91 1772 -91 
Q 1169 -91 856 284 
Q 544 659 544 1381 
z
M 1991 3584 
L 1991 3584 
z
" transform="scale(0.015625)"/>
      <path id="DejaVuSans-74" d="M 1172 4494 
L 1172 3500 
L 2356 3500 
L 2356 3053 
L 1172 3053 
L 1172 1153 
Q 1172 725 1289 603 
Q 1406 481 1766 481 
L 2356 481 
L 2356 0 
L 1766 0 
Q 1100 0 847 248 
Q 594 497 594 1153 
L 594 3053 
L 172 3053 
L 172 3500 
L 594 3500 
L 594 4494 
L 1172 4494 
z
" transform="scale(0.015625)"/>
      <path id="DejaVuSans-2d" d="M 313 2009 
L 1997 2009 
L 1997 1497 
L 313 1497 
L 313 2009 
z
" transform="scale(0.015625)"/>
      <path id="DejaVuSans-6f" d="M 1959 3097 
Q 1497 3097 1228 2736 
Q 959 2375 959 1747 
Q 959 1119 1226 758 
Q 1494 397 1959 397 
Q 2419 397 2687 759 
Q 2956 1122 2956 1747 
Q 2956 2369 2687 2733 
Q 2419 3097 1959 3097 
z
M 1959 3584 
Q 2709 3584 3137 3096 
Q 3566 2609 3566 1747 
Q 3566 888 3137 398 
Q 2709 -91 1959 -91 
Q 1206 -91 779 398 
Q 353 888 353 1747 
Q 353 2609 779 3096 
Q 1206 3584 1959 3584 
z
" transform="scale(0.015625)"/>
      <path id="DejaVuSans-66" d="M 2375 4863 
L 2375 4384 
L 1825 4384 
Q 1516 4384 1395 4259 
Q 1275 4134 1275 3809 
L 1275 3500 
L 2222 3500 
L 2222 3053 
L 1275 3053 
L 1275 0 
L 697 0 
L 697 3053 
L 147 3053 
L 147 3500 
L 697 3500 
L 697 3744 
Q 697 4328 969 4595 
Q 1241 4863 1831 4863 
L 2375 4863 
z
" transform="scale(0.015625)"/>
      <path id="DejaVuSans-69" d="M 603 3500 
L 1178 3500 
L 1178 0 
L 603 0 
L 603 3500 
z
M 603 4863 
L 1178 4863 
L 1178 4134 
L 603 4134 
L 603 4863 
z
" transform="scale(0.015625)"/>
      <path id="DejaVuSans-6e" d="M 3513 2113 
L 3513 0 
L 2938 0 
L 2938 2094 
Q 2938 2591 2744 2837 
Q 2550 3084 2163 3084 
Q 1697 3084 1428 2787 
Q 1159 2491 1159 1978 
L 1159 0 
L 581 0 
L 581 3500 
L 1159 3500 
L 1159 2956 
Q 1366 3272 1645 3428 
Q 1925 3584 2291 3584 
Q 2894 3584 3203 3211 
Q 3513 2838 3513 2113 
z
" transform="scale(0.015625)"/>
     </defs>
     <use xlink:href="#DejaVuSans-43"/>
     <use xlink:href="#DejaVuSans-75" x="69.824219"/>
     <use xlink:href="#DejaVuSans-74" x="133.203125"/>
     <use xlink:href="#DejaVuSans-2d" x="172.412109"/>
     <use xlink:href="#DejaVuSans-6f" x="210.371094"/>
     <use xlink:href="#DejaVuSans-66" x="271.552734"/>
     <use xlink:href="#DejaVuSans-66" x="306.757812"/>
     <use xlink:href="#DejaVuSans-20" x="341.962891"/>
     <use xlink:href="#DejaVuSans-50" x="373.75"/>
     <use xlink:href="#DejaVuSans-6f" x="430.427734"/>
     <use xlink:href="#DejaVuSans-69" x="491.609375"/>
     <use xlink:href="#DejaVuSans-6e" x="519.392578"/>
     <use xlink:href="#DejaVuSans-74" x="582.771484"/>
    </g>
    <!-- FPR=0.148 -->
    <g transform="translate(162.996794 181.819208)scale(0.1 -0.1)">
     <use xlink:href="#DejaVuSans-46"/>
     <use xlink:href="#DejaVuSans-50" x="57.519531"/>
     <use xlink:href="#DejaVuSans-52" x="117.822266"/>
     <use xlink:href="#DejaVuSans-3d" x="187.304688"/>
     <use xlink:href="#DejaVuSans-30" x="271.09375"/>
     <use xlink:href="#DejaVuSans-2e" x="334.716797"/>
     <use xlink:href="#DejaVuSans-31" x="366.503906"/>
     <use xlink:href="#DejaVuSans-34" x="430.126953"/>
     <use xlink:href="#DejaVuSans-38" x="493.75"/>
    </g>
    <!-- TPR=0.575 -->
    <g transform="translate(162.996794 193.01702)scale(0.1 -0.1)">
     <defs>
      <path id="DejaVuSans-35" d="M 691 4666 
L 3169 4666 
L 3169 4134 
L 1269 4134 
L 1269 2991 
Q 1406 3038 1543 3061 
Q 1681 3084 1819 3084 
Q 2600 3084 3056 2656 
Q 3513 2228 3513 1497 
Q 3513 744 3044 326 
Q 2575 -91 1722 -91 
Q 1428 -91 1123 -41 
Q 819 9 494 109 
L 494 744 
Q 775 591 1075 516 
Q 1375 441 1709 441 
Q 2250 441 2565 725 
Q 2881 1009 2881 1497 
Q 2881 1984 2565 2268 
Q 2250 2553 1709 2553 
Q 1456 2553 1204 2497 
Q 953 2441 691 2322 
L 691 4666 
z
" transform="scale(0.015625)"/>
     </defs>
     <use xlink:href="#DejaVuSans-54"/>
     <use xlink:href="#DejaVuSans-50" x="61.083984"/>
     <use xlink:href="#DejaVuSans-52" x="121.386719"/>
     <use xlink:href="#DejaVuSans-3d" x="190.869141"/>
     <use xlink:href="#DejaVuSans-30" x="274.658203"/>
     <use xlink:href="#DejaVuSans-2e" x="338.28125"/>
     <use xlink:href="#DejaVuSans-35" x="370.068359"/>
     <use xlink:href="#DejaVuSans-37" x="433.691406"/>
     <use xlink:href="#DejaVuSans-35" x="497.314453"/>
    </g>
   </g>
   <g id="text_17">
    <!-- ROC_Ratio_132C_127C -->
    <g transform="translate(167.3925 35.472)scale(0.12 -0.12)">
     <defs>
      <path id="DejaVuSans-4f" d="M 2522 4238 
Q 1834 4238 1429 3725 
Q 1025 3213 1025 2328 
Q 1025 1447 1429 934 
Q 1834 422 2522 422 
Q 3209 422 3611 934 
Q 4013 1447 4013 2328 
Q 4013 3213 3611 3725 
Q 3209 4238 2522 4238 
z
M 2522 4750 
Q 3503 4750 4090 4092 
Q 4678 3434 4678 2328 
Q 4678 1225 4090 567 
Q 3503 -91 2522 -91 
Q 1538 -91 948 565 
Q 359 1222 359 2328 
Q 359 3434 948 4092 
Q 1538 4750 2522 4750 
z
" transform="scale(0.015625)"/>
      <path id="DejaVuSans-5f" d="M 3263 -1063 
L 3263 -1509 
L -63 -1509 
L -63 -1063 
L 3263 -1063 
z
" transform="scale(0.015625)"/>
      <path id="DejaVuSans-61" d="M 2194 1759 
Q 1497 1759 1228 1600 
Q 959 1441 959 1056 
Q 959 750 1161 570 
Q 1363 391 1709 391 
Q 2188 391 2477 730 
Q 2766 1069 2766 1631 
L 2766 1759 
L 2194 1759 
z
M 3341 1997 
L 3341 0 
L 2766 0 
L 2766 531 
Q 2569 213 2275 61 
Q 1981 -91 1556 -91 
Q 1019 -91 701 211 
Q 384 513 384 1019 
Q 384 1609 779 1909 
Q 1175 2209 1959 2209 
L 2766 2209 
L 2766 2266 
Q 2766 2663 2505 2880 
Q 2244 3097 1772 3097 
Q 1472 3097 1187 3025 
Q 903 2953 641 2809 
L 641 3341 
Q 956 3463 1253 3523 
Q 1550 3584 1831 3584 
Q 2591 3584 2966 3190 
Q 3341 2797 3341 1997 
z
" transform="scale(0.015625)"/>
      <path id="DejaVuSans-33" d="M 2597 2516 
Q 3050 2419 3304 2112 
Q 3559 1806 3559 1356 
Q 3559 666 3084 287 
Q 2609 -91 1734 -91 
Q 1441 -91 1130 -33 
Q 819 25 488 141 
L 488 750 
Q 750 597 1062 519 
Q 1375 441 1716 441 
Q 2309 441 2620 675 
Q 2931 909 2931 1356 
Q 2931 1769 2642 2001 
Q 2353 2234 1838 2234 
L 1294 2234 
L 1294 2753 
L 1863 2753 
Q 2328 2753 2575 2939 
Q 2822 3125 2822 3475 
Q 2822 3834 2567 4026 
Q 2313 4219 1838 4219 
Q 1578 4219 1281 4162 
Q 984 4106 628 3988 
L 628 4550 
Q 988 4650 1302 4700 
Q 1616 4750 1894 4750 
Q 2613 4750 3031 4423 
Q 3450 4097 3450 3541 
Q 3450 3153 3228 2886 
Q 3006 2619 2597 2516 
z
" transform="scale(0.015625)"/>
     </defs>
     <use xlink:href="#DejaVuSans-52"/>
     <use xlink:href="#DejaVuSans-4f" x="69.482422"/>
     <use xlink:href="#DejaVuSans-43" x="148.193359"/>
     <use xlink:href="#DejaVuSans-5f" x="218.017578"/>
     <use xlink:href="#DejaVuSans-52" x="268.017578"/>
     <use xlink:href="#DejaVuSans-61" x="335.25"/>
     <use xlink:href="#DejaVuSans-74" x="396.529297"/>
     <use xlink:href="#DejaVuSans-69" x="435.738281"/>
     <use xlink:href="#DejaVuSans-6f" x="463.521484"/>
     <use xlink:href="#DejaVuSans-5f" x="524.703125"/>
     <use xlink:href="#DejaVuSans-31" x="574.703125"/>
     <use xlink:href="#DejaVuSans-33" x="638.326172"/>
     <use xlink:href="#DejaVuSans-32" x="701.949219"/>
     <use xlink:href="#DejaVuSans-43" x="765.572266"/>
     <use xlink:href="#DejaVuSans-5f" x="835.396484"/>
     <use xlink:href="#DejaVuSans-31" x="885.396484"/>
     <use xlink:href="#DejaVuSans-32" x="949.019531"/>
     <use xlink:href="#DejaVuSans-37" x="1012.642578"/>
     <use xlink:href="#DejaVuSans-43" x="1076.265625"/>
    </g>
   </g>
  </g>
 </g>
 <defs>
  <clipPath id="p9bfa351978">
   <rect x="102.880752" y="41.472" width="266.558497" height="266.112"/>
  </clipPath>
 </defs>
</svg>
